<svg width="147" height="78" viewBox="0 0 147 78" fill="none" xmlns="http://www.w3.org/2000/svg">
<path fill-rule="evenodd" clip-rule="evenodd" d="M77.3595 38.9131C77.3595 57.188 64.6334 72.9614 46.6087 76.5909C25.2864 80.9299 5.63339 67.1596 1.37894 47.2583C-1.41733 34.1147 1.83741 22.3902 10.9758 12.5432C16.9831 6.03372 24.4932 2.19499 33.2141 0.90237C40.0992 -0.141001 46.817 0.69315 53.2846 3.23836C53.7431 3.44758 54.2025 3.65589 54.4108 4.15711C54.62 4.69926 54.5363 5.24141 54.1188 5.65803C53.6594 6.07647 53.1591 6.2011 52.5751 5.95094C50.6557 5.15772 48.6945 4.49004 46.6496 4.07342C33.5488 1.52821 22.2828 4.90757 12.9779 14.4616C7.51182 20.1388 4.34168 26.9803 3.50662 34.7414C2.33863 45.5899 5.42599 55.1449 12.8115 63.1981C18.3603 69.2063 25.2455 72.9195 33.3396 74.1303C44.7721 75.7986 54.8701 72.7112 63.3818 64.8245C69.4728 59.151 73.0614 52.1413 74.2303 43.9207C75.19 37.2866 74.2721 30.9036 71.6432 24.7271C71.5595 24.5606 71.4759 24.436 71.434 24.2686C71.1429 23.4763 71.434 22.7249 72.1435 22.4329C72.8531 22.0991 73.6463 22.3911 73.9801 23.1425C74.7724 24.8945 75.4401 26.6892 75.9404 28.5667C76.9001 31.9051 77.3595 35.4082 77.3595 38.9131Z" fill="black"/>
<path fill-rule="evenodd" clip-rule="evenodd" d="M64.6336 21.6381C59.6269 21.6381 55.7463 17.7166 55.7463 12.6681C55.7463 7.74412 59.7515 3.78076 64.6336 3.78076C69.5985 3.78076 73.6046 7.78596 73.5628 12.7508C73.6046 17.6748 69.6404 21.6381 64.6336 21.6381Z" fill="black"/>
<path d="M30.7947 38.8709V30.4839C30.7947 30.0254 30.9202 29.8999 31.3787 29.8999C33.9657 29.9417 36.5528 29.859 39.098 29.9417C41.3094 29.9836 43.1459 30.735 44.1466 32.8626C44.6896 33.9479 44.7724 35.1159 44.3558 36.2838C44.1884 36.7432 44.2721 36.8688 44.7306 36.9934C46.8173 37.5355 48.2354 38.7881 48.7367 40.9576C49.4871 44.4207 46.9838 47.8 43.437 47.8837C39.3481 48.0093 35.3011 47.9256 31.2113 47.9256C30.7528 47.9256 30.7947 47.6754 30.8365 47.3834C30.7947 44.5453 30.7947 41.7081 30.7947 38.8709ZM39.3481 43.5856H42.7284C43.5207 43.5856 44.0219 43.0853 44.0638 42.3758C44.1047 41.5835 43.6881 40.9995 42.9367 40.8739C42.6866 40.8321 42.4783 40.8321 42.2272 40.8321H37.8045C37.0949 40.8321 36.0943 40.4983 35.7186 40.9576C35.3429 41.4161 35.6349 42.3767 35.5931 43.0853C35.5513 43.5028 35.7186 43.5856 36.0934 43.5856H39.3481ZM37.2205 36.6595H38.6395C39.349 36.6177 39.8912 36.0755 39.8494 35.4078C39.8075 34.6983 39.3491 34.2817 38.5977 34.2817C37.8045 34.2817 37.054 34.3235 36.2608 34.2817C35.7186 34.2399 35.5094 34.3645 35.5931 34.9494C35.6349 35.4915 35.4266 36.2429 35.7186 36.5758C36.0097 36.9097 36.7611 36.5758 37.2205 36.6595Z" fill="black"/>
<path fill-rule="evenodd" clip-rule="evenodd" d="M62.3803 47.9257H55.6216C52.617 47.9257 50.3638 45.6725 50.3638 42.6679V30.5677C50.3638 30.1092 50.4465 29.9419 50.9478 29.9419C52.1157 29.9836 53.2847 29.9836 54.4527 29.9419C54.9948 29.9419 55.1622 30.0255 55.1622 30.6095C55.1203 34.532 55.1622 38.4544 55.1622 42.3759C55.1622 43.3356 55.3287 43.5448 56.2883 43.5448H62.1301C62.6723 43.5448 62.8397 43.4193 62.8397 42.8771C62.7978 38.7882 62.8397 34.7403 62.7978 30.6514C62.7978 30.0256 62.9643 29.9 63.5483 29.9419C64.7172 29.9837 65.8433 29.9837 67.0113 29.9419C67.5116 29.9419 67.679 30.0256 67.679 30.5677C67.6372 34.6566 67.679 38.7455 67.6372 42.8771C67.6372 43.4611 67.8045 43.6276 68.3467 43.5866C68.8061 43.5448 69.2654 43.5866 69.7239 43.5866C70.0577 43.5448 70.1414 43.7113 70.1414 44.0451C70.1414 45.2131 70.0996 46.3402 70.1414 47.5082C70.1414 47.9257 70.0159 48.0085 69.6411 48.0085C67.1787 47.8838 64.759 47.9257 62.3803 47.9257Z" fill="black"/>
<path d="M7.72119 47.9259C8.88919 45.1714 9.9744 42.5435 11.1006 39.9146C12.0193 37.745 12.9362 35.5337 13.8541 33.3642C14.731 31.2356 16.483 29.9839 18.6116 29.9839C20.7811 29.9839 22.5331 31.1937 23.4091 33.3223C25.4121 38.1617 27.4152 43.0438 29.4592 47.9677H25.9133C24.4943 47.9677 24.4943 47.9677 23.9103 46.6323C23.3681 45.3388 23.3681 45.3388 21.9909 45.3388H14.2298C13.8541 45.3388 13.6458 45.4644 13.5202 45.8391C13.2701 46.5487 13.1454 47.4674 12.6024 47.884C12.0602 48.3016 11.1015 48.0096 10.3082 48.0096C9.55687 47.9259 8.67997 47.9259 7.72119 47.9259ZM15.5233 41.1244H21.1558C21.4069 41.1244 21.6562 41.1662 21.4897 40.7487C20.6974 38.7047 19.946 36.7017 19.1537 34.6568C19.07 34.4066 18.9036 34.2402 18.6534 34.2402C18.4023 34.2402 18.2777 34.4066 18.194 34.6158C17.264 36.7688 16.3736 38.9387 15.5233 41.1244Z" fill="black"/>
<path fill-rule="evenodd" clip-rule="evenodd" d="M115.288 31.7367C114.704 32.4044 114.119 33.0712 113.578 33.7807C113.243 34.281 112.784 34.1146 112.367 34.1146C112.158 34.1146 112.2 33.9054 112.2 33.7807V30.3595C112.2 29.8174 112.575 29.9838 112.826 29.9838C113.076 29.9838 113.41 29.9002 113.368 30.3595C113.328 31.0298 113.37 31.7025 113.493 32.3626C114.036 31.6949 114.662 31.0272 115.162 30.3177C115.538 29.8174 115.997 29.942 116.456 29.942C116.665 29.942 116.623 30.1094 116.623 30.234V33.8226C116.623 34.3229 116.248 34.1146 116.038 34.1564C115.788 34.1983 115.454 34.2401 115.496 33.7807C115.538 33.113 115.496 32.4454 115.496 31.8195C115.372 31.7367 115.331 31.7367 115.288 31.7367ZM92.6311 43.6277C93.0905 43.6277 93.5499 43.6696 94.0084 43.6277C94.425 43.5859 94.5923 43.7114 94.5923 44.1708C94.5923 44.6293 94.425 44.7129 94.0084 44.6711C93.3825 44.6292 92.7985 44.6711 92.1718 44.6711C91.9634 44.6711 91.797 44.6711 91.797 44.9631C91.797 45.2551 92.0053 45.1723 92.1718 45.2132C92.7148 45.2132 93.257 45.2551 93.8 45.2132C94.3003 45.1714 94.2585 45.4643 94.3003 45.7972C94.3422 46.2566 94.133 46.2976 93.8 46.2566C93.3696 46.2148 92.9361 46.2148 92.5056 46.2566C92.2973 46.2985 91.8798 46.0474 91.8379 46.5068C91.8379 47.0071 92.2973 46.7988 92.5474 46.7988C93.0905 46.8406 93.6745 46.8406 94.2167 46.7988C94.676 46.7569 94.676 47.0498 94.676 47.3837C94.676 47.7585 94.6342 47.9258 94.1757 47.9258C93.3825 47.884 92.6311 47.9258 91.8379 47.9258C91.0456 47.9258 90.6699 47.5501 90.6699 46.7569V44.0871C90.6699 43.7114 90.7955 43.6277 91.1293 43.6696C91.6296 43.6277 92.1299 43.6277 92.6311 43.6277ZM118.543 36.7853H119.919C120.295 36.7853 120.503 36.8272 120.503 37.2856C120.503 37.7859 120.336 37.8696 119.919 37.8287C119.377 37.787 118.833 37.787 118.292 37.8287C118.083 37.8287 117.749 37.6613 117.791 38.0788C117.791 38.4955 118.125 38.2881 118.333 38.329C118.805 38.3707 119.28 38.3707 119.752 38.329C120.211 38.2872 120.211 38.5382 120.253 38.8712C120.253 39.2468 120.169 39.4142 119.752 39.3715C119.209 39.3305 118.667 39.3715 118.124 39.3715C117.917 39.3715 117.791 39.3715 117.791 39.6225C117.791 39.8727 117.917 39.9145 118.125 39.9145C118.835 39.9145 119.502 39.9564 120.211 39.9145C120.628 39.9145 120.67 40.081 120.628 40.4148C120.587 40.7068 120.712 41.0407 120.211 40.9997C119.377 40.9579 118.584 40.9997 117.749 40.9997C117.04 40.9997 116.664 40.5813 116.664 39.9145V37.2019C116.664 36.869 116.79 36.7853 117.083 36.7853H118.543ZM140.114 38.3708C139.405 39.205 138.779 39.9145 138.237 40.6659C137.903 41.1662 137.443 40.957 136.985 40.9997C136.776 40.9997 136.817 40.8324 136.817 40.7068V37.1192C136.817 36.6189 137.151 36.7853 137.402 36.7853C137.653 36.7853 137.986 36.7016 137.986 37.161C137.945 37.8287 137.986 38.4955 137.986 39.3715C138.696 38.5373 139.279 37.8287 139.864 37.1192C140.03 36.9518 140.155 36.7853 140.448 36.7435C141.24 36.7016 141.24 36.7016 141.24 37.453C141.24 38.4536 141.198 39.497 141.24 40.4985C141.282 41.0407 140.949 40.916 140.614 40.9579C140.239 40.9997 140.072 40.916 140.114 40.4576C140.156 39.8727 140.114 39.2477 140.114 38.3708Z" fill="black"/>
<path d="M116.122 45.7557V44.0874C116.122 43.7536 116.247 43.628 116.581 43.6699C117.123 43.7117 117.707 43.6699 118.25 43.7536C119.001 43.8373 119.335 44.2539 119.293 45.0052C119.293 45.2554 119.335 45.3391 119.543 45.4228C120.169 45.6729 120.378 46.2151 120.294 46.8418C120.211 47.4249 119.668 47.8843 119.001 47.9261C118.167 47.968 117.332 47.9261 116.456 47.9261C116.164 47.9261 116.08 47.8006 116.08 47.5505C116.164 46.9246 116.122 46.3397 116.122 45.7557ZM118.167 46.8828C118.5 46.7163 119.167 47.1329 119.167 46.5071C119.167 46.0068 118.542 46.216 118.208 46.2569C117.916 46.2988 117.29 45.8812 117.332 46.5489C117.291 47.1329 117.875 46.6745 118.167 46.8828ZM117.707 45.2136C117.916 45.1717 118.208 45.2972 118.208 44.9634C118.208 44.6714 117.916 44.6714 117.707 44.6714C117.498 44.6714 117.249 44.6296 117.291 44.9634C117.291 45.2972 117.541 45.1726 117.707 45.2136Z" fill="black"/>
<path fill-rule="evenodd" clip-rule="evenodd" d="M87.9572 47.8837H86.3307C85.663 47.8419 85.3292 47.4662 85.2874 46.7985C85.2874 45.9225 85.3292 45.0465 85.2874 44.2114C85.2874 43.7948 85.371 43.6274 85.8295 43.6274C86.247 43.6274 86.4554 43.7111 86.4144 44.2114C86.3726 44.9628 86.4144 45.6723 86.4144 46.4237C86.4144 46.7566 86.4972 46.8822 86.831 46.8822C88.2501 46.924 88.2501 46.9659 88.2501 45.5468C88.2501 45.1302 88.2919 44.7127 88.2501 44.2951C88.1664 43.7111 88.4593 43.6274 88.9596 43.6274C89.3762 43.6274 89.4599 43.753 89.4599 44.1705C89.4181 44.921 89.4599 45.6714 89.4599 46.4237C89.4599 46.5902 89.3762 46.8403 89.7101 46.8403C90.0858 46.8403 90.0021 47.0496 90.0021 47.2579C90.0439 47.7163 89.9602 47.9674 89.4181 47.8837C88.9596 47.8419 88.4575 47.8837 87.9572 47.8837Z" fill="black"/>
<path d="M85.2874 38.9128V37.1608C85.2874 36.9516 85.2874 36.7852 85.5794 36.7852C86.2052 36.7852 86.831 36.827 87.4569 36.827C87.7907 36.827 88.2083 36.9935 88.2501 37.2855C88.4166 38.0368 88.9178 38.5371 89.3344 39.1211C89.8775 39.8725 89.2098 40.9159 88.2501 40.9996C87.3732 41.0824 86.4972 40.9996 85.5794 41.0405C85.2874 41.0405 85.2874 40.9159 85.2874 40.6657V38.9128ZM87.2904 39.9562H87.9162C88.1255 39.9562 88.3329 39.8725 88.3329 39.6224C88.3329 39.3722 88.1246 39.3304 87.9162 39.3304H86.7064C86.4554 39.3304 86.4144 39.455 86.4144 39.6642C86.4144 39.8734 86.4972 39.998 86.7055 39.9553L87.2904 39.9562ZM86.831 38.3288C87.0403 38.3288 87.3313 38.3707 87.3313 38.0787C87.3732 37.7867 87.0812 37.7867 86.8729 37.7867C86.6637 37.7867 86.4144 37.703 86.4144 38.0368C86.4144 38.3707 86.6646 38.3288 86.831 38.3288Z" fill="black"/>
<path fill-rule="evenodd" clip-rule="evenodd" d="M125.802 34.1143H124.174C123.549 34.1143 123.215 33.7386 123.174 33.1546V30.2756C123.174 29.8171 123.424 29.8999 123.674 29.9418C123.925 29.9836 124.342 29.7334 124.342 30.2756V32.6125C124.342 32.9882 124.467 33.071 124.842 33.071C126.219 33.071 126.219 33.1128 126.219 31.6947C126.219 31.319 126.261 30.9433 126.219 30.6094C126.136 30.0254 126.345 29.859 126.929 29.8999C127.304 29.9418 127.472 30.0254 127.429 30.4002C127.388 31.0688 127.429 31.7365 127.429 32.4042C127.429 32.6953 127.262 33.03 127.847 33.071C128.138 33.1128 127.93 33.614 127.972 33.8642C127.972 34.1562 127.722 34.0306 127.596 34.0306C126.929 34.1143 126.345 34.1143 125.802 34.1143ZM131.811 31.5282C131.101 32.4042 130.517 33.071 129.933 33.7805C129.558 34.2399 129.098 34.0725 128.682 34.0725C128.472 34.0725 128.556 33.8223 128.556 33.6977V30.3174C128.556 29.8171 128.848 29.8999 129.14 29.8999C129.432 29.8999 129.766 29.8171 129.724 30.3184C129.683 30.9851 129.724 31.6528 129.724 32.487C130.392 31.6947 131.018 31.027 131.519 30.3174C131.894 29.8171 132.311 29.8999 132.77 29.8999C133.021 29.8999 132.98 30.0673 132.98 30.2338V33.7386C132.98 34.198 132.687 34.1143 132.478 34.0725C132.228 34.0306 131.811 34.2817 131.811 33.7386V31.5282Z" fill="black"/>
<path d="M133.938 34.0725C134.022 33.8642 134.106 33.7386 134.188 33.614C134.481 33.2383 134.522 32.9882 134.106 32.5288C133.271 31.611 133.938 30.0673 135.19 29.9417C136.025 29.859 136.859 29.9417 137.735 29.8999C138.027 29.8999 138.027 30.0254 138.027 30.2756V33.7386C138.027 34.1571 137.819 34.198 137.569 34.1143C137.319 34.0725 136.859 34.3645 136.859 33.7386C136.859 33.5722 136.985 33.2383 136.65 33.2383C136.275 33.2383 135.816 32.9882 135.524 33.4475C135.023 34.1571 135.023 34.1571 133.938 34.0725ZM136.025 30.9851H135.566C135.148 30.9851 134.898 31.1943 134.898 31.611C134.898 31.9866 135.148 32.195 135.524 32.195H136.483C136.775 32.195 136.817 32.1113 136.859 31.8193C136.901 30.9433 136.943 30.9433 136.025 30.9851Z" fill="black"/>
<path fill-rule="evenodd" clip-rule="evenodd" d="M95.5936 45.7553C95.5936 45.2131 95.6354 44.6291 95.5936 44.087C95.5518 43.5867 95.8438 43.6276 96.1358 43.6276C96.4278 43.6276 96.7198 43.5448 96.7198 44.0451C96.7616 45.1713 96.7616 45.1713 97.8468 45.1713C98.681 45.1713 98.681 45.1713 98.7228 44.3371C98.7228 43.6694 99.0139 43.4611 99.6825 43.6276C99.9327 43.7113 99.8917 43.8787 99.8917 44.0451V47.4663C99.8917 48.0503 99.5151 47.842 99.2231 47.8839C98.8893 47.9257 98.7228 47.8839 98.7228 47.4663C98.7228 46.2147 98.681 46.2565 97.4293 46.2147C96.8453 46.1728 96.6361 46.382 96.7198 46.966C96.7616 47.1325 96.7198 47.2999 96.7198 47.4663C96.7616 47.9666 96.4287 47.8839 96.1358 47.8839C95.8438 47.8839 95.5099 47.9257 95.5936 47.4663V45.7553ZM100.1 38.871C100.1 39.455 100.058 40.0399 100.1 40.6239C100.141 41.1661 99.7662 40.9996 99.4733 40.9996C99.2231 40.9996 98.9311 41.0824 98.9311 40.6239C98.973 39.8726 98.9311 39.1212 98.9311 38.3289C98.9311 38.0787 98.973 37.7449 98.5973 37.8286C98.2216 37.9113 97.6794 37.4947 97.5548 38.2033C97.4293 38.7883 97.3456 39.3304 97.221 39.9144C97.0954 40.5821 96.6779 40.915 96.0111 40.9578C95.3425 40.9996 95.1342 40.7486 95.3016 40.1227C95.3425 39.9981 95.3844 39.9144 95.5099 39.9562C96.0939 40.0809 96.1358 39.6224 96.1776 39.2467C96.2613 38.7046 96.3868 38.2033 96.4687 37.6612C96.5533 37.119 96.8871 36.7852 97.4293 36.7852C98.1807 36.7434 98.9311 36.7852 99.7243 36.7852C100.015 36.7852 100.1 36.9517 100.058 37.2018C100.1 37.7449 100.1 38.287 100.1 38.871Z" fill="black"/>
<path d="M105.899 32.0283C105.899 33.2799 104.857 34.2387 103.521 34.2387C102.228 34.2387 101.184 33.2381 101.184 32.0283C101.184 30.7766 102.186 29.8169 103.563 29.8169C104.898 29.8169 105.899 30.7775 105.899 32.0283ZM104.731 31.9864C104.731 31.2769 104.231 30.7766 103.521 30.7766C102.812 30.7766 102.352 31.2769 102.352 31.9864C102.352 32.7378 102.812 33.2381 103.521 33.2381C104.272 33.2381 104.731 32.7378 104.731 31.9864ZM103.354 36.7011C104.689 36.7011 105.733 37.7018 105.691 38.9544C105.649 40.1642 104.606 41.1239 103.312 41.1239C101.978 41.1239 100.934 40.1233 100.934 38.8707C100.934 37.619 101.978 36.6602 103.354 36.7011ZM102.102 38.8707C102.102 39.5802 102.603 40.1223 103.312 40.0805C104.022 40.0805 104.522 39.5802 104.522 38.8288C104.522 38.1611 103.98 37.619 103.354 37.619C102.644 37.619 102.102 38.1611 102.102 38.8707ZM121.462 38.746C121.504 38.1611 121.171 37.2433 121.588 36.8685C121.964 36.5347 122.882 36.7848 123.549 36.7848C123.84 36.7848 124.133 36.7848 124.383 36.8267C125.259 36.9931 125.719 37.619 125.677 38.5787C125.635 39.3719 125.093 39.9977 124.258 40.0805C123.954 40.1221 123.645 40.1221 123.341 40.0805C122.882 40.0396 122.506 40.0396 122.59 40.7482C122.631 41.2485 122.13 40.9574 121.88 40.9993C121.671 41.0402 121.462 41.0402 121.462 40.7063C121.504 40.4153 121.462 40.0805 121.462 39.7885V38.746ZM123.424 39.0371H123.883C124.259 39.0371 124.509 38.8707 124.551 38.495C124.593 38.0784 124.301 37.8691 123.925 37.8282C123.591 37.7864 123.257 37.8282 122.965 37.8282C122.714 37.8282 122.631 37.9528 122.631 38.1611C122.506 39.038 122.506 39.038 123.424 39.038V39.0371Z" fill="black"/>
<path fill-rule="evenodd" clip-rule="evenodd" d="M106.525 38.9129C106.525 38.3289 106.567 37.7449 106.525 37.1609C106.483 36.6606 106.859 36.7852 107.11 36.7852C107.36 36.7852 107.694 36.6179 107.694 37.1191C107.694 37.4948 107.527 37.9951 107.777 38.2034C108.028 38.3708 108.528 38.2452 108.904 38.2871C109.53 38.3708 109.738 38.1615 109.655 37.5357C109.613 37.1609 109.488 36.7015 110.197 36.7434C110.698 36.7852 110.823 36.8689 110.781 37.3692C110.74 38.4258 110.74 39.4837 110.781 40.5403C110.781 40.9997 110.572 41.0406 110.239 40.9997C109.947 40.9578 109.613 41.1243 109.613 40.5812C109.613 39.3304 109.571 39.3714 108.32 39.3304C107.736 39.2886 107.527 39.4969 107.652 40.04C107.694 40.2064 107.652 40.3311 107.652 40.4984C107.736 40.9987 107.443 41.0406 107.068 41.0406C106.692 41.0406 106.442 41.0406 106.483 40.5403C106.567 39.9981 106.525 39.4141 106.525 38.9129Z" fill="black"/>
<path d="M115.288 45.7554C115.288 47.008 114.286 47.9676 112.909 47.9676C111.573 47.9676 110.573 47.0489 110.531 45.7972C110.531 44.5046 111.491 43.5449 112.867 43.5449C114.202 43.5449 115.247 44.5046 115.288 45.7554ZM114.119 45.7972C114.119 45.0877 113.618 44.5455 112.909 44.5455C112.199 44.5455 111.657 45.0886 111.657 45.7972C111.657 46.4649 112.157 47.0071 112.826 47.0071C113.576 47.0071 114.078 46.5068 114.119 45.7972ZM94.8422 38.8711C94.8422 40.1228 93.7988 41.1243 92.4644 41.1243C91.129 41.1243 90.1266 40.1646 90.1266 38.9548C90.1266 37.6613 91.0871 36.7016 92.4644 36.7016C93.8407 36.6598 94.8422 37.6204 94.8422 38.8711ZM91.2955 38.8711C91.2955 39.6225 91.7958 40.1228 92.5053 40.1228C93.2148 40.1228 93.7151 39.5807 93.7151 38.8711C93.7151 38.2034 93.173 37.6613 92.5471 37.6613C91.8376 37.6194 91.2955 38.1616 91.2955 38.8711ZM85.2463 34.1573C85.8294 32.8629 86.2887 31.653 86.8727 30.485C87.2903 29.65 88.5829 29.65 89.0013 30.526C89.5435 31.653 90.0019 32.8638 90.545 34.0736C89.9601 33.9899 89.3352 34.3647 89.0423 33.5724C89.0004 33.4887 88.7512 33.4887 88.6256 33.4887H87.2066C87.0401 33.4887 86.8309 33.4469 86.789 33.5724C86.498 34.4065 85.8294 33.9899 85.2454 34.1564M88.5838 32.4872C88.3746 31.945 88.2499 31.4029 87.8743 30.9017C87.7906 31.069 87.7069 31.1937 87.665 31.2773C87.1229 32.5709 87.1229 32.5709 88.5838 32.4872Z" fill="black"/>
<path fill-rule="evenodd" clip-rule="evenodd" d="M109.404 34.1146H107.777C107.151 34.1146 106.776 33.7389 106.734 33.1139V30.3177C106.734 29.8592 106.984 29.9001 107.276 29.942C107.568 29.942 107.902 29.8174 107.902 30.3595C107.86 31.1109 107.902 31.8614 107.902 32.6127C107.902 32.9884 108.028 33.0712 108.362 33.113C109.781 33.1549 109.781 33.1549 109.781 31.7786C109.781 31.4029 109.821 31.0272 109.781 30.6934C109.696 30.1094 109.905 29.9001 110.531 29.942C110.865 29.9838 110.989 30.0675 110.948 30.4014C110.907 31.1518 110.948 31.8614 110.948 32.6118C110.948 32.8629 110.865 33.0712 111.281 33.1549C111.7 33.1967 111.449 33.6552 111.491 33.9063C111.533 34.2401 111.281 34.1564 111.115 34.1564C110.531 34.1146 109.987 34.1146 109.404 34.1146Z" fill="black"/>
<path d="M122.506 34.1576C121.88 34.0311 121.254 34.4068 121.004 33.6563C120.962 33.5308 120.795 33.5726 120.628 33.5726H119.001C118.876 33.5726 118.667 33.6145 118.667 33.6563C118.417 34.4905 117.791 33.9902 117.165 34.1985C117.749 32.8631 118.25 31.6114 118.875 30.4434C119.335 29.6084 120.545 29.7339 120.962 30.6099C121.504 31.6951 121.963 32.8631 122.506 34.1576ZM119.877 30.8601C119.586 31.445 119.335 31.9453 119.209 32.4883H120.503C120.336 31.9453 120.169 31.445 119.877 30.8601ZM105.607 45.7147V45.631C105.691 44.9633 105.441 44.2538 105.733 43.5861C106.859 43.6279 107.986 43.3359 109.071 43.8372C109.696 44.1283 109.905 44.755 109.862 45.4227C109.822 46.1322 109.404 46.6325 108.695 46.8417C108.195 47.0082 107.694 46.9664 107.193 46.9245C106.859 46.9245 106.651 46.9664 106.734 47.3839C106.817 48.0097 106.359 47.8005 106.067 47.8424C105.691 47.8842 105.566 47.7587 105.607 47.3839C105.649 46.8408 105.607 46.2987 105.607 45.7147ZM107.568 45.9239H108.028C108.402 45.9239 108.737 45.7565 108.695 45.339C108.695 44.9215 108.402 44.7132 108.028 44.7132H107.109C106.901 44.7132 106.776 44.755 106.734 45.047C106.692 45.8812 106.692 45.923 107.568 45.923" fill="black"/>
<path fill-rule="evenodd" clip-rule="evenodd" d="M136.067 36.8267C135.983 36.9513 135.942 37.035 135.858 37.1178C135.482 37.6608 134.857 38.203 134.857 38.746C134.857 39.2882 135.482 39.8303 135.816 40.3734C135.9 40.5399 136.025 40.7063 136.108 40.8737C135.107 41.1657 134.856 41.0829 134.356 40.2479C134.064 39.8303 133.98 39.1627 133.188 39.2882C132.896 39.33 132.77 39.4137 132.812 39.7057V40.206C132.812 41.0402 132.771 41.082 131.936 40.9993C131.727 40.9574 131.643 40.9156 131.643 40.6654V37.0768C131.643 36.5347 132.062 36.743 132.311 36.743C132.562 36.7011 132.854 36.6593 132.811 37.1187C132.811 37.2851 132.771 37.4098 132.811 37.5771C132.854 37.7864 132.603 38.1611 133.021 38.203C133.354 38.2448 133.772 38.3704 133.98 37.9119C134.022 37.7864 134.148 37.7027 134.19 37.5771C134.564 36.7848 135.19 36.6175 136.067 36.8267ZM141.909 40.9574C142.284 40.3734 142.617 39.7885 143.035 39.2473C143.285 38.9125 143.243 38.6624 142.993 38.3285C142.617 37.8691 142.326 37.3688 141.95 36.8267C142.95 36.451 143.452 36.9931 143.869 37.7445C144.245 38.454 144.287 38.4122 144.745 37.7445C144.797 37.6969 144.839 37.6401 144.871 37.5771C145.205 36.743 145.83 36.6175 146.665 36.8267C146.373 37.2433 146.122 37.7027 145.789 38.0784C145.413 38.5368 145.329 38.9125 145.747 39.4137C146.122 39.8722 146.373 40.3734 146.706 40.8737C145.622 41.1239 145.497 41.0829 144.913 40.1223C144.287 39.1627 144.245 39.1627 143.744 40.1223C143.369 40.9156 142.785 41.1657 141.909 40.9574ZM128.764 36.7011C129.516 36.7011 130.183 36.9104 130.643 37.5353C130.726 37.6608 131.018 37.8282 130.726 37.9947C130.475 38.1202 130.267 38.454 129.891 38.2867C129.808 38.2448 129.766 38.1202 129.682 38.0774C129.14 37.619 128.181 37.6608 127.763 38.1202C127.388 38.5368 127.388 39.2882 127.763 39.7467C128.222 40.247 129.057 40.2897 129.641 39.8303C129.808 39.7057 129.851 39.4137 130.225 39.5393C130.893 39.8303 130.977 40.0396 130.435 40.5399C129.641 41.2494 128.723 41.2912 127.764 40.9993C126.887 40.7063 126.428 40.0396 126.345 39.1627C126.261 38.2867 126.595 37.5771 127.345 37.1187C127.746 36.8005 128.255 36.6507 128.764 36.7011ZM98.2219 29.8169C99.1407 29.8169 99.8074 30.0252 100.309 30.6092C100.433 30.7347 100.767 30.943 100.392 31.1095C100.141 31.235 99.933 31.7363 99.5154 31.3187L99.349 31.1514C98.8068 30.6929 97.8881 30.7347 97.4714 31.235C97.0958 31.6944 97.0958 32.4039 97.4714 32.8206C97.9299 33.3209 98.8068 33.3636 99.349 32.9043C99.5154 32.7787 99.5582 32.4867 99.8911 32.6541C100.601 32.9879 100.642 33.1126 100.058 33.6547C99.2234 34.4479 97.5961 34.4479 96.7201 33.6975C95.8859 32.9461 95.7194 31.6107 96.429 30.6929C96.8456 30.1089 97.5551 29.8169 98.2219 29.8169ZM93.0906 29.8169C94.0084 29.8169 94.6761 30.0252 95.1764 30.651C95.3019 30.7766 95.5102 30.9849 95.2601 31.1104C95.0099 31.235 94.7598 31.7363 94.3832 31.3606C94.1749 31.1514 93.9665 30.9849 93.6736 30.9012C93.0487 30.7347 92.381 30.943 92.1309 31.4443C91.8798 31.9446 92.0053 32.6541 92.422 32.9879C92.8813 33.3636 93.6746 33.3218 94.1749 32.9043C94.3422 32.7378 94.4669 32.4867 94.8007 32.695C95.4265 33.0298 95.4684 33.1544 94.9681 33.6556C94.2585 34.3233 92.9232 34.4898 92.0053 33.9895C91.1712 33.571 90.7537 32.6959 90.9201 31.6107C91.0457 30.5255 92.0053 29.8169 93.0906 29.8169ZM113.702 36.7848H115.538C116.038 36.743 115.872 37.1187 115.914 37.3688C115.914 37.619 115.956 37.8691 115.538 37.8691C114.286 37.911 114.286 37.9528 114.286 39.2464C114.286 39.6639 114.245 40.0805 114.286 40.498C114.328 40.9574 114.203 41.082 113.702 41.082C113.202 41.082 113.077 40.9156 113.118 40.4562C113.159 39.7467 113.118 39.0799 113.118 38.3704C113.118 37.9528 112.993 37.8282 112.618 37.87H112.117C111.741 37.87 111.449 37.911 111.449 37.3688C111.449 36.8685 111.658 36.7848 112.075 36.8267C112.617 36.7848 113.159 36.7848 113.702 36.7848ZM102.77 43.6272H104.606C105.106 43.5854 104.982 43.9192 104.982 44.2112C104.982 44.4623 105.023 44.7115 104.606 44.7115C104.189 44.7115 103.646 44.5041 103.396 44.838C103.187 45.1291 103.354 45.6303 103.354 46.0478C103.354 46.5481 103.312 47.0484 103.354 47.5497C103.396 48.05 103.02 47.8835 102.77 47.8835C102.52 47.8835 102.186 48.009 102.186 47.5078V45.2546C102.186 44.7961 102.061 44.6288 101.602 44.6706C101.435 44.7125 101.268 44.6706 101.102 44.6706C100.683 44.7125 100.559 44.5869 100.559 44.1703C100.559 43.7519 100.642 43.5854 101.101 43.6272C101.644 43.6691 102.186 43.6272 102.77 43.6272Z" fill="black"/>
<path fill-rule="evenodd" clip-rule="evenodd" d="M38.9724 77.7587C17.6519 77.7587 0.293945 60.4016 0.293945 39.0803C0.293945 17.758 17.651 0.401855 38.9724 0.401855C44.0209 0.401855 48.903 1.36063 53.535 3.23815C54.3691 3.57199 54.7448 4.48983 54.411 5.32489C54.0771 6.15905 53.1593 6.53473 52.3252 6.20089C48.0823 4.48698 43.5483 3.60855 38.9724 3.61384C19.403 3.61384 3.46408 19.5528 3.46408 39.1212C3.46408 58.6906 19.403 74.6295 38.9724 74.6295C58.5408 74.6295 74.4797 58.6906 74.4797 39.1212C74.4797 34.0308 73.4364 29.1496 71.3505 24.5595C70.9748 23.7672 71.3505 22.8075 72.1428 22.4309C72.9361 22.0561 73.8957 22.4309 74.2714 23.2241C76.5246 28.2318 77.6508 33.5723 77.6508 39.1212C77.6508 60.4016 60.2937 77.7587 38.9724 77.7587Z" fill="#3DAE2B"/>
<path fill-rule="evenodd" clip-rule="evenodd" d="M73.6046 12.7089C73.6046 17.6329 69.5985 21.6381 64.6755 21.6381C59.7515 21.6381 55.7463 17.6329 55.7463 12.7089C55.7463 7.78589 59.7515 3.77979 64.6755 3.77979C65.8435 3.77979 67.0115 4.03085 68.0548 4.44747C70.178 5.31449 71.8929 6.95499 72.8533 9.03758C73.3126 10.1637 73.6046 11.4154 73.6046 12.7089Z" fill="#FFC600"/>
</svg>
