<svg width="191" height="50" viewBox="0 0 191 50" fill="none" xmlns="http://www.w3.org/2000/svg">
<g clip-path="url(#clip0_318_1870)">
<path d="M34.5393 1.69404C34.203 3.01582 30.2797 18.9526 29.8314 20.9542L29.6445 21.8228H38.5374H47.4302L49.9336 11.5129C51.3161 5.88595 52.4371 1.01428 52.4371 0.749922C52.4371 0.410036 50.4194 0.296741 43.6563 0.296741H34.913L34.5393 1.69404ZM46.8323 5.47054C46.8323 5.84819 46.1598 8.68056 45.4125 11.815L43.9926 17.4798L39.6209 17.5931C36.968 17.6686 35.2493 17.5553 35.2493 17.3287C35.2493 16.9511 37.0428 9.39809 37.8274 6.41466L38.2758 4.82853H42.5354C46.384 4.82853 46.8323 4.90406 46.8323 5.47054Z" fill="#E36C6B"/>
<path d="M61.4421 11.0597L54.2681 21.8228H56.8089L59.3497 21.785L63.9456 14.8362C66.4864 10.9842 68.6535 7.84973 68.8403 7.84973C68.9898 7.84973 69.4008 9.51139 69.7745 11.5129C70.1107 13.5522 70.6712 16.6867 71.0075 18.4994L71.6053 21.8228H73.9593C75.7528 21.8228 76.3507 21.6717 76.3507 21.294C76.3507 20.8409 73.8846 6.94337 72.9505 2.26052L72.5768 0.296741H70.5965H68.6535L61.4421 11.0597Z" fill="#E36C6B"/>
<path d="M88.3447 1.69404C88.1205 2.48711 87.0369 7.0189 85.8786 11.815C84.7203 16.5734 83.7114 20.8031 83.5993 21.143C83.4125 21.785 83.973 21.8228 91.7822 21.8228H100.189L101.534 16.2335C102.282 13.1746 102.992 10.3044 103.104 9.81351L103.328 8.98268H97.3122C92.0811 8.98268 91.2965 8.90715 91.2965 8.37844C91.2965 7.88749 92.4548 2.94029 93.0153 0.938745C93.2021 0.372272 92.9405 0.296741 90.9602 0.296741H88.7183L88.3447 1.69404ZM97.6485 13.3256C97.6485 13.4012 97.4617 14.3453 97.2375 15.4027L96.8265 17.291H92.9032H88.9799L89.2414 16.0447C89.914 13.0613 89.7645 13.1368 93.912 13.1368C95.9671 13.1368 97.6485 13.2123 97.6485 13.3256Z" fill="#E36C6B"/>
<path d="M113.342 0.410036C113.342 0.485567 112.408 4.26206 111.287 8.86938C110.166 13.4389 109.082 17.933 108.895 18.8771C108.671 19.7834 108.41 20.8409 108.26 21.1808C108.036 21.785 109.082 21.8228 121.45 21.8228H134.826L137.367 11.5129C138.75 5.88595 139.871 1.01428 139.871 0.749922C139.871 0.410036 139.31 0.296741 137.741 0.372272L135.611 0.485567L133.556 8.86938L131.464 17.291H128.213C126.382 17.291 124.925 17.1777 124.925 16.9888C124.925 16.8378 125.822 13.0235 126.942 8.49173L128.923 0.258978L126.644 0.372272L124.364 0.485567L122.384 8.86938L120.366 17.291H117.003C114.014 17.291 113.678 17.2154 113.865 16.6112C113.977 16.2713 114.836 12.7214 115.77 8.79385C116.705 4.82853 117.564 1.31639 117.676 0.938745C117.863 0.372272 117.601 0.296741 115.621 0.296741C114.351 0.296741 113.342 0.334507 113.342 0.410036Z" fill="#E36C6B"/>
<path d="M147.755 1.69404C147.531 2.48711 146.447 7.0189 145.289 11.815C144.13 16.5734 143.122 20.8031 143.009 21.143C142.823 21.7472 143.084 21.8228 145.102 21.8228C147.269 21.8228 147.381 21.785 147.568 20.7653C147.68 20.1989 148.166 18.3106 148.614 16.5357L149.399 13.3256L153.247 13.2123C155.34 13.1746 157.059 13.2501 157.059 13.4012C157.059 13.5522 156.648 15.4405 156.125 17.5931C155.601 19.7457 155.19 21.5584 155.19 21.6717C155.19 21.7472 156.199 21.8228 157.395 21.8228H159.599L160.421 18.3106C160.832 16.4224 162.028 11.5507 163 7.54761L164.831 0.296741H156.461H148.128L147.755 1.69404ZM159.002 4.63971C159.114 4.753 159.002 5.73489 158.74 6.83008L158.329 8.79385L154.518 8.90715C150.258 9.02044 150.37 9.13374 151.118 6.11254L151.529 4.45088H155.19C157.171 4.45088 158.89 4.52641 159.002 4.63971Z" fill="#E36C6B"/>
<path d="M172.415 1.9584C171.855 4.29982 171.892 4.45088 172.939 4.45088C173.462 4.45088 173.873 4.52641 173.873 4.63971C173.873 4.753 173.462 6.64125 172.939 8.83162C172.415 11.022 172.004 12.9102 172.004 12.9858C172.004 13.0613 172.939 13.1368 174.059 13.1368C175.18 13.1368 176.115 13.2501 176.115 13.3634C176.115 13.4767 174.657 15.1761 172.864 17.1399C168.38 22.0116 168.455 21.8228 171.593 21.8228H174.172L178.058 17.4798C181.645 13.4389 182.84 12.457 182.84 13.59C182.84 13.8544 182.429 15.7048 181.906 17.6686C181.383 19.6324 180.972 21.3696 180.972 21.5206C180.972 21.7095 181.943 21.8228 183.177 21.8228H185.381L187.324 13.7033C188.37 9.24703 189.566 4.41312 189.94 2.94029L190.612 0.296741H181.719H172.826L172.415 1.9584ZM184.783 5.39501C184.708 5.81042 184.484 6.79231 184.297 7.54761L183.924 8.98268H180.748H177.534L177.796 7.62314C178.394 4.41312 178.356 4.41312 181.794 4.52641C184.671 4.63971 184.895 4.71524 184.783 5.39501Z" fill="#E36C6B"/>
<path d="M10.0281 1.12757C9.87868 1.50522 6.85213 13.9299 5.17071 20.9919L4.98389 21.8228L13.2789 21.7472L21.6112 21.6339L23.0684 15.8937C23.8531 12.7214 24.4136 9.88904 24.3015 9.54915C24.1147 9.05821 23.1805 8.98268 18.4352 8.98268C12.1953 8.98268 12.4195 9.13374 13.2415 6.22584L13.6152 4.82853H19.7056H25.8334L26.2445 3.16688C26.4686 2.22275 26.6555 1.27863 26.6555 1.08981C26.6555 0.447802 10.2523 0.523333 10.0281 1.12757ZM19.1825 13.4012C19.1825 13.59 18.9583 14.5341 18.6968 15.5915L18.211 17.4798L14.3625 17.5931L10.5139 17.7064L10.7754 16.0825C11.2612 13.1368 11.2985 13.1368 15.446 13.1368C17.5011 13.1368 19.1825 13.2501 19.1825 13.4012Z" fill="#E36C6B"/>
<path d="M73.847 28.3183C73.6228 28.5826 72.4271 33.2277 71.1194 38.6281C69.849 44.0285 68.6907 48.6736 68.6159 48.9002C68.4665 49.2778 69.9237 49.3911 75.1548 49.3911H81.8804L82.2914 47.7295C82.5156 46.7853 82.7025 45.8412 82.7025 45.6524C82.7025 45.388 81.1705 45.237 78.4055 45.237C76.0515 45.237 74.1086 45.1237 74.1086 44.9349C74.1459 44.7838 74.4448 43.3865 74.8185 41.8381L75.4911 39.0058L79.9748 38.8925L84.496 38.7792L84.907 37.1175C85.1312 36.2112 85.318 35.267 85.318 35.0782C85.318 34.8138 83.786 34.6628 81.021 34.6628C76.5373 34.6628 76.3504 34.5873 76.9483 33.0011C77.1351 32.5102 77.9198 32.3969 81.5815 32.3969H85.9906L86.4389 30.4709C86.8126 28.9225 86.8126 28.4693 86.4389 28.2428C86.14 28.0539 83.3003 27.9029 80.0869 27.9029C75.7152 27.8651 74.1459 27.9406 73.847 28.3183Z" fill="#E36C6B"/>
<path d="M123.692 28.1295C123.468 28.5071 118.573 48.5225 118.573 49.0135C118.573 49.2401 121.151 49.3911 125.261 49.3911H131.912L132.174 47.9183C132.286 47.0875 132.51 46.1811 132.622 45.8412C132.809 45.3125 132.323 45.237 128.512 45.237C123.542 45.237 123.804 45.5013 124.813 41.4227L125.411 38.8547L129.894 38.7414C134.901 38.6281 134.341 38.9302 135.163 35.6824L135.387 34.6628H131.165C128.811 34.6628 126.83 34.5873 126.718 34.474C126.606 34.3607 126.606 33.8697 126.718 33.341C126.868 32.4347 126.942 32.4347 131.389 32.3214L135.91 32.2081L136.396 30.3198C136.657 29.2624 136.882 28.3183 136.882 28.1295C136.882 27.9784 133.967 27.8651 130.38 27.8651C126.793 27.8651 123.766 27.9784 123.692 28.1295Z" fill="#E36C6B"/>
<path d="M141.589 38.0994C140.244 43.7264 139.123 48.5603 139.123 48.8624C139.123 49.3156 139.572 49.3911 141.253 49.3156L143.42 49.2023L144.018 46.5587C144.354 45.0859 144.84 43.1977 145.064 42.2913L145.513 40.7052H149.212C152.388 40.7052 152.948 40.7807 152.948 41.3094C152.948 41.8004 151.79 46.7476 151.229 48.7113C151.043 49.3156 151.304 49.3911 153.285 49.3911H155.526L155.9 47.956C157.357 42.4801 160.645 28.205 160.496 28.0539C160.384 27.9406 159.412 27.8651 158.329 27.8651C156.087 27.8651 156.274 27.5252 154.929 33.6054L154.256 36.551H150.445C147.605 36.551 146.596 36.4377 146.596 36.0601C146.596 35.8335 147.007 34.0208 147.53 32.057C148.016 30.0932 148.352 28.356 148.24 28.1672C148.128 28.0162 147.157 27.8651 146.036 27.8651H144.055L141.589 38.0994Z" fill="#E36C6B"/>
<path d="M167.745 28.5071C167.633 28.8848 166.549 33.4165 165.279 38.6281C164.046 43.8019 162.925 48.3715 162.813 48.7113C162.626 49.3156 162.887 49.3911 164.868 49.3911H167.11L167.483 47.956C167.707 47.2007 168.156 45.2747 168.567 43.7264L169.239 40.894L173.051 40.7807C175.965 40.7052 176.862 40.7807 176.862 41.1584C176.862 41.4227 176.451 43.2732 175.928 45.237C175.405 47.2007 174.994 48.9379 174.994 49.089C174.994 49.2778 176.002 49.3911 177.198 49.3911H179.403L181.906 39.1946C183.289 33.5676 184.297 28.7337 184.185 28.4316C184.036 27.9406 182.691 27.8651 175.965 27.8651C168.642 27.8651 167.932 27.9406 167.745 28.5071ZM178.879 33.4165C178.057 36.6643 178.543 36.3622 174.284 36.4755L170.435 36.5888L170.659 35.1537C171.182 32.2458 170.921 32.3969 175.218 32.3969H179.104L178.879 33.4165Z" fill="#E36C6B"/>
<path d="M3.1529 29.0739C2.96608 29.5648 2.70452 30.509 2.55506 31.151C2.33088 32.3217 2.36824 32.3972 3.265 32.3972C3.9002 32.3972 4.23648 32.6238 4.23648 32.9637C4.23648 33.3036 3.41445 36.929 2.36824 41.0831C1.35939 45.2373 0.5 48.7872 0.5 49.0138C0.5 49.2404 1.43412 49.3914 2.66716 49.3914H4.83432L6.85202 40.8943L8.90708 32.3972H12.1952C14.5492 32.3972 15.4459 32.5105 15.4459 32.8504C15.4459 33.1147 14.5118 36.929 13.4282 41.3475L11.4479 49.3159L13.3535 49.467C14.3997 49.5425 15.4459 49.5803 15.6327 49.5047C15.8569 49.4292 17.0526 44.9729 18.3604 39.5725C19.6681 34.2099 20.8265 29.4515 20.9385 29.0361C21.1254 28.2431 21.0506 28.2431 12.3073 28.2431C3.48918 28.2431 3.45182 28.2431 3.1529 29.0739Z" fill="#E36C6B"/>
<path d="M25.7586 38.4774C24.4134 44.0666 23.2925 48.825 23.2925 49.0516C23.2925 49.2782 25.7959 49.3537 29.9061 49.3159L36.5196 49.2026L36.7438 48.2585C36.8933 47.7298 37.1175 46.8612 37.2296 46.2947L37.4911 45.2751L33.0821 45.1618L28.6356 45.0485L29.3456 41.914L30.0929 38.8173H34.5019H38.9483L39.3593 37.1934C39.5835 36.3248 39.8451 35.3807 39.9198 35.1163C40.0319 34.7764 39.0604 34.6631 35.8471 34.6631C33.5304 34.6631 31.5501 34.5876 31.438 34.4743C31.3259 34.361 31.3259 33.8701 31.438 33.3414C31.5875 32.435 31.6622 32.435 36.1086 32.3217C41.1155 32.2084 40.555 32.5105 41.377 29.2627L41.6012 28.2431H34.9129H28.2246L25.7586 38.4774Z" fill="#E36C6B"/>
<path d="M48.5512 28.8848C48.4391 29.2624 48.2523 30.2065 48.1028 30.9618C47.8786 32.3214 47.916 32.3969 48.8501 32.3969C49.3732 32.3969 49.8216 32.5102 49.8216 32.6613C49.8216 33.0011 46.1972 47.6162 45.8609 48.7491C45.6741 49.3534 45.8983 49.4289 48.0281 49.3156L50.3821 49.2023L51.3162 45.1237L52.2129 41.0828H57.7429C62.0772 41.0828 63.3476 40.9695 63.4971 40.5541C63.6092 40.2898 64.3191 37.3819 65.1038 34.1341L66.5236 28.2428H57.6308C49.4853 28.2428 48.738 28.2805 48.5512 28.8848ZM60.8816 33.0011C60.7695 33.341 60.5453 34.2474 60.4332 35.0782L60.1716 36.551H56.8835C54.7911 36.551 53.5581 36.4 53.5581 36.1356C53.5581 35.9468 53.7449 35.0027 53.9691 34.0586L54.3801 32.3969H57.7429C60.6574 32.3969 61.0684 32.4724 60.8816 33.0011Z" fill="#E36C6B"/>
<path d="M91.7075 38.1752C90.3998 43.6134 89.2414 48.3718 89.1294 48.7117C88.9799 49.3159 89.2414 49.3914 91.2218 49.3914C93.0527 49.3914 93.5384 49.2781 93.6505 48.7117C93.7626 48.3718 94.2857 46.1059 94.8462 43.7267C95.4066 41.3475 96.0045 39.1571 96.1539 38.855C96.3034 38.5907 96.7518 40.781 97.1254 43.7645L97.8354 49.2026L100.115 49.3159L102.431 49.4292L103.627 47.4277C106.653 42.3672 109.045 38.8173 109.157 39.1194C109.194 39.3082 108.746 41.5363 108.111 44.0288C107.513 46.5591 106.99 48.7872 106.99 48.976C106.99 49.2404 107.886 49.3914 109.157 49.3914H111.287L113.641 39.6481C114.911 34.3232 116.069 29.5648 116.219 29.0739C116.406 28.2053 116.406 28.2053 113.529 28.3186L110.651 28.4319L106.317 35.4562C103.291 40.3279 101.871 42.3294 101.721 41.8762C101.609 41.5363 101.123 38.3263 100.638 34.7386L99.7783 28.2431H96.9386H94.0989L91.7075 38.1752Z" fill="#E36C6B"/>
</g>
<defs>
<clipPath id="clip0_318_1870">
<rect width="190" height="49" fill="white" transform="translate(0.5 0.580078)"/>
</clipPath>
</defs>
</svg>
