<svg width="217" height="53" viewBox="0 0 217 53" fill="none" xmlns="http://www.w3.org/2000/svg">
<path d="M66.9782 4.59011C67.1059 4.58906 67.2337 4.588 67.3652 4.58691C67.5685 4.58925 67.5685 4.58925 67.7758 4.59164C67.9877 4.59151 67.9877 4.59151 68.2039 4.59139C68.5016 4.59178 68.7993 4.59342 69.097 4.59623C69.5523 4.60023 70.0073 4.59971 70.4626 4.59859C70.7524 4.59953 71.0421 4.60074 71.3319 4.60223C71.4677 4.60207 71.6035 4.60192 71.7435 4.60176C72.9495 4.61707 72.9495 4.61707 73.4724 4.99194C73.7558 5.55386 73.6653 6.182 73.6627 6.79963C73.6627 6.95167 73.6627 7.10371 73.6628 7.26036C73.6626 7.76444 73.6613 8.2685 73.66 8.77258C73.6596 9.12147 73.6594 9.47036 73.6592 9.81925C73.6586 10.7387 73.6569 11.6582 73.655 12.5777C73.6533 13.5155 73.6525 14.4532 73.6516 15.391C73.6498 17.2319 73.6468 19.0728 73.6433 20.9138C75.7296 20.9138 77.8158 20.9138 79.9653 20.9138C79.9635 20.4444 79.9617 19.975 79.9599 19.4913C79.9542 17.9425 79.9505 16.3936 79.9476 14.8448C79.9458 13.9054 79.9434 12.9661 79.9395 12.0268C79.9358 11.1208 79.9338 10.2147 79.9329 9.30868C79.9323 8.96256 79.931 8.61645 79.9292 8.27034C79.9267 7.7865 79.9264 7.30271 79.9265 6.81886C79.9253 6.67498 79.9241 6.53109 79.9228 6.38284C79.9252 5.71844 79.9267 5.38808 80.3071 4.82256C80.9603 4.60669 81.579 4.62235 82.26 4.61877C82.4721 4.61732 82.4721 4.61732 82.6884 4.61584C82.9874 4.61424 83.2864 4.61314 83.5855 4.61248C84.0419 4.61084 84.4981 4.60558 84.9545 4.60024C85.2453 4.59914 85.5361 4.59825 85.8268 4.5976C85.9628 4.5955 86.0989 4.59341 86.239 4.59126C86.3673 4.59177 86.4955 4.59228 86.6277 4.5928C86.7955 4.59187 86.7955 4.59187 86.9668 4.59093C87.4927 4.68561 87.7547 4.81387 88.1669 5.16132C88.3003 5.67667 88.2806 6.18781 88.2731 6.71728C88.2742 6.87852 88.2753 7.03975 88.2764 7.20587C88.279 7.74858 88.2755 8.29108 88.272 8.83378C88.2726 9.22185 88.2736 9.60992 88.2749 9.99799C88.2773 11.0538 88.2744 12.1096 88.2704 13.1654C88.267 14.2686 88.268 15.3717 88.2684 16.4749C88.2684 18.3277 88.265 20.1805 88.2595 22.0333C88.2539 23.9406 88.2514 25.8478 88.2525 27.7551C88.2538 30.0521 88.2525 32.3491 88.2488 34.6461C88.2474 35.5241 88.2469 36.4021 88.2472 37.28C88.2474 38.3133 88.2449 39.3465 88.2405 40.3797C88.2393 40.7597 88.2389 41.1397 88.2395 41.5197C88.2401 42.0369 88.2376 42.554 88.2343 43.0712C88.2352 43.2229 88.2361 43.3746 88.2371 43.531C88.2355 43.6691 88.234 43.8073 88.2324 43.9497C88.232 44.1288 88.232 44.1288 88.2316 44.3115C88.1471 44.7237 87.9818 44.8763 87.6543 45.1353C87.3237 45.1998 87.3237 45.1998 86.9455 45.201C86.7325 45.2034 86.7325 45.2034 86.5152 45.2059C86.3625 45.2048 86.2098 45.2038 86.0524 45.2027C85.8164 45.2035 85.8164 45.2035 85.5756 45.2042C85.243 45.2046 84.9103 45.2036 84.5777 45.2015C84.068 45.1988 83.5586 45.2015 83.0489 45.2047C82.7259 45.2044 82.4028 45.2037 82.0798 45.2027C81.9271 45.2038 81.7744 45.2048 81.617 45.2059C81.475 45.2043 81.333 45.2027 81.1868 45.201C81.062 45.2006 80.9371 45.2002 80.8086 45.1998C80.375 45.1152 80.2412 44.965 79.9653 44.6271C79.9023 44.3054 79.9023 44.3054 79.9037 43.9358C79.903 43.7955 79.9023 43.6551 79.9016 43.5105C79.9034 43.3571 79.9052 43.2037 79.9071 43.0457C79.9071 42.8837 79.907 42.7217 79.9069 42.5548C79.9073 42.0186 79.9113 41.4826 79.9153 40.9464C79.9162 40.575 79.917 40.2035 79.9175 39.8321C79.9194 38.8538 79.9245 37.8756 79.9301 36.8974C79.9354 35.8994 79.9377 34.9015 79.9403 33.9035C79.9458 31.9449 79.9548 29.9863 79.9653 28.0278C77.8791 28.0278 75.7928 28.0278 73.6433 28.0278C73.646 28.528 73.6486 29.0281 73.6514 29.5435C73.6599 31.1937 73.6656 32.844 73.6698 34.4943C73.6725 35.4951 73.6762 36.496 73.682 37.4968C73.6875 38.4621 73.6906 39.4275 73.6919 40.3928C73.6929 40.7617 73.6947 41.1305 73.6975 41.4993C73.7012 42.0148 73.7017 42.5302 73.7015 43.0457C73.7033 43.1991 73.7052 43.3524 73.7071 43.5105C73.706 43.721 73.706 43.721 73.7049 43.9358C73.7054 44.0578 73.7059 44.1797 73.7064 44.3054C73.6245 44.7231 73.463 44.8743 73.1307 45.1353C72.7924 45.1986 72.7924 45.1986 72.4035 45.1983C72.2575 45.1994 72.1115 45.2004 71.9612 45.2015C71.8042 45.2 71.6472 45.1984 71.4854 45.1968C71.3239 45.1969 71.1623 45.197 70.9959 45.197C70.6545 45.1967 70.3131 45.195 69.9717 45.1922C69.4478 45.1882 68.9241 45.1887 68.4002 45.1898C68.0688 45.1889 67.7374 45.1877 67.406 45.1862C67.17 45.1864 67.17 45.1864 66.9292 45.1867C66.7838 45.1851 66.6384 45.1834 66.4886 45.1818C66.3603 45.181 66.2321 45.1802 66.1 45.1794C65.7834 45.1353 65.7834 45.1353 65.4417 44.7965C65.4067 44.2775 65.3935 43.7737 65.3949 43.2545C65.394 43.0927 65.3931 42.9309 65.3922 42.7642C65.3896 42.2187 65.3895 41.6732 65.3894 41.1277C65.3881 40.738 65.3866 40.3483 65.385 39.9586C65.3813 38.8975 65.3798 37.8365 65.3789 36.7754C65.3783 36.1132 65.3772 35.451 65.376 34.7889C65.3727 32.9565 65.3699 31.1241 65.3694 29.2916C65.3693 29.1743 65.3693 29.057 65.3693 28.9362C65.3692 28.6983 65.3692 28.4605 65.3691 28.2227C65.3691 28.1046 65.369 27.9865 65.369 27.8649C65.369 27.7467 65.3689 27.6285 65.3689 27.5067C65.3683 25.5902 65.3637 23.6738 65.3573 21.7574C65.3508 19.7911 65.3476 17.8248 65.3474 15.8585C65.3473 14.754 65.3458 13.6495 65.3409 12.545C65.3365 11.5066 65.3361 10.4682 65.3388 9.42984C65.3391 9.04793 65.338 8.66602 65.3353 8.28412C65.3318 7.76427 65.3336 7.24469 65.3367 6.72485C65.3344 6.57234 65.3322 6.41983 65.3298 6.26271C65.3351 5.87662 65.3455 5.53545 65.4417 5.16132C65.9373 4.74313 66.3321 4.58949 66.9782 4.59011Z" fill="black"/>
<path d="M4.52203 4.6251C4.6638 4.62454 4.80557 4.62398 4.95163 4.6234C5.25138 4.62254 5.55112 4.62214 5.85087 4.62217C6.30911 4.6218 6.76728 4.61872 7.22552 4.61551C7.51686 4.61501 7.8082 4.61468 8.09954 4.61452C8.23642 4.6133 8.37331 4.61208 8.51435 4.61083C9.73041 4.61577 9.73041 4.61577 10.252 4.99232C10.5355 5.55424 10.4449 6.18238 10.4423 6.80001C10.4423 6.95205 10.4424 7.10409 10.4424 7.26074C10.4423 7.76482 10.4409 8.26888 10.4396 8.77296C10.4393 9.12185 10.439 9.47074 10.4389 9.81963C10.4382 10.7391 10.4365 11.6586 10.4346 12.5781C10.4329 13.5158 10.4321 14.4536 10.4313 15.3914C10.4294 17.2323 10.4264 19.0732 10.4229 20.9141C12.5092 20.9141 14.5955 20.9141 16.745 20.9141C16.7432 20.4447 16.7414 19.9753 16.7395 19.4917C16.7339 17.9429 16.7301 16.394 16.7273 14.8451C16.7255 13.9058 16.723 12.9665 16.7192 12.0272C16.7155 11.1212 16.7134 10.2151 16.7125 9.30906C16.7119 8.96295 16.7107 8.61683 16.7088 8.27073C16.7064 7.78689 16.706 7.30309 16.7062 6.81924C16.7049 6.67536 16.7037 6.53147 16.7024 6.38322C16.7048 5.71882 16.7064 5.38846 17.0867 4.82294C17.74 4.60707 18.3586 4.62274 19.0396 4.61915C19.2517 4.6177 19.2517 4.6177 19.468 4.61622C19.767 4.61462 20.0661 4.61352 20.3651 4.61286C20.8215 4.61122 21.2778 4.60596 21.7341 4.60062C22.0249 4.59952 22.3157 4.59863 22.6065 4.59798C22.7425 4.59589 22.8785 4.59379 23.0186 4.59164C23.1469 4.59215 23.2752 4.59266 23.4073 4.59318C23.5752 4.59225 23.5752 4.59225 23.7464 4.59131C24.2724 4.68599 24.5343 4.81425 24.9465 5.1617C25.0799 5.67705 25.0602 6.18819 25.0527 6.71766C25.0538 6.8789 25.0549 7.04013 25.056 7.20625C25.0586 7.74896 25.0551 8.29146 25.0517 8.83416C25.0523 9.22223 25.0532 9.6103 25.0545 9.99837C25.057 11.0542 25.054 12.11 25.05 13.1658C25.0466 14.2689 25.0476 15.3721 25.048 16.4753C25.048 18.3281 25.0446 20.1809 25.0391 22.0337C25.0335 23.941 25.0311 25.8482 25.0321 27.7555C25.0334 30.0525 25.0322 32.3495 25.0284 34.6465C25.027 35.5245 25.0266 36.4024 25.0268 37.2804C25.027 38.3136 25.0246 39.3469 25.0201 40.3801C25.0189 40.7601 25.0186 41.1401 25.0191 41.5201C25.0198 42.0373 25.0173 42.5544 25.0139 43.0715C25.0148 43.2233 25.0157 43.375 25.0167 43.5313C25.0151 43.6695 25.0136 43.8077 25.012 43.95C25.0116 44.1292 25.0116 44.1292 25.0112 44.3119C24.9268 44.724 24.7614 44.8767 24.4339 45.1356C24.1033 45.2002 24.1033 45.2002 23.7251 45.2014C23.5121 45.2038 23.5121 45.2038 23.2949 45.2062C23.1421 45.2052 22.9894 45.2042 22.8321 45.2031C22.5961 45.2039 22.5961 45.2039 22.3553 45.2046C22.0226 45.2049 21.69 45.204 21.3573 45.2019C20.8477 45.1992 20.3382 45.2019 19.8286 45.2051C19.5055 45.2048 19.1825 45.2041 18.8594 45.2031C18.7067 45.2042 18.554 45.2052 18.3966 45.2062C18.2547 45.2046 18.1127 45.203 17.9664 45.2014C17.8416 45.201 17.7168 45.2006 17.5882 45.2002C17.1547 45.1156 17.0209 44.9654 16.745 44.6275C16.6819 44.3057 16.6819 44.3057 16.6833 43.9362C16.6826 43.7958 16.6819 43.6555 16.6812 43.5109C16.683 43.3575 16.6849 43.2041 16.6868 43.046C16.6867 42.8841 16.6866 42.7221 16.6865 42.5552C16.6869 42.019 16.6909 41.4829 16.6949 40.9468C16.6959 40.5753 16.6966 40.2039 16.6971 39.8325C16.6991 38.8542 16.7041 37.876 16.7098 36.8978C16.715 35.8998 16.7173 34.9019 16.7199 33.9039C16.7254 31.9453 16.7345 29.9867 16.745 28.0281C14.6587 28.0281 12.5724 28.0281 10.4229 28.0281C10.4256 28.5283 10.4283 29.0285 10.431 29.5439C10.4395 31.1941 10.4452 32.8444 10.4495 34.4947C10.4522 35.4955 10.4558 36.4963 10.4616 37.4972C10.4671 38.4625 10.4702 39.4279 10.4715 40.3932C10.4725 40.762 10.4744 41.1308 10.4771 41.4996C10.4808 42.0151 10.4813 42.5305 10.4811 43.046C10.483 43.1994 10.4848 43.3528 10.4867 43.5109C10.4856 43.7214 10.4856 43.7214 10.4846 43.9362C10.485 44.0582 10.4855 44.1801 10.486 44.3057C10.4041 44.7235 10.2427 44.8747 9.91032 45.1356C9.57204 45.199 9.57204 45.199 9.18309 45.1987C9.03714 45.1998 8.89118 45.2008 8.7408 45.2019C8.58381 45.2003 8.42681 45.1988 8.26506 45.1972C8.10352 45.1973 7.94197 45.1973 7.77554 45.1974C7.43413 45.197 7.09273 45.1954 6.75134 45.1926C6.22744 45.1886 5.7037 45.1891 5.17979 45.1902C4.84841 45.1893 4.51702 45.1881 4.18563 45.1866C3.94962 45.1868 3.94962 45.1868 3.70885 45.1871C3.56343 45.1854 3.41801 45.1838 3.26819 45.1822C3.13997 45.1814 3.01175 45.1806 2.87965 45.1798C2.56307 45.1356 2.56307 45.1356 2.22134 44.7969C2.18749 44.28 2.17536 43.7784 2.17795 43.2613C2.17741 43.1002 2.17688 42.9391 2.17633 42.7731C2.17496 42.23 2.17605 41.6868 2.17712 41.1436C2.17666 40.7556 2.17605 40.3676 2.17531 39.9795C2.17374 38.923 2.17436 37.8665 2.17544 36.81C2.1763 35.7064 2.1755 34.6027 2.17496 33.4991C2.1743 31.5264 2.17537 29.5537 2.1771 27.581C2.17863 25.7914 2.17836 24.0019 2.17679 22.2124C2.17496 20.1358 2.17428 18.0593 2.17529 15.9827C2.17582 14.8829 2.17589 13.7831 2.17476 12.6834C2.17378 11.6494 2.17446 10.6155 2.17644 9.58158C2.17689 9.20131 2.17676 8.82104 2.176 8.44078C2.17508 7.92323 2.17624 7.40573 2.17795 6.88818C2.17718 6.73633 2.17642 6.58448 2.17564 6.42803C2.17653 6.28976 2.17742 6.15148 2.17834 6.00901C2.17839 5.8895 2.17845 5.76999 2.1785 5.64686C2.22134 5.33108 2.22134 5.33108 2.56307 4.82294C3.21869 4.6063 3.83875 4.62604 4.52203 4.6251Z" fill="black"/>
<path d="M58.2733 6.20976C60.267 7.86949 61.4252 10.2525 61.8535 12.7839C61.8866 13.5465 61.8853 14.3092 61.8852 15.0725C61.8855 15.4416 61.8887 15.8107 61.8919 16.1798C61.8924 16.4141 61.8927 16.6484 61.8929 16.8828C61.8936 17.0956 61.8943 17.3084 61.895 17.5276C61.8535 18.0347 61.8535 18.0347 61.5118 18.3734C60.9886 18.4094 60.4814 18.4249 59.958 18.4244C59.8038 18.4251 59.6496 18.4258 59.4907 18.4266C59.1644 18.4276 58.838 18.4276 58.5117 18.4269C58.011 18.4264 57.5105 18.4303 57.0098 18.4346C56.6933 18.435 56.3767 18.4351 56.0601 18.435C55.9097 18.4365 55.7593 18.4381 55.6043 18.4397C55.1827 18.4365 55.1827 18.4365 54.5063 18.3734C54.1351 17.8216 54.1207 17.651 54.1118 17.0111C54.1075 16.8431 54.1032 16.6751 54.0988 16.502C54.0928 16.1509 54.0875 15.7998 54.0828 15.4486C54.0512 14.2674 53.9834 13.2109 53.1874 12.2658C53.0367 12.1502 53.0367 12.1502 52.883 12.0322C52.7826 11.9521 52.6822 11.872 52.5787 11.7894C51.9059 11.3514 51.1824 11.3497 50.4055 11.4288C49.5628 11.7237 48.9858 12.1946 48.5259 12.9532C48.1464 14.1039 48.1346 15.1935 48.1373 16.3971C48.1364 16.603 48.1355 16.8089 48.1346 17.021C48.1327 17.5824 48.1322 18.1437 48.1327 18.7051C48.1329 19.1752 48.132 19.6453 48.1312 20.1155C48.1293 21.2254 48.1292 22.3352 48.1303 23.4451C48.1313 24.5868 48.1292 25.7284 48.1256 26.8701C48.1225 27.8535 48.1215 28.8369 48.1221 29.8203C48.1224 30.4062 48.122 30.9922 48.1196 31.5781C48.117 32.232 48.1186 32.8858 48.1206 33.5396C48.1193 33.7316 48.118 33.9235 48.1166 34.1213C48.1254 35.4365 48.3087 36.5193 48.9851 37.6617C49.6215 38.2414 50.2676 38.4941 51.1296 38.5582C52.0383 38.5162 52.6357 38.2088 53.3569 37.6763C54.1499 36.7835 54.2425 35.809 54.252 34.6717C54.2566 34.4656 54.2566 34.4656 54.2613 34.2553C54.2704 33.8205 54.2763 33.3857 54.282 32.9508C54.2877 32.6543 54.2936 32.3577 54.2997 32.0612C54.3141 31.338 54.3256 30.6147 54.3354 29.8914C54.1563 29.8972 53.9773 29.9031 53.7928 29.9092C53.5572 29.914 53.3215 29.9186 53.0859 29.9231C52.968 29.9274 52.85 29.9316 52.7285 29.936C52.2487 29.9429 51.8663 29.9412 51.4379 29.7137C51.1625 29.2027 51.1902 28.6936 51.1977 28.1287C51.1976 27.9455 51.1976 27.9455 51.1975 27.7586C51.1979 27.5006 51.1995 27.2426 51.2024 26.9847C51.2064 26.5898 51.2059 26.1952 51.2047 25.8004C51.2057 25.5496 51.2069 25.2989 51.2084 25.0481C51.2083 24.9301 51.2081 24.812 51.2079 24.6904C51.2171 24.0724 51.2459 23.8143 51.6015 23.2855C52.0154 23.221 52.0154 23.221 52.5419 23.2197C52.7387 23.2181 52.9354 23.2165 53.1381 23.2149C53.4582 23.2164 53.4582 23.2164 53.7847 23.218C54.1122 23.2173 54.1122 23.2173 54.4462 23.2165C54.9086 23.2162 55.3709 23.2169 55.8333 23.2192C56.4259 23.2221 57.0184 23.2205 57.611 23.2174C58.1759 23.2151 58.7409 23.2167 59.3059 23.218C59.5189 23.217 59.732 23.2159 59.9515 23.2149C60.1488 23.2165 60.346 23.2181 60.5493 23.2197C60.7232 23.2201 60.897 23.2205 61.0762 23.221C61.5118 23.2855 61.5118 23.2855 61.8239 23.4637C62.1345 23.9749 62.097 24.4936 62.0934 25.0731C62.0946 25.2032 62.0958 25.3333 62.097 25.4673C62.1001 25.8986 62.0994 26.3298 62.0985 26.7611C62.0992 27.0623 62.1001 27.3635 62.1012 27.6647C62.1027 28.2976 62.1023 28.9305 62.1006 29.5635C62.0986 30.3685 62.102 31.1735 62.1071 31.9785C62.1102 32.6018 62.1101 33.2251 62.1092 33.8484C62.1091 34.1447 62.1102 34.4411 62.1123 34.7374C62.1309 37.7441 61.5008 39.9588 59.7711 42.4573C58.4395 43.7773 56.978 44.7225 55.1897 45.305C55.0259 45.359 54.862 45.4129 54.6931 45.4685C51.5061 46.3519 47.8679 45.9448 44.9378 44.4581C42.4714 43.0178 40.9197 41.1004 40.1128 38.3902C39.792 37.0643 39.7855 35.7857 39.7842 34.4266C39.7834 34.2003 39.7826 33.9739 39.7817 33.7476C39.7794 33.1351 39.7783 32.5226 39.7776 31.91C39.7771 31.5262 39.7764 31.1423 39.7756 30.7584C39.7733 29.5538 39.7716 28.3493 39.771 27.1447C39.7702 25.7608 39.7672 24.3769 39.7622 22.993C39.7585 21.9191 39.7568 20.8453 39.7566 19.7714C39.7564 19.132 39.7554 18.4926 39.7523 17.8533C39.7495 17.2504 39.7492 16.6476 39.7507 16.0448C39.7509 15.7226 39.7485 15.4005 39.7461 15.0783C39.7606 12.046 40.4966 9.46899 42.6631 7.23067C46.765 3.33617 53.6706 2.93393 58.2733 6.20976Z" fill="black"/>
<path d="M122.351 4.76989C122.529 4.77055 122.707 4.7712 122.891 4.77188C123.365 4.82282 123.365 4.82282 123.878 5.16158C124.014 5.53264 124.014 5.53264 124.117 6.00321C124.157 6.1814 124.197 6.35958 124.238 6.54317C124.28 6.73952 124.322 6.93587 124.365 7.13817C124.433 7.44715 124.433 7.44715 124.503 7.76237C124.629 8.32983 124.752 8.89763 124.875 9.46565C125.006 10.0688 125.139 10.6714 125.272 11.2741C125.495 12.2861 125.717 13.2983 125.937 14.3107C126.253 15.7556 126.572 17.1996 126.892 18.6434C126.994 19.1031 127.096 19.5628 127.198 20.0225C127.223 20.1359 127.248 20.2492 127.274 20.366C127.555 21.6342 127.835 22.9028 128.114 24.1713C128.139 24.2856 128.165 24.3998 128.19 24.5176C128.292 24.9794 128.394 25.4412 128.496 25.9031C128.677 26.7233 128.858 27.5435 129.039 28.3637C129.064 28.4806 129.09 28.5975 129.117 28.718C129.22 29.1877 129.324 29.6574 129.428 30.1271C129.842 32.0046 130.255 33.8824 130.668 35.7602C130.909 36.8582 131.152 37.9558 131.398 39.0529C131.531 39.6461 131.662 40.2395 131.794 40.8329C131.852 41.0948 131.911 41.3566 131.97 41.6183C132.049 41.9671 132.127 42.3161 132.204 42.6652C132.246 42.8543 132.289 43.0434 132.333 43.2382C132.428 43.825 132.448 44.3727 132.421 44.9661C132.061 45.3235 131.305 45.1747 130.809 45.1779C130.606 45.1831 130.606 45.1831 130.4 45.1885C130.008 45.1911 130.008 45.1911 129.346 45.1355C128.928 44.5141 128.82 43.9067 128.671 43.1876C128.642 43.0467 128.612 42.9058 128.581 42.7605C128.518 42.4628 128.456 42.165 128.394 41.867C128.299 41.4106 128.203 40.9547 128.106 40.4987C128.045 40.2094 127.985 39.92 127.924 39.6306C127.895 39.4941 127.866 39.3575 127.837 39.2168C127.729 38.6967 127.637 38.2151 127.637 37.6828C124.085 37.6828 120.532 37.6828 116.872 37.6828C116.816 38.1858 116.76 38.6889 116.702 39.2072C116.575 39.9566 116.428 40.7016 116.279 41.4467C116.21 41.7916 116.144 42.1369 116.077 42.4823C116.033 42.7042 115.989 42.9261 115.945 43.1479C115.905 43.3467 115.866 43.5454 115.826 43.7502C115.674 44.2977 115.514 44.6864 115.164 45.1355C114.666 45.2095 114.279 45.2317 113.786 45.2096C113.598 45.2082 113.598 45.2082 113.407 45.2066C112.48 45.1856 112.48 45.1856 112.088 44.7968C112.157 43.5741 112.43 42.3959 112.697 41.203C112.742 40.9998 112.787 40.7966 112.833 40.5873C112.957 40.0301 113.081 39.473 113.205 38.916C113.337 38.3209 113.469 37.7255 113.601 37.1301C113.884 35.8495 114.169 34.5691 114.453 33.2888C114.894 31.3075 115.334 29.3259 115.773 27.3444C115.92 26.6839 116.066 26.0234 116.213 25.363C116.919 22.1822 117.62 19.0004 118.306 15.8152C118.421 15.2797 118.537 14.7442 118.653 14.2088C118.69 14.0393 118.726 13.8699 118.764 13.6953C118.836 13.3645 118.907 13.0337 118.979 12.703C119.182 11.7643 119.383 10.8251 119.582 9.88562C119.703 9.31703 119.826 8.74893 119.95 8.18094C120.006 7.92332 120.06 7.66549 120.114 7.40745C120.186 7.0621 120.261 6.71761 120.337 6.37314C120.378 6.18247 120.419 5.99181 120.46 5.79536C120.807 4.85316 121.407 4.75482 122.351 4.76989ZM122.169 12.1062C122.139 12.2534 122.139 12.2534 122.109 12.4035C121.841 13.716 121.573 15.0284 121.304 16.3407C121.26 16.5579 121.215 16.775 121.17 16.9987C120.592 19.8211 120.007 22.6419 119.412 25.4608C119.383 25.6001 119.353 25.7394 119.323 25.8829C119.032 27.2621 118.741 28.6413 118.448 30.0201C118.339 30.535 118.23 31.0499 118.121 31.5648C118.071 31.8057 118.019 32.0464 117.968 32.2872C117.898 32.6168 117.828 32.9467 117.759 33.2765C117.719 33.4619 117.68 33.6473 117.639 33.8383C117.541 34.3011 117.541 34.3011 117.556 34.8033C120.657 34.8033 123.758 34.8033 126.953 34.8033C126.816 33.5501 126.816 33.5501 126.602 32.322C126.549 32.0617 126.549 32.0617 126.494 31.7961C126.455 31.611 126.416 31.4259 126.377 31.2351C126.335 31.0361 126.294 30.8371 126.252 30.632C126.14 30.0906 126.027 29.5493 125.914 29.008C125.819 28.5551 125.725 28.1021 125.631 27.6491C125.409 26.5808 125.187 25.5127 124.963 24.4446C124.733 23.3438 124.505 22.2428 124.277 21.1416C124.08 20.194 123.883 19.2466 123.685 18.2993C123.567 17.7344 123.45 17.1695 123.333 16.6044C123.203 15.9753 123.071 15.3466 122.939 14.7178C122.901 14.531 122.862 14.3442 122.823 14.1517C122.787 13.9806 122.75 13.8094 122.713 13.633C122.667 13.4102 122.667 13.4102 122.619 13.1829C122.512 12.7891 122.367 12.4628 122.169 12.1062Z" fill="#F8A022"/>
<path d="M106.92 6.46349C108.5 7.9377 109.609 10.0782 109.721 12.2467C109.725 12.8032 109.728 13.3597 109.728 13.9163C109.73 14.1116 109.732 14.3069 109.734 14.5081C109.735 14.6942 109.735 14.8804 109.735 15.0722C109.736 15.2424 109.737 15.4126 109.738 15.588C109.696 16.0018 109.696 16.0018 109.354 16.3405C108.919 16.3741 108.507 16.3877 108.073 16.3829C107.955 16.3842 107.837 16.3855 107.716 16.3868C106.835 16.3834 106.835 16.3834 106.45 16.0018C106.406 15.6873 106.406 15.6873 106.403 15.305C106.4 15.1645 106.397 15.0239 106.394 14.8791C106.391 14.7291 106.388 14.579 106.386 14.4244C106.307 12.2184 105.94 10.3391 104.26 8.76733C103.209 7.90583 101.894 7.412 100.515 7.47316C98.9599 7.71233 97.4396 8.16074 96.4293 9.40251C95.102 11.2658 94.6995 13.3679 95.0804 15.6207C95.5242 17.2356 96.3338 18.5952 97.5646 19.7281C97.5646 19.8399 97.5646 19.9517 97.5646 20.0669C97.6631 20.1104 97.7615 20.1538 97.863 20.1986C98.2856 20.4258 98.5895 20.6856 98.9422 21.0091C99.5066 21.5166 100.08 22.0052 100.672 22.4806C102.176 23.6905 103.646 24.9443 105.096 26.2162C105.342 26.431 105.589 26.6432 105.838 26.8541C108.335 29.0063 110.077 31.7386 110.358 35.069C110.365 35.2049 110.372 35.3407 110.38 35.4806C110.389 35.6478 110.398 35.8151 110.407 35.9874C110.479 38.5654 109.803 40.6906 108.094 42.6475C106.113 44.7126 103.719 45.7715 100.843 45.8658C98.231 45.8088 95.9152 44.9846 94.0198 43.1841C92.1563 41.1512 91.5538 38.8886 91.5523 36.2216C91.5502 36.0256 91.5481 35.8295 91.5459 35.6275C91.5456 35.4406 91.5453 35.2537 91.5449 35.0611C91.5442 34.8898 91.5435 34.7185 91.5428 34.542C91.5843 34.1255 91.5843 34.1255 91.926 33.7868C92.3609 33.7532 92.773 33.7396 93.2075 33.7444C93.3254 33.7431 93.4432 33.7418 93.5646 33.7405C94.4457 33.7439 94.4457 33.7439 94.8308 34.1255C94.8706 34.6052 94.8936 35.0744 94.9055 35.5547C94.9925 37.6297 95.3747 39.2476 96.7637 40.8479C98.1539 42.0337 99.4711 42.5088 101.316 42.4656C102.959 42.3382 104.22 41.6734 105.424 40.562C106.402 39.3063 106.857 38.0526 106.845 36.4651C106.844 36.3379 106.843 36.2107 106.842 36.0796C106.782 33.3336 105.504 31.2656 103.545 29.3829C103.086 28.9892 102.618 28.612 102.142 28.2395C101.648 27.8442 101.181 27.4282 100.715 27.0009C100.011 26.3589 99.2872 25.7581 98.5351 25.1722C97.7141 24.522 96.9176 23.8426 96.1186 23.1661C95.9423 23.0186 95.7643 22.8729 95.5849 22.729C93.5688 21.1086 91.9267 18.5764 91.5843 16.0018C91.3306 12.913 91.5564 10.1039 93.4638 7.53271C94.7771 6.01426 96.9941 4.66363 99.0243 4.34424C102.01 4.13249 104.535 4.51157 106.92 6.46349Z" fill="#F8A124"/>
<path d="M156.577 4.75972C156.723 4.7591 156.869 4.75848 157.019 4.75785C157.502 4.75647 157.985 4.75878 158.468 4.76125C158.803 4.76134 159.138 4.76125 159.473 4.76099C160.176 4.76101 160.879 4.76278 161.581 4.76584C162.483 4.76968 163.384 4.76978 164.286 4.76863C164.978 4.76807 165.67 4.76919 166.362 4.77086C166.695 4.77151 167.027 4.7717 167.36 4.77143C167.824 4.77137 168.288 4.77351 168.752 4.77626C168.89 4.77584 169.028 4.77542 169.17 4.77499C169.826 4.78121 170.137 4.79257 170.695 5.16155C170.743 5.60097 170.759 5.99365 170.749 6.4319C170.749 6.54872 170.75 6.66553 170.75 6.78588C170.741 7.65702 170.741 7.65702 170.354 8.04102C169.845 8.08176 169.845 8.08176 169.185 8.07948C169.003 8.07954 169.003 8.07954 168.816 8.07961C168.42 8.07935 168.025 8.07677 167.629 8.07411C167.385 8.07361 167.141 8.07326 166.897 8.07307C165.992 8.0713 165.086 8.06657 164.181 8.0622C162.158 8.05521 160.135 8.04822 158.051 8.04102C158.051 12.9599 158.051 17.8787 158.051 22.9466C161.417 22.9399 161.417 22.9399 164.784 22.9313C165.204 22.9308 165.624 22.9304 166.044 22.93C166.264 22.9292 166.485 22.9283 166.712 22.9274C166.92 22.9274 167.128 22.9274 167.343 22.9273C167.615 22.9268 167.615 22.9268 167.893 22.9262C168.303 22.9466 168.303 22.9466 168.474 23.1159C168.487 23.5727 168.49 24.025 168.485 24.4816C168.484 24.6101 168.483 24.7386 168.482 24.871C168.48 25.1893 168.477 25.5077 168.474 25.826C168.02 26.0512 167.677 26.0157 167.168 26.0147C166.964 26.0146 166.759 26.0146 166.548 26.0146C166.332 26.0137 166.116 26.0129 165.894 26.012C165.696 26.0118 165.498 26.0116 165.294 26.0114C164.553 26.0106 163.812 26.0082 163.07 26.006C161.414 26.0025 159.758 25.999 158.051 25.9954C158.051 31.3055 158.051 36.6156 158.051 42.0866C162.085 42.0732 162.085 42.0732 166.118 42.0561C166.897 42.0546 166.897 42.0546 167.262 42.0543C167.517 42.0538 167.772 42.0526 168.027 42.0509C168.413 42.0484 168.799 42.048 169.185 42.0482C169.403 42.0474 169.621 42.0467 169.845 42.0459C170.354 42.0866 170.354 42.0866 170.695 42.4254C170.741 42.9653 170.741 42.9653 170.738 43.6111C170.739 43.9307 170.739 43.9307 170.741 44.2568C170.695 44.7967 170.695 44.7967 170.354 45.1355C169.866 45.1691 169.396 45.1817 168.909 45.1793C168.759 45.1799 168.61 45.1805 168.456 45.1811C167.96 45.1826 167.464 45.1816 166.968 45.1805C166.625 45.1807 166.281 45.181 165.938 45.1815C165.217 45.182 164.497 45.1812 163.776 45.1797C162.851 45.1777 161.926 45.1788 161.001 45.1809C160.292 45.1821 159.582 45.1817 158.873 45.1808C158.532 45.1806 158.19 45.1809 157.849 45.1817C157.373 45.1825 156.897 45.1812 156.421 45.1793C156.279 45.18 156.137 45.1807 155.99 45.1814C155.015 45.1742 155.015 45.1742 154.634 44.7967C154.6 44.2798 154.587 43.7783 154.589 43.2611C154.589 43.1 154.588 42.9389 154.587 42.773C154.586 42.2298 154.586 41.6867 154.587 41.1435C154.586 40.7554 154.585 40.3674 154.584 39.9794C154.582 38.9228 154.582 37.8663 154.582 36.8098C154.583 35.9292 154.582 35.0486 154.581 34.1679C154.579 31.9722 154.579 29.7765 154.58 27.5808C154.581 25.6726 154.579 23.7644 154.576 21.8562C154.573 19.8983 154.571 17.9404 154.572 15.9826C154.572 14.8828 154.572 13.783 154.569 12.6832C154.567 11.6493 154.567 10.6154 154.57 9.58142C154.57 9.20116 154.57 8.82089 154.568 8.44062C154.566 7.92306 154.568 7.40559 154.57 6.88803C154.569 6.73618 154.567 6.58433 154.566 6.42788C154.567 6.2896 154.569 6.15133 154.57 6.00886C154.57 5.88935 154.57 5.76984 154.57 5.6467C154.777 4.62329 155.721 4.75169 156.577 4.75972Z" fill="#F89F21"/>
<path d="M196.571 4.76997C196.764 4.77063 196.958 4.77128 197.158 4.77196C197.693 4.82295 197.94 4.86301 198.376 5.16167C198.584 5.58785 198.584 5.58785 198.765 6.14752C198.8 6.25295 198.834 6.35839 198.87 6.46701C198.989 6.82868 199.104 7.1914 199.219 7.55418C199.304 7.81491 199.389 8.07555 199.475 8.33612C199.674 8.9436 199.871 9.55152 200.068 10.1597C200.487 11.4493 200.913 12.7362 201.34 14.0231C201.421 14.2668 201.502 14.5105 201.583 14.7542C201.705 15.1226 201.827 15.491 201.949 15.8594C202.232 16.7126 202.515 17.566 202.797 18.4195C202.836 18.5361 202.874 18.6527 202.914 18.7729C203.096 19.3253 203.279 19.8777 203.461 20.4301C203.814 21.4958 204.168 22.5607 204.527 23.6242C204.955 22.313 205.383 21.0018 205.811 19.6904C206.017 19.059 206.223 18.4277 206.429 17.7965C207.643 14.0877 207.643 14.0877 208.818 10.3668C208.919 10.0438 209.019 9.72082 209.12 9.39781C209.301 8.81786 209.478 8.23701 209.653 7.65545C209.733 7.39846 209.813 7.1415 209.893 6.88459C209.926 6.772 209.959 6.65942 209.992 6.54342C210.234 5.78135 210.57 5.32906 211.191 4.82291C211.742 4.72234 211.742 4.72234 212.323 4.73822C212.611 4.74084 212.611 4.74084 212.906 4.74351C213.412 4.82291 213.412 4.82291 213.736 5.00817C214.1 5.6325 213.987 6.28247 213.809 6.95278C213.637 7.48064 213.454 8.00307 213.267 8.52547C213.198 8.72218 213.129 8.91889 213.058 9.12156C212.871 9.65385 212.683 10.1855 212.493 10.717C212.296 11.2717 212.101 11.8272 211.906 12.3825C211.591 13.2788 211.275 14.1746 210.957 15.0701C210.557 16.1979 210.16 17.3265 209.764 18.4554C208.972 20.7095 208.972 20.7095 208.675 21.5459C208.581 21.815 208.488 22.0846 208.397 22.3548C208.146 23.0929 207.868 23.7987 207.535 24.5049C205.899 28.1911 206.205 32.1376 206.241 36.0841C206.252 37.4413 206.251 38.7985 206.251 40.1557C206.251 40.8754 206.255 41.595 206.261 42.3148C206.262 42.6395 206.264 42.9642 206.266 43.289C206.268 43.4376 206.27 43.5863 206.272 43.7395C206.273 44.0921 206.256 44.4448 206.235 44.7968C205.894 45.1356 205.894 45.1356 205.231 45.1746C204.964 45.174 204.697 45.1715 204.431 45.1674C204.295 45.1673 204.16 45.1671 204.02 45.167C203.013 45.1594 203.013 45.1594 202.818 44.9662C202.814 44.4944 202.821 44.0269 202.835 43.5555C202.842 43.2465 202.849 42.9374 202.856 42.6283C202.859 42.4627 202.863 42.2971 202.867 42.1264C203.114 30.6882 203.114 30.6882 199.83 19.8475C199.18 18.419 198.692 16.9346 198.191 15.4498C197.94 14.71 197.68 13.9735 197.419 13.237C197.37 13.0991 197.322 12.9612 197.272 12.819C196.941 11.8831 196.603 10.9498 196.262 10.0175C196.172 9.77102 196.082 9.52456 195.992 9.27809C195.829 8.8288 195.663 8.38034 195.496 7.93231C195.389 7.63869 195.389 7.63869 195.279 7.33914C195.217 7.17084 195.154 7.00254 195.09 6.82914C194.947 6.3055 194.921 5.87125 194.958 5.33105C195.343 4.68647 195.868 4.75969 196.571 4.76997Z" fill="#F99F20"/>
<path d="M137.719 4.77897C137.928 4.77808 137.928 4.77808 138.141 4.77718C138.601 4.77568 139.062 4.77667 139.523 4.77782C139.843 4.77759 140.162 4.77726 140.482 4.77683C141.153 4.77633 141.823 4.77706 142.494 4.77864C143.354 4.78057 144.214 4.77946 145.074 4.77743C145.735 4.77621 146.395 4.7766 147.056 4.77748C147.373 4.7777 147.69 4.77742 148.007 4.77664C148.45 4.77578 148.893 4.77709 149.336 4.77897C149.468 4.77829 149.599 4.7776 149.735 4.7769C150.379 4.78199 150.667 4.79853 151.216 5.16157C151.264 5.60099 151.28 5.99368 151.27 6.43193C151.27 6.54874 151.271 6.66556 151.271 6.78591C151.262 7.65704 151.262 7.65704 150.875 8.04105C150.392 8.08179 150.392 8.08179 149.769 8.07951C149.596 8.07957 149.596 8.07957 149.42 8.07963C149.047 8.07938 148.673 8.0768 148.3 8.07413C148.069 8.07363 147.839 8.07329 147.609 8.0731C146.754 8.07132 145.899 8.06659 145.044 8.06222C142.179 8.05174 142.179 8.05174 139.256 8.04105C139.256 13.1276 139.256 18.2141 139.256 23.4547C142.277 23.448 142.277 23.448 145.298 23.4395C145.676 23.439 146.053 23.4385 146.431 23.4382C146.628 23.4373 146.826 23.4365 147.029 23.4356C147.31 23.4355 147.31 23.4355 147.597 23.4355C147.76 23.4351 147.923 23.4347 148.091 23.4344C148.483 23.4547 148.483 23.4547 148.824 23.6241C148.833 24.0406 148.84 24.4568 148.846 24.8733C148.848 24.9916 148.851 25.11 148.854 25.2319C148.857 25.543 148.842 25.8542 148.824 26.1648C148.483 26.5036 148.483 26.5036 148.091 26.5443C147.846 26.5432 147.846 26.5432 147.597 26.542C147.412 26.542 147.227 26.542 147.037 26.542C146.837 26.5402 146.637 26.5385 146.431 26.5367C146.226 26.5362 146.022 26.5357 145.812 26.5352C145.157 26.5333 144.502 26.5291 143.848 26.5248C143.405 26.5231 142.962 26.5215 142.519 26.5201C141.431 26.5164 140.343 26.5107 139.256 26.5036C139.256 26.5965 139.256 26.6895 139.257 26.7852C139.264 29.0456 139.27 31.306 139.273 33.5664C139.275 34.6595 139.278 35.7526 139.282 36.8457C139.285 37.9 139.287 38.9543 139.288 40.0087C139.289 40.4115 139.29 40.8144 139.292 41.2172C139.294 41.7801 139.295 42.343 139.295 42.906C139.296 43.0736 139.297 43.2413 139.298 43.414C139.298 43.5672 139.297 43.7204 139.297 43.8782C139.297 44.0114 139.297 44.1446 139.298 44.2818C139.256 44.6274 139.256 44.6274 138.914 45.1355C138.41 45.1729 137.943 45.183 137.44 45.1673C137.303 45.165 137.166 45.1627 137.025 45.1603C136.687 45.1543 136.348 45.1452 136.009 45.1355C135.717 44.556 135.814 43.8913 135.814 43.2536C135.814 43.0917 135.813 42.9298 135.813 42.763C135.811 42.2171 135.811 41.6712 135.811 41.1253C135.81 40.7353 135.809 40.3453 135.808 39.9553C135.806 38.8936 135.805 37.8318 135.804 36.7701C135.804 36.1075 135.803 35.445 135.802 34.7825C135.8 32.9494 135.798 31.1163 135.798 29.2831C135.798 29.1658 135.798 29.0484 135.798 28.9275C135.798 28.8099 135.798 28.6922 135.798 28.571C135.798 28.3326 135.797 28.0942 135.797 27.8558C135.797 27.7376 135.797 27.6193 135.797 27.4975C135.797 25.5798 135.794 23.6622 135.79 21.7446C135.786 19.7773 135.784 17.8101 135.783 15.8428C135.783 14.7377 135.782 13.6325 135.779 12.5273C135.776 11.4885 135.776 10.4497 135.777 9.41093C135.777 9.02868 135.777 8.64643 135.775 8.26418C135.773 7.74433 135.774 7.22458 135.776 6.70473C135.774 6.55173 135.773 6.39873 135.771 6.24109C135.775 5.82131 135.775 5.82131 135.838 5.16157C136.479 4.73846 136.978 4.77511 137.719 4.77897Z" fill="#F8A023"/>
<path d="M176.178 4.77371C176.337 4.77258 176.496 4.77144 176.66 4.77027C177.186 4.76704 177.713 4.76639 178.239 4.76602C178.605 4.76493 178.97 4.76379 179.336 4.76261C180.102 4.76058 180.868 4.75995 181.634 4.76015C182.617 4.76018 183.6 4.75556 184.583 4.74973C185.337 4.74596 186.092 4.74527 186.847 4.74545C187.209 4.74505 187.572 4.74355 187.934 4.74094C188.44 4.73762 188.947 4.73859 189.453 4.74063C189.603 4.73873 189.753 4.73682 189.908 4.73486C190.92 4.74527 190.92 4.74527 191.463 5.13602C191.794 5.62042 191.797 5.94649 191.787 6.52732C191.786 6.70396 191.786 6.8806 191.786 7.06259C191.702 7.59759 191.619 7.71454 191.199 8.04116C190.684 8.0855 190.206 8.10021 189.691 8.09079C189.471 8.08971 189.471 8.08971 189.245 8.08861C188.775 8.08577 188.305 8.07939 187.835 8.07292C187.517 8.07038 187.198 8.06806 186.879 8.06598C186.098 8.06037 185.317 8.0516 184.535 8.04116C184.536 8.23028 184.536 8.4194 184.536 8.61425C184.544 13.2097 184.55 17.8052 184.553 22.4007C184.555 24.623 184.557 26.8453 184.561 29.0676C184.565 31.0039 184.567 32.9402 184.568 34.8765C184.568 35.9023 184.569 36.9282 184.572 37.954C184.574 38.9186 184.575 39.8831 184.574 40.8477C184.574 41.2026 184.575 41.5576 184.576 41.9125C184.578 42.3953 184.577 42.878 184.576 43.3607C184.577 43.5028 184.578 43.6448 184.58 43.7911C184.574 44.7582 184.574 44.7582 184.194 45.1356C183.731 45.1693 183.289 45.1828 182.827 45.178C182.701 45.1793 182.575 45.1806 182.445 45.1819C181.503 45.1785 181.503 45.1785 181.118 44.7969C181.085 44.3127 181.074 43.845 181.077 43.3607C181.077 43.2104 181.076 43.06 181.076 42.905C181.076 42.3981 181.077 41.8913 181.079 41.3843C181.079 41.0222 181.079 40.66 181.079 40.2978C181.079 39.312 181.081 38.3263 181.083 37.3405C181.086 36.3112 181.086 35.282 181.086 34.2527C181.087 32.3025 181.09 30.3523 181.093 28.4021C181.097 26.1824 181.099 23.9626 181.101 21.7429C181.104 17.1757 181.11 12.6084 181.118 8.04116C180.827 8.04383 180.827 8.04383 180.53 8.04654C179.811 8.05267 179.092 8.05656 178.372 8.05977C178.061 8.06148 177.749 8.06379 177.438 8.06672C176.99 8.07083 176.543 8.07275 176.096 8.07425C175.886 8.07687 175.886 8.07687 175.673 8.07955C175.006 8.07968 174.681 8.07784 174.113 7.7024C174.061 7.26227 174.041 6.87135 174.048 6.43204C174.047 6.31523 174.045 6.19842 174.042 6.07806C174.044 5.73864 174.044 5.73864 174.113 5.16169C174.793 4.71187 175.388 4.77291 176.178 4.77371Z" fill="#F8A022"/>
<path d="M28.3638 31.0767C31.0703 31.0767 33.7768 31.0767 36.5653 31.0767C36.5653 32.8653 36.5653 34.654 36.5653 36.4969C33.8588 36.4969 31.1523 36.4969 28.3638 36.4969C28.3638 34.7082 28.3638 32.9195 28.3638 31.0767Z" fill="#F99C1B"/>
<path d="M28.3638 22.269C31.0703 22.269 33.7768 22.269 36.5653 22.269C36.5653 24.0577 36.5653 25.8464 36.5653 27.6892C33.8588 27.6892 31.1523 27.6892 28.3638 27.6892C28.3638 25.9006 28.3638 24.1119 28.3638 22.269Z" fill="#F8A124"/>
<path d="M28.3638 13.4614C31.0703 13.4614 33.7768 13.4614 36.5653 13.4614C36.5653 15.2501 36.5653 17.0388 36.5653 18.8816C33.8588 18.8816 31.1523 18.8816 28.3638 18.8816C28.3638 17.093 28.3638 15.3043 28.3638 13.4614Z" fill="#F99C1B"/>
<path d="M30.5476 4.59196C30.7656 4.59184 30.7656 4.59184 30.988 4.59171C31.2947 4.5921 31.6015 4.59375 31.9083 4.59655C32.3774 4.60055 32.8464 4.60003 33.3155 4.59891C33.6139 4.59985 33.9122 4.60106 34.2105 4.60255C34.3506 4.60239 34.4907 4.60224 34.6351 4.60208C35.9051 4.61772 35.9051 4.61772 36.3944 4.99226C36.5788 5.54063 36.5848 5.93698 36.582 6.51338C36.5816 6.69093 36.5811 6.86849 36.5807 7.05142C36.5791 7.27671 36.5776 7.502 36.576 7.73411C36.5725 8.45028 36.5689 9.16644 36.5653 9.90431C33.8588 9.90431 31.1523 9.90431 28.3637 9.90431C28.3496 9.13225 28.3355 8.36019 28.321 7.56473C28.3148 7.32176 28.3086 7.07878 28.3022 6.82845C28.3004 6.63714 28.2987 6.44583 28.297 6.24872C28.2934 6.05269 28.2898 5.85666 28.2861 5.65469C28.3637 5.16164 28.3637 5.16164 28.6159 4.84347C29.2503 4.56403 29.8662 4.58438 30.5476 4.59196Z" fill="#F8A022"/>
<path d="M28.3638 40.0542C31.0703 40.0542 33.7768 40.0542 36.5654 40.0542C36.5759 40.7669 36.5865 41.4795 36.5974 42.2138C36.6044 42.5494 36.6044 42.5494 36.6116 42.8918C36.6128 43.069 36.6141 43.2461 36.6154 43.4286C36.6181 43.6095 36.6208 43.7905 36.6236 43.9769C36.5535 44.5564 36.5186 44.7702 36.0528 45.1356C35.5044 45.2339 34.9633 45.2223 34.4075 45.2137C34.1652 45.2135 34.1652 45.2135 33.918 45.2132C33.5766 45.2122 33.2352 45.2095 32.8938 45.2054C32.3699 45.1992 31.8462 45.1984 31.3223 45.1985C30.9909 45.1968 30.6595 45.1948 30.3281 45.1925C30.1708 45.1922 30.0134 45.1918 29.8513 45.1914C29.7059 45.1892 29.5605 45.1871 29.4107 45.1848C29.2824 45.1836 29.1542 45.1823 29.0221 45.1809C28.7055 45.1356 28.7055 45.1356 28.3638 44.7969C28.325 44.3231 28.325 44.3231 28.3304 43.7263C28.3313 43.5346 28.3321 43.3429 28.333 43.1453C28.3361 42.9008 28.3392 42.6563 28.3424 42.4044C28.353 41.241 28.353 41.241 28.3638 40.0542Z" fill="#F99F21"/>
<path d="M191.541 5.50049C191.597 5.50049 191.654 5.50049 191.712 5.50049C191.726 5.82855 191.736 6.15677 191.744 6.48502C191.753 6.75915 191.753 6.75915 191.762 7.03881C191.712 7.53306 191.712 7.53306 191.199 8.0412C189 8.0412 186.801 8.0412 184.536 8.0412C184.536 20.1706 184.536 32.3 184.536 44.7969C184.197 44.9646 184.197 44.9646 183.852 45.1357C183.937 44.8003 183.937 44.8003 184.023 44.4581C184.136 44.4581 184.248 44.4581 184.365 44.4581C184.365 32.3847 184.365 20.3112 184.365 7.87182C189.149 7.70244 189.149 7.70244 191.37 7.70244C191.455 6.61248 191.455 6.61248 191.541 5.50049Z" fill="#F8B658"/>
<path d="M28.3638 13.4614C31.0703 13.4614 33.7768 13.4614 36.5653 13.4614C36.5653 15.2501 36.5653 17.0388 36.5653 18.8816C33.8588 18.8816 31.1523 18.8816 28.3638 18.8816C28.3638 17.093 28.3638 15.3043 28.3638 13.4614ZM28.5346 13.6308C28.5346 15.2518 28.5346 16.8728 28.5346 18.5429C29.6022 18.5467 30.6698 18.5501 31.7373 18.5522C32.1008 18.553 32.4643 18.5542 32.8278 18.5556C33.349 18.5577 33.8702 18.5587 34.3915 18.5594C34.555 18.5603 34.7186 18.5611 34.8871 18.562C35.0376 18.5621 35.1881 18.5621 35.3432 18.5621C35.4764 18.5625 35.6096 18.5628 35.7468 18.5632C36.0568 18.576 36.0568 18.576 36.2236 18.3735C36.2386 18.0348 36.2419 17.6956 36.2403 17.3565C36.2397 17.1507 36.2392 16.945 36.2386 16.7329C36.2372 16.5162 36.2358 16.2995 36.2343 16.0762C36.2335 15.8589 36.2327 15.6415 36.232 15.4176C36.2299 14.8784 36.2271 14.3393 36.2236 13.8002C35.7431 13.665 35.3183 13.6101 34.8195 13.6116C34.6793 13.6116 34.5391 13.6116 34.3946 13.6116C34.17 13.6129 34.17 13.6129 33.9409 13.6143C33.7864 13.6145 33.6319 13.6147 33.4727 13.615C32.98 13.6159 32.4873 13.6181 31.9947 13.6202C31.6603 13.6211 31.3259 13.6218 30.9915 13.6225C30.1725 13.6243 29.3536 13.6276 28.5346 13.6308Z" fill="#F4BB59"/>
<path d="M205.894 28.0278C206.006 28.0278 206.119 28.0278 206.235 28.0278C206.243 30.2083 206.249 32.3889 206.253 34.5694C206.255 35.5818 206.257 36.5942 206.261 37.6066C206.265 38.583 206.267 39.5593 206.268 40.5357C206.268 40.9088 206.27 41.282 206.272 41.6552C206.274 42.1764 206.274 42.6976 206.274 43.2188C206.276 43.4522 206.276 43.4522 206.278 43.6902C206.277 43.8318 206.277 43.9734 206.276 44.1192C206.277 44.2426 206.277 44.3659 206.277 44.493C206.235 44.7966 206.235 44.7966 205.894 45.1353C205.531 45.0718 205.531 45.0718 205.21 44.9659C205.549 44.7983 205.549 44.7983 205.894 44.6272C205.894 39.1494 205.894 33.6716 205.894 28.0278Z" fill="#FAB84F"/>
<path d="M116.873 37.3438C120.481 37.3438 124.09 37.3438 127.808 37.3438C128.191 38.2917 128.191 38.2917 128.246 38.8788C128.297 39.5076 128.297 39.5076 128.438 39.948C128.456 40.0388 128.473 40.1296 128.491 40.2232C128.379 40.335 128.266 40.4468 128.15 40.562C128.064 40.1775 127.978 39.7928 127.893 39.4081C127.846 39.1939 127.798 38.9797 127.749 38.759C127.637 38.1907 127.637 38.1907 127.637 37.6825C124.085 37.6825 120.533 37.6825 116.873 37.6825C116.873 37.5707 116.873 37.4589 116.873 37.3438Z" fill="#F7B552"/>
<path d="M157.88 42.0866C159.501 42.0788 161.121 42.0728 162.742 42.0691C163.494 42.0673 164.246 42.0649 164.999 42.0611C165.724 42.0574 166.45 42.0554 167.176 42.0545C167.453 42.0539 167.73 42.0526 168.007 42.0508C168.395 42.0484 168.782 42.048 169.17 42.0482C169.391 42.0474 169.611 42.0467 169.839 42.0459C170.354 42.0866 170.354 42.0866 170.695 42.4254C170.747 42.9653 170.747 42.9653 170.749 43.6111C170.752 43.8242 170.754 44.0373 170.757 44.2568C170.737 44.435 170.716 44.6132 170.695 44.7967C170.526 44.9085 170.357 45.0203 170.183 45.1355C170.183 44.2971 170.183 43.4586 170.183 42.5948C169.534 42.4341 169.02 42.3992 168.355 42.3906C168.242 42.3889 168.128 42.3873 168.011 42.3855C167.638 42.3802 167.264 42.376 166.891 42.3718C166.631 42.3683 166.372 42.3648 166.112 42.3611C165.43 42.3518 164.748 42.3434 164.066 42.3352C163.37 42.3267 162.674 42.3173 161.977 42.308C160.612 42.2898 159.246 42.2726 157.88 42.256C157.88 42.2001 157.88 42.1442 157.88 42.0866Z" fill="#FDB74C"/>
<path d="M29.0474 4.65328C29.9901 4.64074 30.9328 4.63151 31.8757 4.62537C32.1965 4.62281 32.5174 4.61934 32.8383 4.61495C33.2989 4.6088 33.7594 4.60591 34.2201 4.60366C34.3641 4.60104 34.5081 4.59842 34.6564 4.59571C35.0606 4.5956 35.0606 4.5956 35.7111 4.65328C35.8239 4.82097 35.9367 4.98866 36.0529 5.16143C35.1101 5.16561 34.1673 5.16868 33.2246 5.17073C32.9037 5.17158 32.5828 5.17274 32.2619 5.17421C31.8014 5.17625 31.3408 5.17722 30.8802 5.17797C30.7362 5.17884 30.5922 5.17972 30.4438 5.18062C29.428 5.18071 29.428 5.18071 29.0474 4.99205C29.0474 4.88025 29.0474 4.76846 29.0474 4.65328Z" fill="#F6BA55"/>
<path d="M211.709 4.75537C211.904 4.75668 212.1 4.75799 212.301 4.75934C212.595 4.75738 212.595 4.75738 212.894 4.75537C213.412 4.82286 213.412 4.82286 213.734 5.04782C214.063 5.53649 213.98 5.94296 213.924 6.51667C213.78 7.03533 213.605 7.53835 213.412 8.0411C213.355 8.0411 213.299 8.0411 213.241 8.0411C213.236 7.72 213.233 7.39887 213.23 7.07774C213.228 6.89892 213.226 6.7201 213.224 6.53586C213.241 6.00853 213.241 6.00853 213.412 5.16162C212.059 5.24546 212.059 5.24546 210.678 5.331C211.191 4.82286 211.191 4.82286 211.709 4.75537Z" fill="#F7B85C"/>
<path d="M195.471 4.82263C195.827 4.81346 196.183 4.8069 196.539 4.80146C196.836 4.79557 196.836 4.79557 197.14 4.78955C197.978 4.83972 197.978 4.83972 198.376 5.1614C198.569 5.56311 198.718 5.92792 198.856 6.34706C198.895 6.4558 198.934 6.56453 198.975 6.67656C199.072 6.95814 199.152 7.24531 199.23 7.53273C199.174 7.64452 199.117 7.75631 199.059 7.87149C198.49 7.13844 198.272 6.56036 198.135 5.64506C198.085 5.48949 198.085 5.48949 198.034 5.33078C197.494 5.15222 197.031 5.10842 196.464 5.06612C196.278 5.05193 196.093 5.03773 195.901 5.02311C195.759 5.01285 195.617 5.00259 195.471 4.99201C195.471 4.93612 195.471 4.88022 195.471 4.82263Z" fill="#F9C26A"/>
<path d="M124.561 8.8877C124.961 9.62175 125.106 10.3635 125.277 11.1743C125.326 11.3915 125.326 11.3915 125.375 11.613C125.405 11.753 125.435 11.8929 125.466 12.0371C125.493 12.1641 125.52 12.2911 125.549 12.4219C125.59 12.8127 125.534 13.0886 125.416 13.461C124.79 11.9384 124.508 10.5333 124.561 8.8877Z" fill="#F6B756"/>
<path d="M94.4891 33.9565C94.6019 34.0124 94.7146 34.0683 94.8308 34.1259C94.8308 35.132 94.8308 36.1382 94.8308 37.1748C94.6617 37.2307 94.4925 37.2866 94.3182 37.3442C94.3136 36.8748 94.3102 36.4055 94.3075 35.9362C94.3061 35.8031 94.3047 35.67 94.3032 35.5329C94.3027 35.4046 94.3021 35.2764 94.3015 35.1442C94.3006 35.0262 94.2998 34.9082 94.2988 34.7867C94.3182 34.4647 94.3182 34.4647 94.4891 33.9565Z" fill="#FAA939"/>
<path d="M94.8307 11.4287C94.9435 11.4287 95.0563 11.4287 95.1724 11.4287C95.0597 12.6584 94.9469 13.8881 94.8307 15.1551C94.7743 15.1551 94.7179 15.1551 94.6598 15.1551C94.482 14.472 94.4804 13.8364 94.4997 13.1371C94.5051 12.7504 94.5051 12.7504 94.3181 12.2756C94.4873 12.2197 94.6564 12.1638 94.8307 12.1062C94.8307 11.8827 94.8307 11.6591 94.8307 11.4287Z" fill="#F9AE3C"/>
<path d="M169.499 42.2558C169.841 42.2486 170.183 42.2489 170.524 42.2558C170.856 42.5843 170.733 43.1646 170.738 43.6002C170.745 43.9222 170.745 43.9222 170.751 44.2506C170.733 44.4308 170.714 44.6109 170.695 44.7965C170.526 44.9083 170.357 45.0201 170.183 45.1353C170.183 44.2968 170.183 43.4584 170.183 42.5945C169.957 42.4828 169.732 42.371 169.499 42.2558Z" fill="#F6A940"/>
<path d="M195.642 7.70215C195.924 7.70215 196.206 7.70215 196.496 7.70215C196.464 7.86285 196.433 8.02355 196.4 8.18912C196.276 8.70127 196.276 8.70127 196.496 9.0572C196.44 9.22488 196.383 9.39257 196.325 9.56534C196.438 9.56534 196.551 9.56534 196.667 9.56534C196.667 9.90072 196.667 10.2361 196.667 10.5816C196.242 10.1604 196.149 9.80165 195.962 9.23716C195.902 9.05747 195.842 8.87777 195.779 8.69263C195.642 8.21029 195.642 8.21029 195.642 7.70215Z" fill="#F8A73F"/>
<path d="M117.043 21.5913C117.1 21.5913 117.156 21.5913 117.214 21.5913C117.145 22.8696 117.074 24.0879 116.702 25.3177C116.589 25.3177 116.476 25.3177 116.36 25.3177C116.487 24.0542 116.764 22.8296 117.043 21.5913Z" fill="#F4B756"/>
<path d="M206.065 18.8813C206.121 18.8813 206.177 18.8813 206.235 18.8813C206.323 19.9656 206.256 20.5718 205.552 21.4221C205.665 21.478 205.777 21.5339 205.894 21.5914C205.555 21.7591 205.555 21.7591 205.21 21.9302C205.422 20.8847 205.705 19.8863 206.065 18.8813Z" fill="#F6B850"/>
<path d="M98.248 42.0864C98.4454 42.1423 98.6427 42.1982 98.8461 42.2558C100.053 42.5285 101.29 42.4521 102.52 42.4252C102.178 42.764 102.178 42.764 101.849 42.8051C101.653 42.8041 101.653 42.8041 101.452 42.803C101.309 42.8027 101.166 42.8023 101.019 42.802C100.794 42.7989 100.794 42.7989 100.565 42.7957C100.416 42.7956 100.267 42.7955 100.114 42.7954C99.0036 42.7878 99.0036 42.7878 98.4189 42.5946C98.3625 42.4269 98.3061 42.2592 98.248 42.0864Z" fill="#F6B55A"/>
<path d="M125.758 28.7056C126.099 28.8749 126.099 28.8749 126.288 29.3685C126.349 29.576 126.41 29.7834 126.473 29.9971C126.535 30.2019 126.598 30.4067 126.662 30.6177C126.79 31.2823 126.746 31.7727 126.612 32.432C126.556 32.432 126.499 32.432 126.441 32.432C126.215 31.2022 125.99 29.9725 125.758 28.7056Z" fill="#F5B64F"/>
<path d="M124.903 24.3018C125.016 24.3018 125.129 24.3018 125.245 24.3018C125.269 24.4939 125.294 24.686 125.32 24.884C125.349 25.4549 125.349 25.4549 125.587 25.6568C125.627 26.1128 125.659 26.5655 125.683 27.0224C125.69 27.1509 125.697 27.2794 125.705 27.4118C125.723 27.7301 125.74 28.0485 125.757 28.3669C125.701 28.3669 125.645 28.3669 125.587 28.3669C125.472 27.8166 125.358 27.2661 125.245 26.7154C125.212 26.5595 125.18 26.4036 125.146 26.243C125.115 26.0924 125.084 25.9417 125.053 25.7865C125.024 25.6481 124.995 25.5097 124.966 25.3672C124.903 24.9793 124.903 24.9793 124.903 24.3018Z" fill="#F5B959"/>
<path d="M106.108 11.2593C106.221 11.2593 106.333 11.2593 106.45 11.2593C106.45 11.427 106.45 11.5947 106.45 11.7674C106.562 11.7674 106.675 11.7674 106.791 11.7674C106.791 12.8853 106.791 14.0033 106.791 15.155C106.735 15.155 106.679 15.155 106.621 15.155C106.612 14.9957 106.604 14.8363 106.595 14.672C106.582 14.4611 106.57 14.2502 106.556 14.0329C106.545 13.8246 106.533 13.6163 106.52 13.4017C106.453 12.81 106.307 12.3264 106.108 11.7674C106.108 11.5997 106.108 11.432 106.108 11.2593Z" fill="#F4A739"/>
<path d="M208.457 11.4287C208.513 11.4287 208.569 11.4287 208.627 11.4287C208.684 11.9318 208.74 12.4348 208.798 12.9531C208.629 13.037 208.629 13.037 208.457 13.1225C208.404 13.2867 208.351 13.4509 208.296 13.6201C208.115 14.1388 208.115 14.1388 207.602 14.4776C207.881 13.4595 208.161 12.4422 208.457 11.4287Z" fill="#F5B04E"/>
<path d="M203.843 22.0996C204.1 22.5992 204.322 23.1015 204.527 23.624C204.64 23.2887 204.752 22.9533 204.869 22.6078C204.986 22.883 204.986 22.883 205.039 23.2853C204.794 23.8358 204.794 23.8358 204.527 24.3016C204.358 24.2457 204.189 24.1898 204.014 24.1322C203.85 23.644 203.825 23.3363 203.833 22.8301C203.834 22.6932 203.836 22.5563 203.837 22.4152C203.839 22.3111 203.841 22.2069 203.843 22.0996Z" fill="#FABA58"/>
<path d="M106.108 43.7803C106.277 43.8362 106.446 43.8921 106.62 43.9497C105.845 44.4606 105.136 44.888 104.228 45.1353C104.228 44.9676 104.228 44.7999 104.228 44.6272C104.567 44.5713 104.905 44.5154 105.253 44.4578C105.253 44.346 105.253 44.2342 105.253 44.119C105.535 44.119 105.817 44.119 106.108 44.119C106.108 44.0072 106.108 43.8955 106.108 43.7803Z" fill="#F6B34B"/>
<path d="M129.687 32.0933C129.744 32.0933 129.8 32.0933 129.858 32.0933C129.945 32.4742 130.03 32.8553 130.114 33.2366C130.162 33.4488 130.21 33.661 130.259 33.8797C130.371 34.4646 130.371 34.4646 130.371 35.1421C130.202 35.0862 130.032 35.0303 129.858 34.9727C129.716 34.0038 129.667 33.0719 129.687 32.0933Z" fill="#F5B44D"/>
<path d="M123.536 17.8652C124.046 18.4397 124.237 18.9816 124.39 19.7284C124.326 20.3954 124.326 20.3954 124.22 20.9141C124.163 20.9141 124.107 20.9141 124.049 20.9141C123.962 20.5332 123.877 20.152 123.792 19.7708C123.745 19.5585 123.697 19.3463 123.648 19.1277C123.536 18.5428 123.536 18.5428 123.536 17.8652Z" fill="#F7B74F"/>
<path d="M93.6348 42.5947C94.2337 42.7047 94.6859 42.9072 95.1726 43.2723C95.3114 43.7275 95.3114 43.7275 95.3434 44.1192C94.6294 43.6848 94.126 43.269 93.6348 42.5947Z" fill="#F7B64B"/>
<path d="M207.432 14.647C207.488 14.647 207.544 14.647 207.602 14.647C207.602 15.0941 207.602 15.5413 207.602 16.002C207.546 16.002 207.49 16.002 207.432 16.002C207.432 16.3374 207.432 16.6728 207.432 17.0183C207.093 17.186 207.093 17.186 206.748 17.3571C206.851 16.4 207.103 15.5512 207.432 14.647Z" fill="#F8B955"/>
<path d="M96.0269 5.50049C96.1396 5.55638 96.2524 5.61228 96.3686 5.66987C96.3686 5.78166 96.3686 5.89345 96.3686 6.00863C96.1994 6.00863 96.0303 6.00863 95.856 6.00863C95.856 6.28811 95.856 6.56759 95.856 6.85554C95.6868 6.91143 95.5177 6.96733 95.3434 7.02492C95.3434 6.85723 95.3434 6.68954 95.3434 6.51677C95.1743 6.46088 95.0051 6.40498 94.8308 6.34739C95.2255 6.06791 95.6202 5.78844 96.0269 5.50049Z" fill="#F7AC40"/>
<path d="M105.937 42.9336C106.444 42.9895 106.952 43.0454 107.475 43.103C107.261 43.4417 107.261 43.4417 106.962 43.7805C106.737 43.7805 106.511 43.7805 106.279 43.7805C106.279 43.6128 106.279 43.4451 106.279 43.2724C106.166 43.2724 106.053 43.2724 105.937 43.2724C105.937 43.1606 105.937 43.0488 105.937 42.9336Z" fill="#F9A833"/>
<path d="M127.637 37.6826C127.883 37.852 127.883 37.852 128.15 38.1908C128.204 38.532 128.258 38.874 128.288 39.2183C128.312 39.5626 128.312 39.5626 128.438 39.9481C128.456 40.0389 128.473 40.1298 128.491 40.2233C128.379 40.3351 128.266 40.4469 128.15 40.5621C128.063 40.1776 127.978 39.7929 127.893 39.4082C127.822 39.0869 127.822 39.0869 127.749 38.7591C127.637 38.1908 127.637 38.1908 127.637 37.6826Z" fill="#F6BA5B"/>
<path d="M120.119 20.4058C120.232 20.4058 120.344 20.4058 120.461 20.4058C120.441 20.6741 120.419 20.9422 120.397 21.2103C120.379 21.4343 120.379 21.4343 120.36 21.6629C120.29 22.098 120.168 22.3974 119.948 22.7771C119.788 21.8595 119.742 21.2858 120.119 20.4058Z" fill="#F6B24D"/>
<path d="M211.703 11.9365C211.918 12.5766 211.785 12.7892 211.543 13.408C211.478 13.5764 211.413 13.7447 211.346 13.9182C211.295 14.0468 211.244 14.1754 211.191 14.3079C211.134 14.3079 211.078 14.3079 211.02 14.3079C211.035 13.976 211.053 13.6443 211.073 13.3127C211.083 13.128 211.093 12.9433 211.103 12.753C211.132 12.5953 211.161 12.4377 211.191 12.2753C211.36 12.1635 211.529 12.0517 211.703 11.9365Z" fill="#F3B24B"/>
<path d="M212.728 9.05713C212.899 9.39589 212.899 9.39589 212.766 9.8736C212.701 10.0583 212.635 10.243 212.568 10.4334C212.503 10.6189 212.438 10.8045 212.371 10.9957C212.32 11.1385 212.269 11.2813 212.216 11.4285C212.159 11.4285 212.103 11.4285 212.045 11.4285C211.794 10.5023 211.949 10.0465 212.386 9.22651C212.499 9.17061 212.612 9.11472 212.728 9.05713Z" fill="#F4BA4B"/>
<path d="M181.289 41.5786C181.345 41.5786 181.402 41.5786 181.46 41.5786C181.516 42.5847 181.573 43.5909 181.631 44.6275C181.744 44.6834 181.856 44.7393 181.973 44.7969C181.973 44.9086 181.973 45.0204 181.973 45.1356C181.747 45.0797 181.521 45.0238 181.289 44.9662C181.289 43.8483 181.289 42.7304 181.289 41.5786Z" fill="#EEA22C"/>
<path d="M99.4441 4.48397C99.4441 4.59576 99.4441 4.70755 99.4441 4.82273C99.2538 4.84369 99.0635 4.86465 98.8675 4.88625C98.2428 4.93225 98.2428 4.93225 97.9063 5.33087C97.4578 5.26736 97.4578 5.26736 97.052 5.16149C97.8215 4.65297 98.5176 4.42994 99.4441 4.48397Z" fill="#F5B24C"/>
<path d="M105.766 40.0542C105.905 40.34 105.905 40.34 105.937 40.7317C105.563 41.2081 105.563 41.2081 105.083 41.5786C104.711 41.5171 104.711 41.5171 104.399 41.4092C104.484 41.3398 104.568 41.2704 104.655 41.1988C104.764 41.1076 104.874 41.0163 104.987 40.9223C105.096 40.8319 105.205 40.7415 105.317 40.6484C105.614 40.4061 105.614 40.4061 105.766 40.0542Z" fill="#F9B14B"/>
<path d="M112.43 42.4253C112.486 42.4253 112.543 42.4253 112.601 42.4253C112.615 42.7569 112.625 43.0886 112.633 43.4204C112.642 43.6975 112.642 43.6975 112.651 43.9802C112.634 44.1378 112.618 44.2954 112.601 44.4579C112.432 44.5697 112.262 44.6814 112.088 44.7966C112.253 43.2027 112.253 43.2027 112.43 42.4253Z" fill="#F5BD58"/>
<path d="M106.62 38.3604C106.677 38.3604 106.733 38.3604 106.791 38.3604C106.772 38.6075 106.75 38.8545 106.727 39.1014C106.715 39.2389 106.703 39.3765 106.691 39.5182C106.62 39.8848 106.62 39.8848 106.279 40.2235C106.166 40.1118 106.053 40 105.937 39.8848C106.163 39.3817 106.388 38.8787 106.62 38.3604Z" fill="#F4B851"/>
<path d="M129.004 29.0444C129.289 29.5461 129.401 29.9541 129.452 30.5265C129.465 30.6619 129.478 30.7973 129.491 30.9367C129.5 31.0389 129.508 31.1411 129.517 31.2464C129.133 30.9458 129.012 30.8088 128.954 30.3181C128.96 30.1668 128.966 30.0155 128.972 29.8596C128.977 29.707 128.981 29.5543 128.986 29.3971C128.992 29.2807 128.998 29.1643 129.004 29.0444Z" fill="#F5B652"/>
<path d="M206.919 24.8096C207.111 25.0848 207.111 25.0848 207.261 25.4871C207.111 26.0376 207.111 26.0376 206.919 26.5034C206.75 26.3916 206.581 26.2798 206.406 26.1646C206.727 25.0001 206.727 25.0001 206.919 24.8096Z" fill="#F9AB3E"/>
<path d="M201.451 24.3018C201.564 24.3018 201.677 24.3018 201.793 24.3018C202.134 24.9997 202.165 25.564 202.135 26.3343C201.809 25.8508 201.714 25.5858 201.601 25.0322C201.572 24.8953 201.543 24.7584 201.514 24.6174C201.493 24.5132 201.473 24.4091 201.451 24.3018Z" fill="#F6BB58"/>
<path d="M202.306 18.0347C202.418 18.0347 202.531 18.0347 202.647 18.0347C202.817 18.6495 202.986 19.2644 203.16 19.8979C203.047 19.8979 202.934 19.8979 202.818 19.8979C202.765 19.7616 202.713 19.6254 202.658 19.485C202.517 19.0695 202.517 19.0695 202.306 18.8816C202.299 18.5994 202.298 18.3169 202.306 18.0347Z" fill="#F2B44D"/>
<path d="M91.7551 38.5298C92.261 39.0996 92.4254 39.6632 92.6095 40.393C92.4403 40.4768 92.4403 40.4768 92.2677 40.5624C92.1813 40.3192 92.0961 40.0756 92.0114 39.8319C91.9639 39.6963 91.9163 39.5607 91.8673 39.421C91.7551 39.0379 91.7551 39.0379 91.7551 38.5298Z" fill="#F9BC4C"/>
<path d="M96.3684 18.7119C96.7631 19.0473 97.1578 19.3827 97.5645 19.7282C97.4517 19.84 97.3389 19.9518 97.2227 20.067C97.2227 19.9552 97.2227 19.8434 97.2227 19.7282C96.9408 19.6723 96.6589 19.6164 96.3684 19.5588C96.3684 19.2793 96.3684 18.9999 96.3684 18.7119Z" fill="#F4B957"/>
<path d="M210.678 14.4775C210.791 14.4775 210.903 14.4775 211.02 14.4775C210.766 15.3998 210.766 15.3998 210.507 16.3407C210.451 16.3407 210.394 16.3407 210.336 16.3407C210.287 15.0825 210.287 15.0825 210.678 14.4775Z" fill="#F8BA5C"/>
<path d="M200.084 10.751C200.504 11.3755 200.599 11.8853 200.768 12.6142C200.426 12.4448 200.426 12.4448 200.084 12.106C200.021 11.6396 200.053 11.2246 200.084 10.751Z" fill="#F5B556"/>
<path d="M195.983 8.71875C196.153 8.77465 196.322 8.83054 196.496 8.88813C196.44 9.11171 196.383 9.3353 196.325 9.56566C196.438 9.56566 196.551 9.56566 196.667 9.56566C196.667 9.90103 196.667 10.2364 196.667 10.5819C196.272 10.1902 196.24 9.99266 196.133 9.45979C196.104 9.32136 196.076 9.18293 196.046 9.04031C196.025 8.93419 196.005 8.82808 195.983 8.71875Z" fill="#F5B75B"/>
<path d="M104.741 8.37988C104.797 8.60347 104.854 8.82705 104.912 9.05741C105.081 9.05741 105.25 9.05741 105.424 9.05741C105.481 9.39278 105.537 9.72816 105.595 10.0737C105.143 9.63706 104.75 9.24093 104.399 8.71865C104.512 8.71865 104.625 8.71865 104.741 8.71865C104.741 8.60685 104.741 8.49506 104.741 8.37988Z" fill="#F7BA50"/>
<path d="M209.482 8.37988C209.595 8.49167 209.707 8.60347 209.824 8.71865C209.759 9.16327 209.759 9.16327 209.653 9.56555C209.54 9.56555 209.427 9.56555 209.311 9.56555C209.255 9.78913 209.198 10.0127 209.14 10.2431C208.969 9.90431 208.969 9.90431 209.065 9.53776C209.114 9.40021 209.164 9.26265 209.215 9.12093C209.264 8.9825 209.313 8.84407 209.364 8.70144C209.403 8.59533 209.442 8.48921 209.482 8.37988Z" fill="#FCB856"/>
<path d="M107.646 7.53271C108.598 8.40382 108.598 8.40382 108.671 9.05714C108.445 8.94535 108.22 8.83356 107.987 8.71838C108.044 8.60659 108.1 8.4948 108.158 8.37962C108.046 8.37962 107.933 8.37962 107.817 8.37962C107.76 8.10014 107.704 7.82066 107.646 7.53271Z" fill="#FABB5A"/>
<path d="M109.867 37.8521C109.98 37.8521 110.092 37.8521 110.209 37.8521C110.152 38.3551 110.096 38.8582 110.038 39.3765C109.869 39.2647 109.699 39.1529 109.525 39.0377C109.638 38.6464 109.751 38.2552 109.867 37.8521Z" fill="#FAB14A"/>
<path d="M108.5 41.0703C108.852 41.1444 108.852 41.1444 109.183 41.2397C108.961 41.5817 108.733 41.9205 108.5 42.256C108.444 42.256 108.387 42.256 108.329 42.256C108.322 41.9173 108.322 41.5784 108.329 41.2397C108.385 41.1838 108.442 41.1279 108.5 41.0703Z" fill="#FAB152"/>
<path d="M99.1023 21.2529C99.6098 21.5883 99.6098 21.5883 100.127 21.9305C99.6149 22.2692 99.6149 22.2692 99.2732 22.2692C99.2168 21.9338 99.1604 21.5985 99.1023 21.2529Z" fill="#FCB24E"/>
</svg>
