<svg width="107" height="83" viewBox="0 0 107 83" fill="none" xmlns="http://www.w3.org/2000/svg">
<g clip-path="url(#clip0_318_1917)">
<path d="M52.5593 4.08744V3.47961C52.5593 1.77433 51.2058 0.170344 49.3072 0.389837C47.1099 0.592446 46.0552 1.77433 46.0552 3.47961L46.1958 5.16801L52.5593 4.08744Z" fill="#5B5B5B"/>
<path d="M74.7789 1.4707L16.8218 10.7738C16.6987 10.8076 16.4351 11.2128 16.4351 11.7699V29.6839C16.4351 30.2242 16.6812 30.5281 16.7515 30.5281L29.2851 29.8696L29.0565 25.9525C29.0038 25.1758 29.6718 24.5511 30.4628 24.5849L68.0111 26.3746V27.8773L74.2516 27.5565C79.3318 22.4575 88.4025 13.3402 90.2658 11.466L74.7789 1.4707Z" fill="#02BF89"/>
<path d="M26.965 15.7881V17.2401L24.0997 17.5778V18.6077L25.6993 18.4389C26.8947 18.3207 27.5275 19.0129 27.5275 20.3468C27.5275 21.6806 26.8595 22.5417 25.6642 22.6092L22.5176 22.8118V16.379L26.965 15.7881ZM25.6993 20.5156C25.6993 19.9753 25.4884 19.874 25.0313 19.9078L24.0821 19.9922V21.2923L25.0313 21.2247C25.506 21.191 25.6993 21.039 25.6993 20.5156Z" fill="white"/>
<path d="M30.9374 15.0959C33.082 14.8088 34.207 15.957 34.2246 18.4558C34.2422 20.9546 33.1171 22.3391 30.9549 22.4742C28.8807 22.6093 27.8611 21.4274 27.8611 19.0636C27.8611 16.7336 28.8631 15.366 30.9374 15.0959ZM30.9549 20.6507C31.746 20.5832 32.1855 19.8909 32.1679 18.6584C32.1679 17.4259 31.7284 16.8012 30.9374 16.8856C30.1639 16.97 29.742 17.6791 29.742 18.8948C29.742 20.0935 30.1639 20.7182 30.9549 20.6507Z" fill="white"/>
<path d="M35.6309 14.6739L41.678 13.8804L41.7307 21.5964L39.551 21.7314L39.5158 16.0415L37.67 16.261V18.2871C37.67 19.7054 37.4767 20.7015 37.1075 21.3262C36.7735 21.8327 36.3516 22.0691 35.6661 22.1029C35.2617 22.1198 34.8926 22.1029 34.4883 22.0353V20.3469C34.6113 20.3807 34.7695 20.3976 34.9805 20.3807C35.6485 20.3301 35.6485 19.6041 35.6485 18.4222L35.6309 14.6739Z" fill="white"/>
<path d="M45.264 13.4077L45.2816 16.3624L47.6547 16.1092C49.4477 15.9234 50.397 16.7507 50.4146 18.4054C50.4322 20.0431 49.4302 21.1068 47.6371 21.2081L42.9788 21.512L42.926 13.7116L45.264 13.4077ZM47.6899 18.6586C47.6899 18.0002 47.3735 17.8651 46.7055 17.9326L45.2992 18.0677L45.3167 19.6548L46.723 19.5535C47.391 19.486 47.7074 19.3002 47.6899 18.6586Z" fill="white"/>
<path d="M58.835 11.652L58.9053 18.1692L61.2257 17.9835L61.1378 11.3481L64.1438 10.9429L64.2668 20.1615L51.4168 20.972L51.3289 12.6144L53.8954 12.2936L53.9657 18.5576L56.1279 18.3887L56.04 12.0066L58.835 11.652Z" fill="white"/>
<path d="M66.0422 10.706L75.5875 9.45654L75.6402 11.9047L69.4349 12.597L69.4525 13.7451L74.4273 13.2217L74.48 15.653L69.4877 16.092L69.5053 17.3583L76.0446 16.8349L76.0973 19.4181L66.1829 20.0428L66.0422 10.706Z" fill="white"/>
<path d="M31.5001 43.4103L55.4424 42.8532C55.4599 42.8532 55.4951 42.8532 55.5127 42.8532L66.6752 41.2323C66.974 41.1816 67.185 40.9453 67.185 40.6582V27.6576C67.185 27.3536 66.9389 27.0835 66.6049 27.0835L30.5156 25.3613C30.4981 25.3613 30.4981 25.3613 30.4805 25.3613C30.3223 25.3613 30.1641 25.4289 30.0586 25.5302C29.9355 25.6484 29.8828 25.8003 29.8828 25.9692L30.8672 42.8532C30.9024 43.174 31.1661 43.4103 31.5001 43.4103Z" fill="#5B5B5B"/>
<path d="M47.9011 43.9173L31.1485 44.4913C30.586 44.5082 30.129 44.1199 30.0938 43.5796L29.1973 31.1023C29.1797 30.8997 28.9863 30.7309 28.7754 30.7477C28.5645 30.7646 28.3887 30.9335 28.4062 31.153L29.3028 43.6302C29.3731 44.542 30.1465 45.2342 31.0958 45.2342C31.1134 45.2342 31.1485 45.2342 31.1837 45.2342L41.2036 44.8797C42.3989 44.7277 45.7565 44.1705 47.9011 43.9173Z" fill="#5B5B5B"/>
<path d="M45.0185 38.8857H41.8895L41.5555 35.4414C40.9402 35.5934 40.0085 35.7453 39.0065 35.7115C36.9147 35.6609 34.5591 35.0531 34.2603 32.7231L33.9087 29.9541L37.5299 30.1905L37.7584 32.1997C37.8991 33.466 38.7077 33.7192 39.6394 33.753C40.3601 33.7868 40.9929 33.6517 41.3621 33.5335L41.0633 30.4269L44.3153 30.6463L45.0185 38.8857Z" fill="white"/>
<path d="M46.1082 30.7812L53.9834 31.3047L54.0713 33.2125L49.2372 32.9593L49.2899 33.9217L53.2276 34.0905L53.3155 35.9646L49.413 35.8633L49.4833 36.8933L54.4581 36.9777L54.5284 38.8856H46.7058L46.1082 30.7812Z" fill="white"/>
<path d="M55.0732 31.3726L58.8703 31.6258L60.0129 36.1338L61.0676 31.7778L64.4251 31.9973V38.8859H62.386L62.3333 33.4324L60.9797 38.8859H59.1515L57.5167 33.1791L57.6925 38.8859H55.3545L55.0732 31.3726Z" fill="white"/>
<path d="M104.153 64.769C104.382 64.482 104.47 64.1274 104.417 63.7729L99.5476 38.4975C99.4245 37.839 98.7741 37.4 98.0885 37.5013L5.78241 50.8228L0.754883 60.9701L9.50911 69.716L103.222 65.2418C103.591 65.2249 103.925 65.056 104.153 64.769Z" fill="#713DD3"/>
<path d="M7.25903 57.2556L12.0229 56.7153L13.2358 63.4689L11.6889 63.5702L10.7748 58.5557L9.03449 58.7414L9.94859 63.7053L8.45439 63.8066L7.25903 57.2556Z" fill="white"/>
<path d="M14.2027 61.7634C14.7301 61.9829 15.0113 61.831 15.0465 61.2569L12.2339 56.6813L14.0972 56.4619L15.4508 59.3997L15.6617 56.2761L17.5778 56.0566L16.6989 61.2907C16.5231 62.2868 16.4352 62.5232 16.3473 62.7765C16.1715 63.2661 15.7848 63.4687 15.3981 63.4856C15.0992 63.5025 14.818 63.4518 14.5015 63.3674L14.2027 61.7634Z" fill="white"/>
<path d="M19.2303 57.7112L17.6482 57.8801L17.3318 56.1073L22.289 55.5332L22.623 57.3567L20.9706 57.5255L21.9198 62.8609L20.162 62.9959L19.2303 57.7112Z" fill="white"/>
<path d="M22.8162 55.4657L27.8964 54.8916L28.2128 56.7151L24.9608 57.0528L25.1014 57.9476L27.7382 57.6775L28.0546 59.5009L25.4178 59.7373L25.5936 60.6997L29.039 60.4296L29.373 62.3543L24.0994 62.7258L22.8162 55.4657Z" fill="white"/>
<path d="M34.1369 54.1658L35.1389 59.8894L36.7562 59.7544L35.7542 53.98L37.8109 53.7437L39.1644 61.6791L30.0411 62.3038L28.7402 54.7905L30.6212 54.571L31.588 60.1765L33.1525 60.0583L32.1681 54.3852L34.1369 54.1658Z" fill="white"/>
<path d="M39.0945 53.5915L45.2822 52.8823L45.6338 54.9084L41.6434 55.3305L41.8192 56.2929L45.0185 55.989L45.3701 57.9982L42.1532 58.2852L42.329 59.3489L46.5127 59.0112L46.8819 61.1386L40.4656 61.5776L39.0945 53.5915Z" fill="white"/>
<path d="M50.3971 54.2838C49.3424 54.3851 48.9205 55.2461 49.1666 56.7319C49.4127 58.2008 50.1158 58.9437 51.1706 58.8593C51.9265 58.7918 52.3484 58.3021 52.3308 57.3566L55.2664 57.1034C55.3895 59.5009 54.1062 60.8685 51.5222 61.0374C48.7095 61.2231 47.0747 59.8386 46.5825 56.9683C46.0903 54.098 47.2329 52.4265 50.028 52.1057C52.7351 51.7849 54.4754 53.0174 54.9676 55.4825L52.0671 55.7527C51.821 54.7227 51.2233 54.1993 50.3971 54.2838Z" fill="white"/>
<path d="M57.4645 53.7606L55.021 54.0139L54.6519 51.8021L62.3689 50.9072L62.7381 53.2203L60.154 53.4905L61.2439 60.1428L58.5368 60.3285L57.4645 53.7606Z" fill="white"/>
<path d="M72.599 52.1564C72.7396 53.085 72.4935 53.8448 71.8782 54.3344C72.8451 54.6046 73.4428 55.3644 73.6361 56.5462C73.9174 58.3359 73.0736 59.3152 71.1224 59.4503L64.671 59.8893L63.1943 50.8057L69.2239 50.1134C71.263 49.8939 72.3177 50.3329 72.599 52.1564ZM66.6046 53.963L68.5734 53.7773C69.2766 53.7097 69.593 53.6084 69.5051 53.0006C69.3996 52.359 69.0656 52.3759 68.3625 52.4434L66.3937 52.646L66.6046 53.963ZM69.2414 57.2554C70.0325 57.1878 70.4016 57.1034 70.2962 56.3943C70.1907 55.702 69.804 55.6345 68.9953 55.7189L66.921 55.9046L67.1671 57.4242L69.2414 57.2554Z" fill="white"/>
<path d="M82.5311 58.6737L81.617 52.798L78.945 58.9101L75.3765 59.1633L73.8647 49.5901L76.9235 49.2355L77.8024 54.841L80.3689 48.8472L84.1835 48.4082L85.7304 58.4542L82.5311 58.6737Z" fill="white"/>
<path d="M86.1699 48.172L96.1722 47.0239L96.559 49.6241L90.1076 50.2994L90.3009 51.532L95.4867 51.0254L95.891 53.6087L90.6877 54.0646L90.881 55.4153L97.684 54.875L98.0883 57.5933L87.7169 58.3024L86.1699 48.172Z" fill="white"/>
<path d="M11.4779 71.3707C11.2494 71.3707 11.056 71.2018 11.056 70.9823C11.0385 70.7629 11.2318 70.5602 11.4604 70.5602L104.417 66.1197C104.786 66.1029 105.12 65.934 105.349 65.6639C105.577 65.3937 105.665 65.0392 105.595 64.6846L100.602 38.7845C100.567 38.5651 100.708 38.3456 100.954 38.3118C101.182 38.278 101.411 38.4131 101.446 38.6326L106.456 64.5158C106.561 65.0898 106.421 65.6976 106.034 66.1535C105.647 66.6094 105.085 66.8964 104.47 66.9302L11.5131 71.3707C11.4955 71.3707 11.4955 71.3707 11.4779 71.3707Z" fill="#713DD3"/>
<path d="M52.4895 75.2707L52.4368 70.6782L46.5655 70.9821L46.7412 75.1018C46.8116 76.9084 45.4228 78.4618 43.5595 78.6812C40.9578 79.002 39.2703 79.5086 39.2703 80.0826C39.2703 81.0281 43.8759 81.8048 49.5538 81.8048C55.2318 81.8048 59.8374 81.0281 59.8374 80.0826C59.8374 79.5086 58.185 79.002 55.6537 78.6981C53.8782 78.4449 52.5071 76.9928 52.4895 75.2707Z" fill="#5B5B5B"/>
<path d="M18.4923 32.3856C18.2637 32.3856 18.0703 32.2167 18.0527 31.9972C18.0351 31.7777 18.211 31.5751 18.4571 31.5583L27.0707 31.0349C27.3168 31.018 27.5102 31.1868 27.5278 31.4232C27.5453 31.6596 27.3695 31.8453 27.1234 31.8622L18.5098 32.3856C18.5098 32.3856 18.5098 32.3856 18.4923 32.3856Z" fill="#02BF89"/>
<path d="M68.2748 29.7514C68.0463 29.7514 67.8529 29.5826 67.8353 29.3631C67.8178 29.1436 68.0111 28.941 68.2396 28.9241L74.7086 28.6033L90.2658 13.0531C90.4241 12.8843 90.7053 12.8843 90.8635 13.0363C91.0393 13.1882 91.0393 13.4584 90.8811 13.6103L75.0778 29.38L68.2748 29.7177C68.2748 29.7514 68.2748 29.7514 68.2748 29.7514Z" fill="#02BF89"/>
</g>
<defs>
<clipPath id="clip0_318_1917">
<rect width="106" height="82" fill="white" transform="translate(0.5 0.0800781)"/>
</clipPath>
</defs>
</svg>
