<svg width="157" height="44" viewBox="0 0 157 44" fill="none" xmlns="http://www.w3.org/2000/svg">
<path d="M0 16.4915V32.4028H3.14445H6.2889V19.1872V5.97157H12.4468H18.6047V19.1872V32.4028H21.8146H25.0246V16.4915V0.580122H12.5123H0V16.4915Z" fill="#E53130"/>
<path d="M35.9386 8.39106C29.6627 9.60085 26.5445 14.8345 27.383 22.777C28.025 28.7208 30.9336 32.074 36.1482 32.863C41.913 33.744 46.3808 31.4691 48.2936 26.7088C48.5295 26.1302 48.6998 25.6042 48.6605 25.5385C48.6212 25.4859 47.2455 25.4333 45.5946 25.4333H42.5812L42.2668 26.0776C41.5986 27.3795 40.3015 28.0633 38.4541 28.0633C36.4364 28.0633 34.9166 27.1428 34.065 25.3807C33.7112 24.6575 33.292 23.1058 33.2789 22.5009C33.2789 22.2905 33.7374 22.2773 41.1531 22.2773H49.0404L48.9618 20.3311C48.8701 18.122 48.5426 16.3467 47.9006 14.6241C47.2848 12.9935 46.7214 12.0993 45.5291 10.9027C44.3238 9.67974 43.1839 9.0091 41.5724 8.5883C40.2491 8.23326 37.3011 8.12806 35.9386 8.39106ZM39.8953 13.4932C41.2579 14.0192 42.3323 15.3999 42.6991 17.1226C42.9874 18.4639 43.4852 18.3324 38.179 18.3324H33.5016L33.5802 17.6354C33.7112 16.373 34.1567 15.4525 35.1 14.5058C36.122 13.4801 36.7116 13.2302 38.1528 13.2171C38.8865 13.2039 39.345 13.2828 39.8953 13.4932Z" fill="#E53130"/>
<path d="M61.736 8.4699C60.1245 8.90385 58.906 9.73229 57.8709 11.0999L57.5172 11.5601V10.4161C57.5172 9.79804 57.4779 9.19314 57.4386 9.07479C57.3731 8.89069 56.98 8.8644 54.4907 8.8644H51.6213V26.2222V43.5801H54.6348H57.6482V36.5317V29.4966L58.2902 30.2724C59.1156 31.2718 60.583 32.258 61.8539 32.6788C62.6793 32.955 63.0593 32.9944 64.5267 32.9944C66.0334 32.9813 66.3479 32.9418 67.2781 32.6131C70.475 31.4953 72.5057 28.8391 73.4491 24.5128C73.8028 22.9348 73.8028 18.74 73.4622 17.1751C72.4664 12.6253 70.2129 9.77174 66.754 8.654C65.2866 8.1806 63.0986 8.08855 61.736 8.4699ZM64.1729 13.6247C65.0508 13.9534 66.0727 14.9528 66.6623 16.0574C67.3305 17.3198 67.6056 18.6348 67.6056 20.5152C67.6056 24.8941 66.1775 27.2611 63.2689 27.6687C62.1815 27.8265 60.9368 27.6293 60.0983 27.169C58.3164 26.2091 57.3862 23.829 57.3862 20.3048C57.3862 17.7669 57.8578 16.2415 59.0501 14.9133C60.4389 13.3617 62.2339 12.9146 64.1729 13.6247Z" fill="#E53130"/>
<path d="M143.898 8.39107C141.304 8.89077 139.142 10.1006 137.766 11.8626C135.971 14.1244 135.094 17.3987 135.251 21.2254C135.421 25.1703 136.378 27.9844 138.199 29.9306C140.112 31.9557 142.431 32.8761 146.021 33.0208C148.274 33.1128 149.807 32.8104 151.589 31.9294C152.65 31.4034 153.017 31.1272 154.013 30.1147C154.851 29.2731 155.349 28.6419 155.69 27.9712C156.096 27.1954 156.699 25.6963 156.699 25.4728C156.699 25.4596 155.31 25.4333 153.62 25.4333H150.541L150.266 26.0251C149.65 27.3269 148.261 28.0633 146.414 28.0633C144.972 28.0633 144.042 27.7214 143.125 26.8667C142.116 25.8936 141.54 24.6443 141.304 22.9085L141.225 22.2773L149.113 22.251L157 22.2116L156.974 20.8966C156.921 18.0562 156.41 15.6761 155.362 13.4801C154.799 12.2966 154.563 11.9678 153.58 10.9816C152.283 9.67976 151.17 9.02226 149.532 8.58832C148.209 8.23327 145.261 8.12807 143.898 8.39107ZM147.855 13.4801C149.231 13.9929 150.279 15.3605 150.659 17.1226C150.947 18.4639 151.445 18.3324 146.152 18.3324H141.5V17.9905C141.5 17.425 141.894 16.0706 142.221 15.492C142.653 14.7425 143.872 13.6642 144.54 13.4275C145.392 13.125 146.977 13.1513 147.855 13.4801Z" fill="#E53130"/>
<path d="M76.1221 20.6337V32.416L85.0051 32.3766L93.8751 32.324L95.0281 31.9689C96.5872 31.4824 97.3864 31.0616 98.225 30.2726C99.522 29.0233 100.033 27.5111 99.9413 25.1573C99.8889 23.8817 99.8365 23.6713 99.4172 22.7903C98.7359 21.3833 97.845 20.5285 96.4693 19.9631L95.7094 19.6606L96.2335 19.4502C98.3036 18.5823 99.4172 16.6756 99.2731 14.2034C99.129 11.5866 98.0677 10.2322 95.4474 9.29852L94.3992 8.93033L85.2672 8.89088L76.1221 8.85143V20.6337ZM91.5168 13.2172C92.6042 13.5196 93.2069 14.2297 93.3511 15.3869C93.5083 16.6099 92.6829 17.6355 91.3072 17.9248C90.9141 18.0169 88.8964 18.0695 86.276 18.0695H81.8869V15.571V13.0725H86.4464C89.3288 13.0725 91.1892 13.1251 91.5168 13.2172ZM92.3029 21.9224C92.958 22.2249 93.3773 22.6062 93.6786 23.1979C94.242 24.3025 94.111 25.92 93.4035 26.7879C92.4601 27.9319 91.5954 28.0897 86.145 28.0371L81.9524 27.9977L81.9131 24.8022L81.8869 21.6068L86.8263 21.6463C91.2547 21.6857 91.8312 21.712 92.3029 21.9224Z" fill="#E53130"/>
<path d="M102.588 20.6337V32.4028H110.056C118.494 32.4028 118.782 32.3765 120.616 31.4823C123.132 30.2594 124.468 27.7741 124.468 24.3946C124.455 21.7251 123.865 20.0682 122.411 18.6086C121.468 17.675 120.433 17.0832 119.031 16.6756C118.363 16.4783 117.498 16.4389 113.371 16.3994L108.484 16.3337V12.5991V8.86455H105.536H102.588V20.6337ZM117.118 21.0413C118.467 21.4358 119.28 22.6719 119.28 24.3157C119.28 25.7884 118.677 26.8667 117.563 27.4322C116.948 27.7215 116.83 27.7346 112.716 27.7741L108.484 27.8135V24.3288V20.8309H112.454C115.677 20.8309 116.555 20.8704 117.118 21.0413Z" fill="#E53130"/>
<path d="M126.433 20.6337V32.4028H129.447H132.46V20.6337V8.86455H129.447H126.433V20.6337Z" fill="#E53130"/>
</svg>
