<svg width="105" height="96" viewBox="0 0 105 96" fill="none" xmlns="http://www.w3.org/2000/svg">
<g clip-path="url(#clip0_320_1993)">
<path d="M5.01518 80.6875H-0.0483398V92.5534H2.08971V88.7412H5.0311C7.85441 88.7412 9.33108 86.7198 9.33108 84.7207C9.33108 82.7216 7.84911 80.6875 5.01518 80.6875ZM2.08971 82.5741H4.78167C6.50246 82.5741 7.11542 83.6838 7.11542 84.7227C7.11542 85.7139 6.50379 86.8714 4.78167 86.8714H2.08971V82.5741Z" fill="black"/>
<path d="M15.7744 83.4238C12.9318 83.4238 11.022 85.2875 11.022 88.0608C11.022 90.7821 12.9763 92.6822 15.7744 92.6822C18.5725 92.6822 20.5108 90.7821 20.5108 88.0608C20.5108 85.3394 18.5632 83.4238 15.7744 83.4238ZM15.7744 90.7949C14.1677 90.7949 13.1295 89.7223 13.1295 88.0608C13.1295 86.3804 14.1677 85.2983 15.7744 85.2983C17.3811 85.2983 18.4199 86.3837 18.4199 88.0608C18.4199 89.7236 17.3811 90.7949 15.7744 90.7949Z" fill="black"/>
<path d="M29.4995 89.7695C28.8753 90.4601 28.0978 90.8111 27.187 90.8111C25.5239 90.8111 24.4486 89.7196 24.4486 88.0291C24.4486 86.3588 25.5179 85.2801 27.1717 85.2801C28.3492 85.2801 29.0292 85.8326 29.4935 86.3143L29.796 86.629L31.0418 85.1217L30.7765 84.8644C29.7887 83.8948 28.5947 83.4238 27.1279 83.4238C24.2575 83.4238 22.3291 85.2814 22.3291 88.0453C22.3291 90.8091 24.2642 92.666 27.1439 92.666C28.6537 92.666 29.7894 92.2173 30.8249 91.212L31.0956 90.9486L29.798 89.4413L29.4995 89.7695Z" fill="black"/>
<path d="M33.1316 92.556H35.1927V85.2948H39.019V92.556H41.0795V83.5342H33.1316V92.556Z" fill="black"/>
<path d="M50.8581 84.4718C50.1457 83.7852 49.1334 83.4072 47.9426 83.4072C45.2772 83.4072 43.4861 85.2837 43.4861 88.0765C43.4861 90.8309 45.252 92.6818 47.8803 92.6818C49.1048 92.6818 50.141 92.2775 50.8601 91.5363L50.9265 92.5551H52.8542V83.5332H50.9019L50.8581 84.4718ZM48.2232 90.7945C46.6351 90.7945 45.6095 89.7219 45.6095 88.0603C45.6095 86.3543 46.6106 85.2978 48.2232 85.2978C49.7198 85.2978 50.8057 86.4608 50.8057 88.0603C50.8057 89.645 49.7198 90.7945 48.2232 90.7945Z" fill="black"/>
<path d="M54.7285 85.3264H57.656V92.556H59.7171V85.3264H62.6286V83.5342H54.7285V85.3264Z" fill="black"/>
<path d="M69.5082 83.4238C68.3247 83.4238 67.2826 83.8193 66.5569 84.516L66.4719 83.5343H64.6145V95.2446H66.6942V91.7409C67.4153 92.3392 68.3897 92.6687 69.4956 92.6687C72.1796 92.6687 73.9826 90.8118 73.9826 88.048C73.9826 85.2841 72.1836 83.4238 69.5082 83.4238ZM69.2747 85.2949C70.8535 85.2949 71.8731 86.3729 71.8731 88.0453C71.8731 89.7176 70.8469 90.7949 69.2594 90.7949C67.7536 90.7949 66.661 89.6387 66.661 88.0453C66.661 86.4518 67.7602 85.2949 69.2747 85.2949Z" fill="black"/>
<path d="M78.3141 89.2595C78.3234 88.8842 78.3307 88.5049 78.338 88.1289V83.5344H76.324V92.5536H78.0945L82.3739 86.776C82.368 87.0691 82.3646 87.3574 82.3607 87.6418L82.35 92.5536H84.3495V83.5317H82.5955L78.3141 89.2595Z" fill="black"/>
<path d="M91.4624 83.4238C88.6205 83.4238 86.71 85.2875 86.71 88.0608C86.71 90.7821 88.6649 92.6822 91.4624 92.6822C94.2598 92.6822 96.1995 90.7821 96.1995 88.0608C96.1995 85.3394 94.2518 83.4238 91.4624 83.4238ZM91.4624 90.7949C89.8557 90.7949 88.8182 89.7223 88.8182 88.0608C88.8182 86.3804 89.8557 85.2983 91.4624 85.2983C93.069 85.2983 94.1079 86.3837 94.1079 88.0608C94.1079 89.7236 93.0697 90.7949 91.4624 90.7949Z" fill="black"/>
<path d="M97.376 83.5342V85.3264H100.304V92.556H102.365V85.3264H105.277V83.5342H97.376Z" fill="black"/>
<path d="M40.3836 42.3522C37.8553 43.8081 35.7525 45.919 34.2894 48.4697C32.8264 51.0203 32.0556 53.9195 32.0557 56.8714V65.5126L45.1155 73.2213C45.2225 73.2854 45.3443 73.3197 45.4686 73.3207C45.5928 73.3218 45.7152 73.2895 45.8232 73.2272C45.9313 73.1648 46.0213 73.0747 46.084 72.9657C46.1468 72.8568 46.1802 72.733 46.1808 72.6068L46.2518 58.5653C46.2536 58.1973 46.3511 57.8362 46.5345 57.5188C46.7179 57.2013 46.9806 56.9387 47.296 56.7576L60.2211 49.3325C64.1523 47.0742 67.4227 43.7964 69.6983 39.8339C71.9738 35.8715 73.1728 31.3665 73.1728 26.7792V23.4966L40.3836 42.3522Z" fill="url(#paint0_linear_320_1993)"/>
<path d="M68.0808 15.4588L43.7981 1.66992C43.0982 3.43859 43.0166 5.60612 41.4404 6.74481C42.2225 7.46507 42.9556 8.25137 43.5738 9.23778C44.8187 11.2442 45.8264 13.3927 46.5763 15.6387C47.3212 17.8453 47.8718 20.0654 48.1173 22.3643C48.1896 22.3938 48.2598 22.4283 48.3276 22.4674L65.2648 32.2257C68.7952 34.2591 73.1728 31.6698 73.1728 27.547V23.4969C73.1728 19.8215 71.2278 17.2719 68.0808 15.4588Z" fill="url(#paint1_linear_320_1993)"/>
<path d="M32.0557 65.5126L60.2211 49.3325C64.1523 47.0742 67.4227 43.7964 69.6983 39.8339C71.9738 35.8715 73.1728 31.3665 73.1728 26.7792V23.4966L40.3836 42.3522C37.8553 43.8081 35.7525 45.919 34.2894 48.4697C32.8264 51.0203 32.0556 53.9195 32.0557 56.8714V65.5126Z" fill="url(#paint2_linear_320_1993)"/>
<path d="M59.4582 28.7375C59.461 23.2227 58.0164 17.8068 55.2731 13.0476C52.5299 8.28846 48.5872 4.35802 43.8511 1.6611C38.5706 -1.34597 32.0557 2.53027 32.0557 8.67916V12.4267L32.0623 12.4307L32.0722 26.8361C32.0719 27.0576 32.131 27.275 32.2432 27.465C32.3554 27.6549 32.5165 27.8102 32.7091 27.9141L44.9655 34.9834C45.1199 35.0724 45.2946 35.1185 45.472 35.1169C45.6495 35.1153 45.8234 35.0661 45.9762 34.9744C46.1289 34.8826 46.2551 34.7515 46.3419 34.5943C46.4288 34.4371 46.4732 34.2594 46.4707 34.0792L46.3288 23.4874C46.3274 23.2893 46.3772 23.0942 46.473 22.9216C46.5689 22.749 46.7075 22.6048 46.8752 22.5035C47.0428 22.4021 47.2337 22.3471 47.4287 22.3438C47.6238 22.3405 47.8163 22.3892 47.9872 22.4848L59.4635 28.8823L59.4582 28.7375Z" fill="url(#paint3_linear_320_1993)"/>
<path opacity="0.25" d="M73.1726 23.497L61.7188 30.1842L59.4634 28.8993L72.7441 20.688C72.7441 20.688 73.1514 21.8125 73.1726 23.497Z" fill="#1E1E1E"/>
<path opacity="0.25" d="M32.0557 65.5128L47.1752 56.8271C47.1752 56.8271 46.5663 57.2476 46.3586 57.8688C46.1835 58.3943 46.2439 60.0849 46.2439 60.0849L34.7085 67.0787" fill="#1E1E1E"/>
<path d="M4.97531 80.7866H-0.0888672V92.6559H2.04984V88.843H4.99124C7.81455 88.843 9.29188 86.8216 9.29188 84.8219C9.29188 82.8221 7.80924 80.7866 4.97531 80.7866ZM2.04984 82.6732H4.74181C6.4626 82.6732 7.07555 83.7829 7.07555 84.8212C7.07555 85.8137 6.46459 86.9705 4.74181 86.9705H2.04984V82.6732Z" fill="black"/>
<path d="M15.7353 83.5249C12.8928 83.5249 10.9829 85.3886 10.9829 88.1625C10.9829 90.8839 12.9372 92.7839 15.7353 92.7839C18.5334 92.7839 20.4724 90.8839 20.4724 88.1625C20.4724 85.4411 18.5248 83.5249 15.7353 83.5249ZM15.7353 90.8967C14.1286 90.8967 13.0904 89.824 13.0904 88.1625C13.0904 86.4821 14.1286 85.4 15.7353 85.4C17.342 85.4 18.3808 86.4855 18.3808 88.1625C18.3808 89.824 17.3427 90.8967 15.7353 90.8967Z" fill="black"/>
<path d="M29.4617 89.8692C28.8381 90.5598 28.06 90.9108 27.1492 90.9108C25.4861 90.9108 24.4108 89.8193 24.4108 88.1288C24.4108 86.4578 25.4795 85.3791 27.1306 85.3791C28.3088 85.3791 28.9881 85.9316 29.4524 86.4134L29.7543 86.7287L31.0047 85.2215L30.7394 84.9634C29.7523 83.9965 28.5575 83.5249 27.0908 83.5249C24.2204 83.5249 22.292 85.3825 22.292 88.147C22.292 90.9115 24.2264 92.7684 27.1061 92.7684C28.6166 92.7684 29.7523 92.319 30.7885 91.3138L31.0591 91.051L29.7616 89.5431L29.4617 89.8692Z" fill="black"/>
<path d="M33.0945 92.6557H35.1556V85.3944H38.9819V92.6557H41.043V83.6338H33.0945V92.6557Z" fill="black"/>
<path d="M50.8223 84.5719C50.1099 83.8853 49.0976 83.5073 47.9035 83.5073C45.2374 83.5073 43.4463 85.3838 43.4463 88.1766C43.4463 90.931 45.2122 92.7819 47.8411 92.7819C49.0651 92.7819 50.1019 92.3776 50.821 91.6364L50.8873 92.6552H52.8158V83.6333H50.8661L50.8223 84.5719ZM48.1861 90.8946C46.598 90.8946 45.5717 89.822 45.5717 88.1604C45.5717 86.4544 46.5734 85.3979 48.1861 85.3979C49.6827 85.3979 50.7686 86.5609 50.7686 88.1604C50.7686 89.7445 49.6827 90.8946 48.1861 90.8946Z" fill="black"/>
<path d="M54.6924 85.426H57.6205V92.6557H59.6816V85.426H62.5938V83.6338H54.6924V85.426Z" fill="black"/>
<path d="M69.4744 83.5249C68.2903 83.5249 67.2482 83.9211 66.5224 84.6178L66.4375 83.6354H64.5801V95.347H66.6564V91.8433C67.3775 92.4423 68.3527 92.7718 69.4579 92.7718C72.1425 92.7718 73.9456 90.9142 73.9456 88.1497C73.9456 85.3852 72.1485 83.5283 69.4738 83.5283M69.2396 85.4C70.8184 85.4 71.838 86.4781 71.838 88.1497C71.838 89.8213 70.8118 90.9001 69.2243 90.9001C67.7185 90.9001 66.6259 89.7439 66.6259 88.1497C66.6259 86.5555 67.7251 85.4 69.2396 85.4Z" fill="black"/>
<path d="M78.2801 89.3591C78.2894 88.9838 78.2967 88.6038 78.304 88.2285V83.6333H76.2893V92.6558H78.0612L82.3406 86.8775C82.3346 87.1713 82.3313 87.4597 82.3273 87.744L82.3167 92.6558H84.3154V83.6333H82.5615L78.2801 89.3591Z" fill="black"/>
<path d="M91.4301 83.5249C88.5876 83.5249 86.6777 85.3886 86.6777 88.1625C86.6777 90.8839 88.632 92.7839 91.4301 92.7839C94.2282 92.7839 96.1679 90.8839 96.1679 88.1625C96.1679 85.4411 94.2196 83.5249 91.4301 83.5249ZM91.4301 90.8967C89.8234 90.8967 88.7853 89.824 88.7853 88.1625C88.7853 86.4821 89.8234 85.4 91.4301 85.4C93.0368 85.4 94.075 86.4855 94.075 88.1625C94.075 89.824 93.0375 90.8967 91.4301 90.8967Z" fill="black"/>
<path d="M97.344 83.6333V85.4262H100.271V92.6558H102.333V85.4262H105.245V83.6333H97.344Z" fill="black"/>
</g>
<defs>
<linearGradient id="paint0_linear_320_1993" x1="32.0557" y1="48.4095" x2="73.1728" y2="48.4095" gradientUnits="userSpaceOnUse">
<stop stop-color="#B0B0B0"/>
<stop offset="0.57" stop-color="#CACACA"/>
<stop offset="1" stop-color="#D8D8D8"/>
</linearGradient>
<linearGradient id="paint1_linear_320_1993" x1="31.6663" y1="26.9157" x2="69.6712" y2="12.5517" gradientUnits="userSpaceOnUse">
<stop stop-color="#CF151A"/>
<stop offset="0.23" stop-color="#B41518"/>
<stop offset="0.55" stop-color="#931615"/>
<stop offset="0.82" stop-color="#7F1613"/>
<stop offset="1" stop-color="#781612"/>
</linearGradient>
<linearGradient id="paint2_linear_320_1993" x1="73.1728" y1="44.5049" x2="32.0557" y2="44.5049" gradientUnits="userSpaceOnUse">
<stop stop-color="#DE1A12"/>
<stop offset="0.17" stop-color="#D81A12"/>
<stop offset="0.39" stop-color="#C61912"/>
<stop offset="0.66" stop-color="#A81811"/>
<stop offset="0.95" stop-color="#801610"/>
<stop offset="1" stop-color="#781610"/>
</linearGradient>
<linearGradient id="paint3_linear_320_1993" x1="38.5554" y1="31.5222" x2="52.2366" y2="6.18819" gradientUnits="userSpaceOnUse">
<stop stop-color="#B0B0B0"/>
<stop offset="0.57" stop-color="#CACACA"/>
<stop offset="1" stop-color="#D8D8D8"/>
</linearGradient>
<clipPath id="clip0_320_1993">
<rect width="105" height="95" fill="white" transform="translate(0 0.580078)"/>
</clipPath>
</defs>
</svg>
