<svg width="215" height="34" viewBox="0 0 215 34" fill="none" xmlns="http://www.w3.org/2000/svg">
<g clip-path="url(#clip0_320_1979)">
<path d="M11.657 8.77148C16.1783 8.77148 19.8382 12.1224 19.8382 16.6897C19.8382 21.2571 16.1123 24.6524 11.8928 24.6524C9.91194 24.6524 7.99398 24.087 6.55394 22.4322H6.38101V33.9618H3.36572V17.9538C3.36572 12.3637 6.55394 8.77466 11.657 8.77466V8.77148ZM11.613 21.9749C14.6062 21.9749 16.6531 19.5832 16.6531 16.6897C16.6531 13.7962 14.6502 11.449 11.613 11.449C8.57566 11.449 6.48791 13.7994 6.48791 16.6706C6.48791 19.5419 8.59767 21.978 11.613 21.978V21.9749Z" fill="#713DD3"/>
<path d="M22.6367 16.7085C22.6367 12.1412 26.4255 8.76807 30.8839 8.76807C35.3424 8.76807 39.1312 12.1412 39.1312 16.7085C39.1312 21.2759 35.3424 24.649 30.8839 24.649C26.4255 24.649 22.6367 21.2759 22.6367 16.7085ZM30.8839 21.9746C33.8992 21.9746 35.943 19.6243 35.943 16.7117C35.943 13.7991 33.8961 11.4488 30.8839 11.4488C27.8718 11.4488 25.8249 13.7769 25.8249 16.7117C25.8249 19.6465 27.8718 21.9746 30.8839 21.9746Z" fill="#713DD3"/>
<path d="M50.2647 24.649C45.5264 24.649 41.9326 21.2981 41.9326 16.7085C41.9326 12.1189 45.4415 8.76807 50.1578 8.76807C53.7768 8.76807 57.1568 10.7468 58.0183 14.5106H54.9182C54.1635 12.4874 52.3556 11.4424 50.2459 11.4424C47.0577 11.4424 45.1208 13.8341 45.1208 16.7498C45.1208 19.6655 47.1237 21.9715 50.3088 21.9715C52.3745 21.9715 54.2484 21.0154 54.981 18.8175H58.1032C56.9839 22.8195 53.7548 24.6458 50.2647 24.6458V24.649Z" fill="#713DD3"/>
<path d="M69.2777 22.4515L64.3256 11.9892H64.2407V24.3223H61.3354V9.0957H65.9637L70.8718 19.5136H70.9567L75.8648 9.0957H80.493V24.3223H77.5847V11.9892H77.4998L72.5477 22.4515H69.2745H69.2777Z" fill="#713DD3"/>
<path d="M83.7251 16.7085C83.7251 12.1412 87.5138 8.76807 91.9723 8.76807C96.4308 8.76807 100.22 12.1412 100.22 16.7085C100.22 21.2759 96.4308 24.649 91.9723 24.649C87.5138 24.649 83.7251 21.2759 83.7251 16.7085ZM91.9723 21.9746C94.9876 21.9746 97.0313 19.6243 97.0313 16.7117C97.0313 13.7991 94.9845 11.4488 91.9723 11.4488C88.9602 11.4488 86.9133 13.7769 86.9133 16.7117C86.9133 19.6465 88.9602 21.9746 91.9723 21.9746Z" fill="#713DD3"/>
<path d="M101.748 24.4523V21.2984H101.814C102.395 21.2984 103.106 21.038 103.537 20.5361C104.096 19.9041 104.376 18.7733 104.678 17.1217L105.109 14.6856C105.605 11.881 106.596 9.02881 110.771 9.02881H116.651V24.3189H113.636V11.8556H111.29C108.945 11.8556 108.448 12.5067 107.888 15.7496L107.501 18.0333C107.156 20.12 106.64 21.9273 105.565 23.0802C104.747 23.9505 103.606 24.4492 102.078 24.4492H101.754L101.748 24.4523Z" fill="#713DD3"/>
<path d="M119.987 16.7085C119.987 12.1412 123.776 8.76807 128.235 8.76807C132.693 8.76807 136.482 12.1412 136.482 16.7085C136.482 21.2759 132.693 24.649 128.235 24.649C123.776 24.649 119.987 21.2759 119.987 16.7085ZM128.235 21.9746C131.25 21.9746 133.294 19.6243 133.294 16.7117C133.294 13.7991 131.247 11.4488 128.235 11.4488C125.222 11.4488 123.176 13.7769 123.176 16.7117C123.176 19.6465 125.222 21.9746 128.235 21.9746Z" fill="#713DD3"/>
<path d="M139.968 28.0192H137.06V21.4922H139.019C139.88 20.5139 140.333 19.056 140.742 17.2932L141.386 14.4664C142.012 11.7476 143.172 9.02881 146.898 9.02881H152.756V21.4922H154.932V28.0192H152.023V24.3221H139.965V28.0192H139.968ZM149.788 21.5588V11.8143H146.967C145.138 11.8143 144.512 13.2944 144.147 14.8603L143.481 17.7982C143.116 19.4308 142.556 20.7775 141.993 21.3429V21.5588H149.788Z" fill="#713DD3"/>
<path d="M165.465 24.6489C160.664 24.6489 157.174 21.2981 157.174 16.7085C157.174 12.1189 160.682 8.76804 165.355 8.76804C168.974 8.76804 173.322 11.1597 173.322 16.9467V17.5788H160.186C160.51 20.1229 162.468 21.9714 165.44 21.9714C167.207 21.9714 169.316 21.3203 169.898 19.7735H172.998C172.052 23.1244 168.54 24.6458 165.462 24.6458L165.465 24.6489ZM160.23 3.52734H163.352V6.68129H160.23V3.52734ZM170.178 15.2506C169.703 12.9447 167.939 11.4011 165.311 11.4011C162.682 11.4011 160.874 13.0527 160.315 15.2506H170.178ZM167.015 3.52734H170.137V6.68129H167.015V3.52734Z" fill="#713DD3"/>
<path d="M187.534 9.0957V15.1432H190.053L193.606 9.0957H196.923L192.508 16.3596L197.287 24.3223H193.907L190.097 17.9064H187.534V24.3223H184.692V17.9064H182.129L178.318 24.3223H174.938L179.718 16.3596L175.303 9.0957H178.62L182.173 15.1432H184.692V9.0957H187.534Z" fill="#713DD3"/>
<path d="M199.397 17.4713L199.353 9.0957H202.368L202.39 13.4248H202.475C203.745 11.859 205.362 11.0967 207.298 11.0967C211.002 11.0967 213.996 13.8822 213.996 17.773C213.996 21.6639 210.939 24.6463 206.739 24.6463C202.538 24.6463 199.419 21.6226 199.397 17.4681V17.4713ZM206.676 21.9751C209.065 21.9751 210.81 20.279 210.81 17.9064C210.81 15.5338 209.065 13.7965 206.676 13.7965C204.286 13.7965 202.563 15.537 202.563 17.9064C202.563 20.2759 204.308 21.9751 206.676 21.9751Z" fill="#713DD3"/>
</g>
<defs>
<clipPath id="clip0_320_1979">
<rect width="214" height="33" fill="white" transform="translate(0.5 0.580078)"/>
</clipPath>
</defs>
</svg>
