<svg width="48" height="49" viewBox="0 0 48 49" fill="none" xmlns="http://www.w3.org/2000/svg">
<path d="M14 22.5801V14.5801C14 11.9279 15.0536 9.38437 16.9289 7.50901C18.8043 5.63365 21.3478 4.58008 24 4.58008C26.6522 4.58008 29.1957 5.63365 31.0711 7.50901C32.9464 9.38437 34 11.9279 34 14.5801V22.5801M10 22.5801H38C40.2091 22.5801 42 24.3709 42 26.5801V40.5801C42 42.7892 40.2091 44.5801 38 44.5801H10C7.79086 44.5801 6 42.7892 6 40.5801V26.5801C6 24.3709 7.79086 22.5801 10 22.5801Z" stroke="#8D96EA" stroke-width="3.5" stroke-linecap="round" stroke-linejoin="round"/>
</svg>
