<svg width="41" height="41" viewBox="0 0 41 41" fill="none" xmlns="http://www.w3.org/2000/svg">
<path d="M7.19145 1H33.759C37.198 1 39.9523 3.74852 40 7.19475V33.8086C40 37.2003 37.2003 40 33.8086 40H7.19145C3.79969 40 1 37.2003 1 33.8086V7.19145C1 3.79969 3.79969 1 7.19145 1ZM28.8519 31.1859C32.2507 31.1859 35.0025 28.4341 35.0025 25.0353V15.8656C35.0025 12.4667 32.2507 9.71499 28.8519 9.71499C27.634 9.71499 26.6667 10.6823 26.6667 11.9002C26.6667 13.1181 27.634 14.0855 28.8519 14.0855C29.8645 14.0855 30.6815 14.9025 30.6815 15.9151V24.9857C30.6815 25.9983 29.8645 26.8154 28.8519 26.8154H21.9126H19.0874C17.8695 26.8154 16.9021 27.7827 16.9021 29.0006C16.9021 30.2185 17.8695 31.1859 19.0874 31.1859H21.9126H28.8519ZM12.0985 9.76456C8.69969 9.76456 5.94796 12.5163 5.94796 15.9151V25.0849C5.94796 28.4837 8.69969 31.2354 12.0985 31.2354C13.3164 31.2354 14.2838 30.2681 14.2838 29.0502C14.2838 27.8323 13.3164 26.8649 12.0985 26.8649C11.0859 26.8649 10.2689 26.0479 10.2689 25.0353V15.8656C10.2689 14.853 11.0859 14.0359 12.0985 14.0359H19.0378H21.8631C22.9806 14.0359 24.0483 13.216 24.0483 11.9498C24.0483 10.7319 23.081 9.76456 21.8631 9.76456H19.0378H12.0985Z" fill="black" stroke="black"/>
</svg>
