<svg width="226" height="165" viewBox="0 0 226 165" fill="none" xmlns="http://www.w3.org/2000/svg">
<path d="M80.9786 89.2611L81.1552 88.2988C83.9008 89.526 85.9403 89.3759 88.1915 89.3759C89.2686 95.1497 94.3715 99.4846 100.392 99.4846H142.538C148.559 99.4846 153.698 95.1852 154.766 89.2613L166.243 25.2287C167.62 17.6009 161.731 10.6177 154.024 10.6177H152.056C150.97 4.8791 145.938 0.509009 139.855 0.509009L97.6907 0.500181C91.6696 0.500181 86.5315 4.79953 85.4632 10.7234L85.2866 11.6769C82.5675 10.4586 80.5192 10.6087 78.2591 10.6087C77.1732 4.86128 72.1323 0.5 66.0583 0.5H23.9032C17.8821 0.5 12.7441 4.79935 11.6848 10.7233L0.19904 74.7649C-1.16937 82.3839 4.69276 89.3759 12.4177 89.3759H14.3953C15.4812 95.1497 20.5753 99.4846 26.5961 99.4846H68.7421C74.772 99.4846 79.9103 95.185 80.9786 89.2611ZM97.6908 3.59045H139.837C144.754 3.59045 148.754 7.38671 149.133 12.1541C149.133 12.2159 149.133 12.2601 149.142 12.3219C149.257 13.9286 149.928 9.47033 137.542 78.5965C136.738 83.0462 132.88 86.2772 128.36 86.2772H86.2049C80.3782 86.2772 75.9992 81.0067 77.0233 75.3033C77.4647 72.8225 88.4738 11.4108 88.5002 11.2707C89.3036 6.82105 93.1618 3.59045 97.6908 3.59045ZM3.23521 75.3029L14.7121 11.2702C15.5067 6.82056 19.3647 3.58955 23.8937 3.58955H66.0488C71.8579 3.58955 76.2544 8.84243 75.2304 14.5634L63.7534 78.596C62.9589 83.0457 59.1008 86.2767 54.5718 86.2767L12.4168 86.2855C6.59008 86.2855 2.21117 81.0062 3.23521 75.3029ZM213.581 118.491H211.612C210.526 112.726 205.468 108.382 199.411 108.382H157.265C151.244 108.382 146.106 112.681 145.038 118.605L144.861 119.568C142.151 118.349 140.094 118.491 137.834 118.491C136.757 112.743 131.698 108.382 125.633 108.382H83.478C77.457 108.382 72.3189 112.681 71.2505 118.605L59.7736 182.647C58.4052 190.266 64.2673 197.258 71.9921 197.258H73.9697C75.0467 203.032 80.1584 207.366 86.1705 207.366H128.326C134.347 207.366 139.485 203.067 140.544 197.143L140.712 196.181C143.457 197.408 145.497 197.258 147.748 197.258C148.825 203.032 153.928 207.367 159.949 207.367H202.095C208.116 207.367 213.254 203.067 214.322 197.143L225.799 133.111C227.177 125.483 221.288 118.491 213.581 118.491ZM62.7997 183.195L74.2766 119.162C75.0712 114.712 78.9292 111.481 83.4582 111.481H125.613C131.422 111.481 135.819 116.743 134.795 122.455L123.318 186.488C122.523 190.937 118.665 194.168 114.136 194.168H71.9813C66.1986 194.168 61.7668 188.933 62.7997 183.195ZM140.454 192.509H140.445C137.487 190.434 135.925 186.85 136.578 183.195L148.055 119.162C148.859 114.712 152.717 111.481 157.237 111.481H199.383C204.097 111.481 208.291 115.022 208.688 120.213C208.803 121.82 209.491 117.299 197.087 186.487C196.284 190.937 192.426 194.168 187.906 194.168H148.971C146.04 194.168 143.076 194.477 140.454 192.509Z" fill="black"/>
<path d="M80.9786 89.2611L81.1552 88.2988C83.9008 89.526 85.9403 89.3759 88.1915 89.3759C89.2686 95.1497 94.3715 99.4846 100.392 99.4846H142.538C148.559 99.4846 153.698 95.1852 154.766 89.2613L166.243 25.2287C167.62 17.6009 161.731 10.6177 154.024 10.6177H152.056C150.97 4.8791 145.938 0.509009 139.855 0.509009L97.6907 0.500181C91.6696 0.500181 86.5315 4.79953 85.4632 10.7234L85.2866 11.6769C82.5675 10.4586 80.5192 10.6087 78.2591 10.6087C77.1732 4.86128 72.1323 0.5 66.0583 0.5H23.9032C17.8821 0.5 12.7441 4.79935 11.6848 10.7233L0.19904 74.7649C-1.16937 82.3839 4.69276 89.3759 12.4177 89.3759H14.3953C15.4812 95.1497 20.5753 99.4846 26.5961 99.4846H68.7421C74.772 99.4846 79.9103 95.185 80.9786 89.2611ZM97.6908 3.59045H139.837C144.754 3.59045 148.754 7.38671 149.133 12.1541C149.133 12.2159 149.133 12.2601 149.142 12.3219C149.257 13.9286 149.928 9.47033 137.542 78.5965C136.738 83.0462 132.88 86.2772 128.36 86.2772H86.2049C80.3782 86.2772 75.9992 81.0067 77.0233 75.3033C77.4647 72.8225 88.4738 11.4108 88.5002 11.2707C89.3036 6.82105 93.1618 3.59045 97.6908 3.59045ZM3.23521 75.3029L14.7121 11.2702C15.5067 6.82056 19.3647 3.58955 23.8937 3.58955H66.0488C71.8579 3.58955 76.2544 8.84243 75.2304 14.5634L63.7534 78.596C62.9589 83.0457 59.1008 86.2767 54.5718 86.2767L12.4168 86.2855C6.59008 86.2855 2.21117 81.0062 3.23521 75.3029ZM213.581 118.491H211.612C210.526 112.726 205.468 108.382 199.411 108.382H157.265C151.244 108.382 146.106 112.681 145.038 118.605L144.861 119.568C142.151 118.349 140.094 118.491 137.834 118.491C136.757 112.743 131.698 108.382 125.633 108.382H83.478C77.457 108.382 72.3189 112.681 71.2505 118.605L59.7736 182.647C58.4052 190.266 64.2673 197.258 71.9921 197.258H73.9697C75.0467 203.032 80.1584 207.366 86.1705 207.366H128.326C134.347 207.366 139.485 203.067 140.544 197.143L140.712 196.181C143.457 197.408 145.497 197.258 147.748 197.258C148.825 203.032 153.928 207.367 159.949 207.367H202.095C208.116 207.367 213.254 203.067 214.322 197.143L225.799 133.111C227.177 125.483 221.288 118.491 213.581 118.491ZM62.7997 183.195L74.2766 119.162C75.0712 114.712 78.9292 111.481 83.4582 111.481H125.613C131.422 111.481 135.819 116.743 134.795 122.455L123.318 186.488C122.523 190.937 118.665 194.168 114.136 194.168H71.9813C66.1986 194.168 61.7668 188.933 62.7997 183.195ZM140.454 192.509H140.445C137.487 190.434 135.925 186.85 136.578 183.195L148.055 119.162C148.859 114.712 152.717 111.481 157.237 111.481H199.383C204.097 111.481 208.291 115.022 208.688 120.213C208.803 121.82 209.491 117.299 197.087 186.487C196.284 190.937 192.426 194.168 187.906 194.168H148.971C146.04 194.168 143.076 194.477 140.454 192.509Z" fill="url(#paint0_linear_307_1388)" fill-opacity="0.9"/>
<path d="M156.889 171.859L156.792 172.442H157.382H164.236H164.66L164.73 172.023L166.696 160.14C166.858 160.454 167.047 160.764 167.262 161.072L167.264 161.075C167.788 161.813 168.512 162.414 169.416 162.883L169.418 162.884C170.366 163.37 171.543 163.597 172.92 163.597C174.883 163.597 176.74 163.091 178.483 162.085L178.484 162.085C180.243 161.065 181.738 159.576 182.973 157.635C184.226 155.672 185.075 153.283 185.533 150.481C186.011 147.612 185.95 145.176 185.307 143.2C184.681 141.235 183.651 139.727 182.195 138.721C180.754 137.715 179.074 137.219 177.174 137.219C175.748 137.219 174.481 137.464 173.386 137.971C172.323 138.453 171.419 139.064 170.686 139.808L170.686 139.808C170.39 140.109 170.117 140.41 169.868 140.71L170.3 138.122L170.397 137.54H169.806H163.065H162.641L162.572 137.958L156.889 171.859ZM169.354 156.384C168.776 155.861 168.37 155.115 168.162 154.106C167.963 153.088 167.968 151.872 168.197 150.447C168.426 149.025 168.818 147.806 169.364 146.783C169.91 145.762 170.581 144.994 171.37 144.458C172.161 143.928 173.053 143.661 174.06 143.661C175.103 143.661 175.869 143.939 176.418 144.444C176.988 144.967 177.384 145.709 177.583 146.709C177.782 147.717 177.781 148.906 177.564 150.287C177.325 151.676 176.928 152.891 176.379 153.939C175.832 154.972 175.158 155.764 174.365 156.333C173.587 156.88 172.699 157.155 171.684 157.155C170.677 157.155 169.917 156.884 169.354 156.384Z" stroke="url(#paint1_linear_307_1388)"/>
<path d="M103.862 134.424L103.959 133.842H103.369H96.5308H96.107L96.0376 134.26L90.58 167.134L90.4834 167.716H91.0732H97.9113H98.3351L98.4045 167.298L103.862 134.424Z" stroke="url(#paint2_linear_307_1388)"/>
<path d="M102.484 60.3565L102.486 60.3578C104.244 61.4465 106.434 61.9736 109.026 61.9736C111.12 61.9736 113.027 61.6556 114.74 61.0106L114.741 61.0099C116.457 60.357 117.933 59.4455 119.162 58.2719L119.164 58.2702C120.394 57.085 121.313 55.6959 121.917 54.1071L122.157 53.4755L121.483 53.4305L115.239 53.0131L114.914 52.9914L114.763 53.2794C114.461 53.8535 114.076 54.3289 113.608 54.7118C113.134 55.0882 112.591 55.3753 111.972 55.5716L111.97 55.5723C111.361 55.769 110.701 55.8692 109.989 55.8692C108.88 55.8692 108.007 55.6706 107.342 55.3062C106.694 54.9401 106.237 54.396 105.965 53.6492C105.721 52.9492 105.661 52.0454 105.822 50.914H122.188H122.613L122.682 50.4942L122.987 48.6165C123.336 46.4777 123.346 44.5831 122.999 42.9441C122.664 41.3152 122.033 39.9355 121.094 38.8239C120.161 37.7087 118.989 36.8795 117.587 36.3368C116.205 35.7863 114.67 35.5156 112.99 35.5156C110.495 35.5156 108.219 36.0684 106.17 37.1815C104.129 38.2909 102.433 39.8388 101.084 41.8176L101.083 41.8192C99.744 43.8003 98.8587 46.0949 98.4201 48.6935L98.4201 48.6936C97.9715 51.3522 98.0796 53.694 98.778 55.699L98.778 55.699L98.7791 55.7022C99.49 57.6993 100.727 59.257 102.484 60.3565ZM115.987 45.6764H106.821C107.011 45.1232 107.29 44.598 107.661 44.0994C108.218 43.3534 108.903 42.7526 109.72 42.2945C110.523 41.8442 111.38 41.6201 112.3 41.6201C113.21 41.6201 113.939 41.8221 114.516 42.1973L114.515 42.1973L114.52 42.2003C115.102 42.5694 115.514 43.0768 115.766 43.7377C115.978 44.2953 116.057 44.938 115.987 45.6764Z" stroke="url(#paint3_linear_307_1388)"/>
<path d="M33.0092 46.8204L33.0096 46.8179C33.1708 45.8205 33.4945 44.9902 33.9685 44.3129C34.4593 43.616 35.0561 43.0945 35.7598 42.7378C36.4665 42.3796 37.2445 42.1979 38.102 42.1979C39.3778 42.1979 40.2099 42.5834 40.7191 43.2652L40.7191 43.2652L40.7215 43.2684C41.2494 43.9634 41.4542 44.9873 41.2202 46.4326C41.2202 46.4329 41.2201 46.4332 41.2201 46.4335L38.8126 60.9101L38.7159 61.4921H39.3059H46.1279H46.551L46.621 61.0748L49.2535 45.3762L49.2535 45.3757C49.5839 43.3937 49.5086 41.6512 48.9919 40.1695C48.4767 38.6814 47.5915 37.5228 46.3351 36.7193C45.0908 35.9061 43.5617 35.5156 41.7778 35.5156C39.8193 35.5156 38.0951 35.9502 36.6246 36.839C35.6557 37.4176 34.824 38.1438 34.1306 39.0147L35.8988 28.1988L35.9937 27.6182H35.4053H28.7759H28.3521L28.2827 28.0363L22.8251 60.9102L22.7285 61.4921H23.3184H30.1403H30.5639L30.6335 61.0743L33.0092 46.8204Z" stroke="url(#paint4_linear_307_1388)"/>
<defs>
<linearGradient id="paint0_linear_307_1388" x1="113" y1="0.5" x2="113" y2="64.4964" gradientUnits="userSpaceOnUse">
<stop stop-color="#0D0D0D" stop-opacity="0.5"/>
<stop offset="1" stop-color="#1B1B1B"/>
</linearGradient>
<linearGradient id="paint1_linear_307_1388" x1="171.365" y1="137.719" x2="171.365" y2="171.942" gradientUnits="userSpaceOnUse">
<stop stop-color="#858899" stop-opacity="0.15"/>
<stop offset="1" stop-color="#DDE2FF"/>
</linearGradient>
<linearGradient id="paint2_linear_307_1388" x1="97.2211" y1="134.342" x2="97.2211" y2="167.216" gradientUnits="userSpaceOnUse">
<stop stop-color="#858899" stop-opacity="0.15"/>
<stop offset="1" stop-color="#DDE2FF"/>
</linearGradient>
<linearGradient id="paint3_linear_307_1388" x1="110.703" y1="36.0156" x2="110.703" y2="61.4736" gradientUnits="userSpaceOnUse">
<stop stop-color="#858899" stop-opacity="0.15"/>
<stop offset="1" stop-color="#DDE2FF"/>
</linearGradient>
<linearGradient id="paint4_linear_307_1388" x1="36.1357" y1="28.1182" x2="36.1357" y2="60.9921" gradientUnits="userSpaceOnUse">
<stop stop-color="#858899" stop-opacity="0.15"/>
<stop offset="1" stop-color="#DDE2FF"/>
</linearGradient>
</defs>
</svg>
