<svg width="36" height="34" viewBox="0 0 36 34" fill="none" xmlns="http://www.w3.org/2000/svg">
<g clip-path="url(#clip0_307_1265)">
<g clip-path="url(#clip1_307_1265)">
<path d="M0 9.7775V23.3337C0 25.3473 -1.50783e-08 26.3537 0.179104 27.1899C0.530696 28.8266 1.38501 30.3292 2.63538 31.5101C3.88574 32.691 5.47674 33.4978 7.20971 33.8299C8.09512 34 9.16165 34 11.2937 34H24.4705C27.663 34 29.2588 34 30.5439 33.5805C31.7045 33.2018 32.7588 32.579 33.6271 31.7589C34.4954 30.9389 35.1549 29.9432 35.5558 28.847C36 27.6333 36 26.1262 36 23.1111V9.7775C36 8.59055 36 7.99803 35.9373 7.49917C35.6993 5.60382 34.7929 3.83926 33.3639 2.48966C31.9349 1.14006 30.0665 0.283965 28.0597 0.0592518C27.5315 -7.12032e-09 26.9031 0 25.6463 0H10.2859C7.20162 0 5.6595 0 4.4341 0.452034C3.53741 0.783299 2.72305 1.28632 2.0423 1.92941C1.36154 2.57251 0.829146 3.34176 0.478624 4.18872C3.01567e-08 5.34413 0 6.82255 0 9.7775Z" fill="black"/>
<path d="M25.6599 1.10107H7.87193C4.18764 1.10107 1.20093 4.08778 1.20093 7.77207V25.5601C1.20093 29.2444 4.18764 32.2311 7.87193 32.2311H25.6599C29.3442 32.2311 32.3309 29.2444 32.3309 25.5601V7.77207C32.3309 4.08778 29.3442 1.10107 25.6599 1.10107Z" fill="white"/>
<path d="M23.9069 27.4412V21.4584H23.8122C23.6667 21.769 23.4604 22.0771 23.1936 22.3828C22.9316 22.6836 22.5895 22.9335 22.1673 23.1324C21.75 23.3314 21.2406 23.4309 20.6389 23.4309C19.7897 23.4309 19.0207 23.2125 18.3317 22.7758C17.6475 22.3343 17.104 21.6865 16.7013 20.8325C16.3034 19.9737 16.1045 18.9207 16.1045 17.6737C16.1045 16.3927 16.3107 15.3277 16.7232 14.4785C17.1356 13.6245 17.6839 12.9865 18.3681 12.5643C19.0571 12.1373 19.8116 11.9238 20.6316 11.9238C21.2575 11.9238 21.7792 12.0306 22.1964 12.2441C22.6186 12.4527 22.9582 12.7147 23.2154 13.0301C23.4774 13.3407 23.6764 13.6464 23.8122 13.9472H23.9432V12.0694H27.0001V27.4412H23.9069ZM21.6215 20.9635C22.1212 20.9635 22.5434 20.8276 22.8879 20.5559C23.2372 20.2793 23.5041 19.8936 23.6885 19.3987C23.8777 18.9037 23.9724 18.3239 23.9724 17.6591C23.9724 16.9944 23.8802 16.417 23.6958 15.9269C23.5114 15.4368 23.2445 15.0584 22.8952 14.7915C22.5458 14.5246 22.1212 14.3912 21.6215 14.3912C21.112 14.3912 20.6826 14.5295 20.3332 14.806C19.9838 15.0826 19.7194 15.4659 19.5399 15.956C19.3603 16.4461 19.2706 17.0138 19.2706 17.6591C19.2706 18.3093 19.3603 18.8843 19.5399 19.3841C19.7242 19.879 19.9887 20.2672 20.3332 20.5486C20.6826 20.8252 21.112 20.9635 21.6215 20.9635Z" fill="black"/>
<path d="M17.7966 11.3335L14.9581 11.5082C14.9096 11.2655 14.8052 11.0472 14.6451 10.8531C14.485 10.6542 14.2739 10.4965 14.0119 10.38C13.7547 10.2587 13.4466 10.1981 13.0875 10.1981C12.6072 10.1981 12.202 10.2999 11.8721 10.5037C11.5421 10.7027 11.3771 10.9696 11.3771 11.3044C11.3771 11.5712 11.4839 11.7969 11.6974 11.9812C11.9109 12.1656 12.2772 12.3136 12.7964 12.4252L14.8198 12.8328C15.9067 13.056 16.717 13.4151 17.2507 13.91C17.7845 14.4049 18.0514 15.0551 18.0514 15.8606C18.0514 16.5933 17.8354 17.2362 17.4036 17.7893C16.9766 18.3425 16.3895 18.7743 15.6422 19.0849C14.8998 19.3906 14.0434 19.5434 13.073 19.5434C11.5931 19.5434 10.414 19.2353 9.53573 18.6191C8.66233 17.998 8.15042 17.1537 8 16.0862L11.0496 15.9261C11.1418 16.3773 11.365 16.7219 11.7192 16.9596C12.0734 17.1925 12.5271 17.309 13.0803 17.309C13.6237 17.309 14.0604 17.2046 14.3904 16.996C14.7252 16.7825 14.895 16.5084 14.8998 16.1736C14.895 15.8921 14.7761 15.6616 14.5432 15.4821C14.3103 15.2977 13.9512 15.157 13.466 15.06L11.53 14.6742C10.4382 14.4559 9.62549 14.0774 9.09175 13.5388C8.56286 13.0002 8.29841 12.3136 8.29841 11.479C8.29841 10.7609 8.4925 10.1423 8.88068 9.62306C9.27371 9.10388 9.82443 8.70357 10.5329 8.42214C11.2461 8.14071 12.0807 8 13.0366 8C14.4486 8 15.5598 8.29841 16.3701 8.89523C17.1852 9.49206 17.6608 10.3048 17.7966 11.3335Z" fill="black"/>
<path d="M24 9.44221L27 11V9.98241L24.946 9.01005L24.9737 9.06281V8.93719L24.946 8.98995L27 8.01759V7L24 8.55779V9.44221Z" fill="black"/>
</g>
</g>
<defs>
<clipPath id="clip0_307_1265">
<rect width="36" height="34" fill="white"/>
</clipPath>
<clipPath id="clip1_307_1265">
<rect width="36" height="34" fill="white"/>
</clipPath>
</defs>
</svg>
