<svg width="317" height="493" viewBox="0 0 317 493" fill="none" xmlns="http://www.w3.org/2000/svg">
<g style="mix-blend-mode:hard-light" clip-path="url(#clip0_307_1355)">
<path d="M291.212 360.984L291.201 360.974L291.189 360.965L289.058 359.3C287.541 358.115 287.529 355.825 289.033 354.624C290.12 353.756 291.663 353.756 292.751 354.624L296.182 357.365C308.155 367.96 314.973 380.178 314.973 393.031C314.973 405.886 308.153 418.044 296.172 428.705L295.753 429.078L296.171 429.452C308.153 440.156 314.973 452.209 314.973 465.127C314.973 478.025 308.153 490.205 296.171 500.908L295.752 501.283L296.173 501.656C308.152 512.252 314.973 524.537 314.973 537.329C314.973 550.122 308.153 562.343 296.172 573.004L295.753 573.377L296.171 573.751C308.153 584.455 314.973 596.635 314.973 609.426C314.973 630.025 297.616 648.858 269.242 662.571C240.904 676.267 201.735 684.766 158.488 684.766C115.242 684.766 76.0732 676.261 47.7348 662.563C19.3609 648.847 2.00415 630.014 2.00415 609.426C2.00415 596.633 8.71431 584.454 20.8036 573.752L21.2286 573.376L20.8018 573.002C8.71514 562.408 2.00414 550.187 2.00414 537.329C2.00414 524.472 8.71443 512.315 20.8029 501.656L21.2274 501.282L20.8036 500.907C8.71544 490.206 2.00414 477.921 2.00414 465.127C2.00414 452.334 8.7143 440.155 20.8036 429.453L21.2286 429.077L20.8018 428.703C8.71514 418.109 2.00414 405.888 2.00414 393.031C2.00414 380.177 8.71099 368.022 20.7936 357.365L24.2273 354.623C25.3138 353.756 26.8562 353.756 27.9427 354.623C29.4462 355.824 29.4329 358.114 27.9156 359.297L25.7776 360.964L25.766 360.974L25.7549 360.983C14.8421 370.575 8.61327 381.42 8.61327 393.031C8.61327 404.662 14.8414 415.549 25.7562 425.079L26.0636 425.347L26.3881 425.1C45.772 410.327 75.4959 398.996 110.757 393.527L110.761 393.527L110.823 393.521L111.065 393.5C111.278 393.482 111.594 393.455 112.003 393.42C112.82 393.351 114.009 393.252 115.496 393.134C118.471 392.897 122.638 392.58 127.405 392.264C136.943 391.632 148.877 391 158.483 391C168.09 391 180.023 391.632 189.561 392.264C194.329 392.58 198.495 392.897 201.47 393.134C202.957 393.252 204.146 393.351 204.964 393.42C205.372 393.455 205.688 393.482 205.901 393.5L206.143 393.521L206.205 393.527L206.209 393.527C241.401 399.06 271.08 410.348 290.58 425.101L290.905 425.347L291.211 425.078C302.057 415.55 308.353 404.641 308.353 393.031C308.353 381.398 302.056 370.574 291.212 360.984ZM26.3384 433.165L26.0139 432.918L25.7068 433.186C14.7924 442.715 8.56387 453.602 8.56387 465.171C8.56387 476.802 14.792 487.689 25.7068 497.219L26.0142 497.487L26.3387 497.24C45.7256 482.465 75.4556 471.133 110.724 465.665L110.724 464.676C75.458 459.208 45.7291 447.919 26.3384 433.165ZM26.3384 505.304L26.0139 505.057L25.7068 505.325C14.7919 514.854 8.56387 525.763 8.56387 537.373C8.56387 549.005 14.7928 559.829 25.7055 569.421L26.0135 569.691L26.3392 569.442C45.726 554.625 75.4555 543.272 110.723 537.868L110.725 536.879C75.4582 531.347 45.7292 520.058 26.3384 505.304ZM308.351 609.511L308.351 609.011L308.277 609.011C308.099 597.589 301.828 586.918 291.139 577.528L290.833 577.258L290.507 577.504C262.733 598.516 214.071 612.584 158.428 612.584C102.788 612.584 53.9894 598.516 26.2866 577.505L25.9623 577.259L25.6557 577.527C14.7416 587.055 8.51277 597.9 8.51277 609.511C8.51277 628.717 25.5191 645.987 52.6064 658.427C79.7378 670.888 117.167 678.598 158.432 678.598C199.686 678.598 237.115 670.888 264.249 658.427C291.339 645.987 308.351 628.717 308.351 609.511ZM31.3261 572.997L30.7798 573.399L31.3254 573.802C57.841 593.382 104.818 606.375 158.432 606.375C211.98 606.375 259.021 593.318 285.538 573.802L286.084 573.4L285.539 572.997C259.023 553.417 212.046 540.425 158.432 540.425C104.815 540.425 57.8433 553.481 31.3261 572.997ZM290.577 569.422L290.904 569.67L291.211 569.399C302.055 559.808 308.351 548.964 308.351 537.352C308.351 525.72 302.055 514.833 291.209 505.305L290.902 505.035L290.577 505.282C271.144 520.058 241.414 531.39 206.191 536.858L206.192 537.846C241.39 543.251 271.075 554.604 290.577 569.422ZM31.3261 500.838L30.7798 501.24L31.3254 501.643C57.841 521.224 104.818 534.216 158.432 534.216C211.98 534.216 259.021 521.159 285.538 501.643L286.085 501.241L285.538 500.838C259.023 481.322 212.048 468.202 158.432 468.202C104.815 468.202 57.8429 481.322 31.3261 500.838ZM290.578 497.199L290.903 497.445L291.209 497.176C302.056 487.648 308.351 476.739 308.351 465.129C308.351 453.56 302.055 442.672 291.209 433.145L290.903 432.875L290.577 433.122C271.144 447.877 241.414 459.23 206.192 464.634L206.19 465.623C241.39 471.154 271.075 482.444 290.578 497.199ZM31.3261 428.614L30.7798 429.016L31.3254 429.419C57.841 449 104.818 461.992 158.432 461.992C211.98 461.992 259.021 448.936 285.538 429.42L286.084 429.018L285.539 428.615C259.023 409.034 212.046 396.042 158.432 396.042C104.815 396.042 57.8432 409.098 31.3261 428.614Z" stroke="url(#paint0_linear_307_1355)" stroke-opacity="0.9"/>
<path d="M25.7644 -183.016L25.7758 -183.026L25.7878 -183.035L27.9191 -184.7C29.4355 -185.885 29.4477 -188.175 27.9441 -189.376C26.8569 -190.244 25.3135 -190.244 24.2262 -189.376L20.7943 -186.635C8.82133 -176.04 2.00426 -163.822 2.00426 -150.969C2.00426 -138.114 8.82365 -125.956 20.8047 -115.295L21.2236 -114.922L20.8055 -114.548C8.82335 -103.844 2.00425 -91.7906 2.00425 -78.8727C2.00425 -65.9747 8.82408 -53.7951 20.8054 -43.0917L21.2249 -42.717L20.8036 -42.3444C8.82523 -31.7481 2.00425 -19.4631 2.00425 -6.67053C2.00425 6.12187 8.82398 18.3434 20.8047 29.0043L21.2236 29.3771L20.8055 29.7507C8.82404 40.4546 2.00425 52.6348 2.00425 65.4262C2.00424 86.0254 19.361 104.858 47.7349 118.571C76.0732 132.267 115.242 140.766 158.488 140.766C201.735 140.766 240.904 132.261 269.242 118.563C297.616 104.847 314.973 86.0143 314.973 65.4262C314.973 52.6326 308.262 40.4537 296.173 29.7522L295.748 29.376L296.175 29.0018C308.262 18.4077 314.973 6.18723 314.973 -6.67052C314.973 -19.5276 308.262 -31.6851 296.174 -42.3438L295.749 -42.7181L296.173 -43.0932C308.261 -53.7937 314.973 -66.0785 314.973 -78.8727C314.973 -91.6663 308.263 -103.845 296.173 -114.547L295.748 -114.923L296.175 -115.297C308.262 -125.891 314.973 -138.112 314.973 -150.969C314.973 -163.823 308.266 -175.978 296.183 -186.635L292.749 -189.377C291.663 -190.244 290.121 -190.244 289.034 -189.377C287.531 -188.176 287.544 -185.886 289.061 -184.703L291.199 -183.036L291.211 -183.026L291.222 -183.017C302.135 -173.425 308.364 -162.58 308.364 -150.969C308.364 -139.338 302.135 -128.451 291.221 -118.921L290.913 -118.653L290.589 -118.9C271.202 -133.675 241.472 -145.007 206.204 -150.475L206.146 -150.484L206.093 -150.506L206.28 -150.969C206.093 -150.506 206.093 -150.506 206.093 -150.506L206.092 -150.506L206.088 -150.508L206.073 -150.514L206.012 -150.538C205.958 -150.56 205.877 -150.592 205.771 -150.634C205.559 -150.718 205.244 -150.841 204.836 -150.998C204.021 -151.313 202.834 -151.762 201.349 -152.301C198.38 -153.38 194.22 -154.818 189.46 -156.256C179.927 -159.136 168.04 -162 158.494 -162C148.948 -162 137.06 -159.136 127.527 -156.256C122.768 -154.818 118.608 -153.38 115.638 -152.301C114.153 -151.762 112.966 -151.313 112.151 -150.998C111.743 -150.841 111.429 -150.718 111.216 -150.634C111.11 -150.592 111.029 -150.56 110.975 -150.538L110.914 -150.514L110.899 -150.508L110.896 -150.506L110.895 -150.506C110.895 -150.506 110.895 -150.506 110.707 -150.969L110.895 -150.506L110.841 -150.484L110.785 -150.476C75.5854 -144.944 45.8997 -133.654 26.3973 -118.899L26.072 -118.653L25.7656 -118.922C14.9194 -128.45 8.62382 -139.359 8.62382 -150.969C8.62382 -162.602 14.921 -173.426 25.7644 -183.016ZM290.638 -110.835L290.963 -111.082L291.27 -110.814C302.184 -101.285 308.413 -90.3976 308.413 -78.8295C308.413 -67.1984 302.185 -56.3105 291.27 -46.781L290.963 -46.5127L290.638 -46.76C271.251 -61.5353 241.521 -72.8674 206.253 -78.3354L206.253 -79.3236C241.519 -84.7916 271.248 -96.0811 290.638 -110.835ZM290.638 -38.6964L290.963 -38.9433L291.27 -38.6752C302.185 -29.1456 308.413 -18.2365 308.413 -6.62672C308.413 5.00508 302.184 15.8292 291.271 25.4206L290.963 25.6913L290.638 25.4423C271.251 10.6252 241.521 -0.727893 206.254 -6.1325L206.252 -7.12069C241.519 -12.6526 271.248 -23.9422 290.638 -38.6964ZM8.62555 65.5111L8.62555 65.0111L8.69989 65.0111C8.87787 53.5886 15.1487 42.9179 25.8377 33.5275L26.1441 33.2584L26.4694 33.5044C54.2442 54.5162 102.906 68.5844 158.549 68.5844C214.188 68.5844 262.987 54.516 290.69 33.5048L291.015 33.2588L291.321 33.5265C302.235 43.0554 308.464 53.9005 308.464 65.5111C308.464 84.7168 291.458 101.987 264.37 114.427C237.239 126.888 199.81 134.598 158.545 134.598C117.291 134.598 79.862 126.888 52.7278 114.427C25.6377 101.987 8.62555 84.7166 8.62555 65.5111ZM285.651 28.9968L286.197 29.3988L285.651 29.8017C259.136 49.3823 212.159 62.3745 158.545 62.3745C104.996 62.3745 57.9561 49.3182 31.4388 29.8022L30.8926 29.4002L31.4382 28.9973C57.9537 9.41672 104.931 -3.57548 158.545 -3.57548C212.162 -3.57547 259.134 9.48088 285.651 28.9968ZM26.3998 25.4222L26.0732 25.6703L25.7661 25.3986C14.9219 15.8082 8.62556 4.96393 8.62556 -6.64773C8.62556 -18.2799 14.9219 -29.1674 25.7673 -38.6952L26.0745 -38.965L26.3999 -38.7175C45.8326 -23.9418 75.5624 -12.6097 110.786 -7.14181L110.785 -6.15353C75.5872 -0.749018 45.9021 10.6039 26.3998 25.4222ZM285.651 -43.1619L286.197 -42.7599L285.651 -42.357C259.136 -22.7764 212.159 -9.78423 158.545 -9.78423C104.996 -9.78423 57.9561 -22.8406 31.4388 -42.3565L30.8917 -42.7592L31.4388 -43.1619C57.9534 -62.6777 104.929 -75.7976 158.545 -75.7976C212.162 -75.7976 259.134 -62.6777 285.651 -43.1619ZM26.399 -46.8009L26.0737 -46.5548L25.7673 -46.824C14.9211 -56.352 8.62556 -67.2605 8.62556 -78.8714C8.62556 -90.4401 14.9223 -101.328 25.7673 -110.855L26.0743 -111.125L26.3996 -110.878C45.8325 -96.1233 75.5624 -84.7702 110.785 -79.3656L110.787 -78.3775C75.5871 -72.8457 45.9014 -61.5562 26.399 -46.8009ZM285.651 -115.386L286.197 -114.984L285.651 -114.581C259.136 -95.0001 212.159 -82.0079 158.545 -82.0079C104.996 -82.0079 57.9561 -95.0642 31.4388 -114.58L30.8926 -114.982L31.4382 -115.385C57.9537 -134.966 104.931 -147.958 158.545 -147.958C212.162 -147.958 259.134 -134.902 285.651 -115.386Z" stroke="url(#paint1_linear_307_1355)" stroke-opacity="0.9"/>
</g>
<defs>
<linearGradient id="paint0_linear_307_1355" x1="1.50414" y1="518.883" x2="98.6336" y2="518.883" gradientUnits="userSpaceOnUse">
<stop stop-color="#1B1B1B"/>
<stop offset="1" stop-color="#0D0D0D" stop-opacity="0.35"/>
</linearGradient>
<linearGradient id="paint1_linear_307_1355" x1="315.473" y1="-25.1169" x2="218.343" y2="-25.1169" gradientUnits="userSpaceOnUse">
<stop stop-color="#1B1B1B"/>
<stop offset="1" stop-color="#0D0D0D" stop-opacity="0.35"/>
</linearGradient>
<clipPath id="clip0_307_1355">
<rect width="493" height="317" fill="white" transform="translate(0 492.5) rotate(-90)"/>
</clipPath>
</defs>
</svg>
