<svg width="48" height="49" viewBox="0 0 48 49" fill="none" xmlns="http://www.w3.org/2000/svg">
<path d="M32 42.5801V38.5801C32 36.4583 31.1571 34.4235 29.6569 32.9232C28.1566 31.4229 26.1217 30.5801 24 30.5801H10C7.87827 30.5801 5.84344 31.4229 4.34315 32.9232C2.84285 34.4235 2 36.4583 2 38.5801V42.5801M34 22.5801L38 26.5801L46 18.5801M25 14.5801C25 18.9984 21.4183 22.5801 17 22.5801C12.5817 22.5801 9 18.9984 9 14.5801C9 10.1618 12.5817 6.58008 17 6.58008C21.4183 6.58008 25 10.1618 25 14.5801Z" stroke="#8D96EA" stroke-width="3.5" stroke-linecap="round" stroke-linejoin="round"/>
</svg>
