<svg width="41" height="41" viewBox="0 0 41 41" fill="none" xmlns="http://www.w3.org/2000/svg">
<path d="M33.759 0.5H7.19145C3.52354 0.5 0.5 3.52354 0.5 7.19145V33.8086C0.5 37.4765 3.52354 40.5 7.19145 40.5H33.8086C37.4765 40.5 40.5 37.4765 40.5 33.8086V7.19145C40.4504 3.47398 37.4765 0.5 33.759 0.5ZM22.9535 27.4145C21.07 29.298 18.5421 30.3389 15.8656 30.3389C13.189 30.3389 10.6611 29.298 8.77757 27.4145C6.89405 25.531 5.85316 23.0031 5.85316 20.3265C5.85316 17.9473 6.69579 15.6673 8.23234 13.8829C7.93494 13.4368 7.83581 12.8916 7.83581 12.3959C7.83581 10.7602 9.1741 9.4715 10.7602 9.4715C12.3463 9.4715 13.6846 10.8098 13.6846 12.3959C13.6846 13.982 12.3463 15.3203 10.7602 15.3203C10.3141 15.3203 9.86803 15.2212 9.4715 15.0229C8.23234 16.5595 7.53841 18.3934 7.53841 20.3761C7.53841 22.6066 8.43061 24.7379 10.0167 26.324C11.6028 27.9102 13.6846 28.8024 15.9647 28.8024C18.2447 28.8024 20.3265 27.9102 21.9126 26.324C25.184 23.0527 25.184 17.6995 21.9126 14.4281L21.8135 14.329L23.0031 13.1394L23.1022 13.2385C26.9188 17.1543 26.9188 23.4988 22.9535 27.4145ZM32.8172 27.0675C33.1146 27.5136 33.2138 28.0589 33.2138 28.5545C33.2138 30.1902 31.8755 31.4789 30.2893 31.4789C28.7032 31.4789 27.3649 30.1406 27.3649 28.5545C27.3649 26.9684 28.7032 25.6301 30.2893 25.6301C30.7354 25.6301 31.1815 25.7292 31.5781 25.9275C34.3042 22.6066 34.0564 17.6995 31.0328 14.676C29.4467 13.0898 27.3154 12.1976 25.0849 12.1976C22.8544 12.1976 20.723 13.0898 19.1369 14.676C15.8656 17.9473 15.8656 23.3005 19.1369 26.5719L19.2361 26.671L18.0465 27.8606L17.9969 27.7615C14.0812 23.8457 14.0812 17.4517 17.9969 13.5359C19.8804 11.6524 22.4083 10.6115 25.0849 10.6115C27.7615 10.6115 30.2893 11.6524 32.1729 13.5359C35.8903 17.2038 36.1382 23.1022 32.8172 27.0675Z" fill="black"/>
<path d="M30.2895 29.8929C31.0012 29.8929 31.5782 29.3159 31.5782 28.6042C31.5782 27.8924 31.0012 27.3154 30.2895 27.3154C29.5777 27.3154 29.0007 27.8924 29.0007 28.6042C29.0007 29.3159 29.5777 29.8929 30.2895 29.8929Z" fill="black"/>
<path d="M10.7106 13.6351C11.4223 13.6351 11.9993 13.0581 11.9993 12.3463C11.9993 11.6346 11.4223 11.0576 10.7106 11.0576C9.99886 11.0576 9.42188 11.6346 9.42188 12.3463C9.42188 13.0581 9.99886 13.6351 10.7106 13.6351Z" fill="black"/>
</svg>
