<svg width="458" height="493" viewBox="0 0 458 493" fill="none" xmlns="http://www.w3.org/2000/svg">
<g clip-path="url(#clip0_307_1344)">
<path d="M324.808 88.3439C324.808 91.6593 322.126 94.3433 318.816 94.3433L137.055 94.3433C133.745 94.3433 131.063 91.6592 131.063 88.3439L131.063 62.3463C131.063 59.031 133.745 56.3469 137.055 56.3469L318.816 56.347C322.126 56.347 324.808 59.031 324.808 62.3464L324.808 88.3439ZM150.038 82.3445L227.936 82.3445C231.799 82.3445 234.927 79.2116 234.927 75.3451C234.927 71.4786 231.799 68.3457 227.936 68.3457L150.038 68.3457C146.175 68.3457 143.046 71.4786 143.046 75.3451C143.046 79.2116 146.175 82.3445 150.038 82.3445ZM286.859 75.3451C286.859 71.4787 283.731 68.3457 279.867 68.3457C276.004 68.3457 272.876 71.4787 272.876 75.3451C272.876 79.2116 276.004 82.3445 279.867 82.3445C283.731 82.3445 286.859 79.2116 286.859 75.3451ZM312.825 75.3451C312.825 71.4787 309.697 68.3457 305.833 68.3457C301.97 68.3457 298.842 71.4787 298.842 75.3451C298.842 79.2116 301.97 82.3445 305.833 82.3445C309.697 82.3445 312.825 79.2116 312.825 75.3451Z" fill="url(#paint0_linear_307_1344)" fill-opacity="0.9" stroke="url(#paint1_linear_307_1344)"/>
<path d="M143.716 386.038L144.049 385.92L144.049 385.566L144.049 146.834L144.049 146.334L143.549 146.334L137.057 146.334C133.747 146.334 131.066 143.65 131.066 140.335L131.066 114.337C131.066 111.022 133.747 108.338 137.057 108.338L318.819 108.338C322.128 108.338 324.81 111.022 324.81 114.337L324.81 140.335C324.81 143.65 322.128 146.334 318.819 146.334L312.327 146.334L311.827 146.334L311.827 146.834L311.827 333.57L311.827 333.923L312.16 334.041C319.529 336.653 324.81 343.699 324.81 351.963C324.81 362.444 316.302 370.961 305.836 370.961C295.369 370.961 286.861 362.444 286.861 351.963C286.861 343.699 292.142 336.653 299.511 334.041L299.844 333.923L299.844 333.57L299.844 146.834L299.844 146.334L299.344 146.334L260.395 146.334L259.895 146.334L259.895 146.834L259.895 385.566L259.895 385.92L260.228 386.038C267.597 388.65 272.878 395.696 272.878 403.96C272.878 414.44 264.37 422.958 253.904 422.958C243.437 422.958 234.929 414.44 234.929 403.96C234.929 395.696 240.21 388.65 247.579 386.038L247.912 385.92L247.912 385.566L247.912 146.834L247.912 146.334L247.412 146.334L208.463 146.334L207.963 146.334L207.963 146.834L207.963 333.57L207.963 333.923L208.296 334.041C215.665 336.653 220.946 343.699 220.946 351.963C220.946 362.444 212.438 370.961 201.972 370.961C191.505 370.961 182.997 362.444 182.997 351.963C182.997 343.699 188.279 336.653 195.648 334.041L195.98 333.923L195.98 333.569L195.98 146.834L195.98 146.334L195.48 146.334L156.532 146.334L156.032 146.334L156.032 146.834L156.032 385.566L156.032 385.92L156.364 386.038C163.733 388.65 169.015 395.696 169.015 403.96C169.015 414.44 160.507 422.958 150.04 422.958C139.574 422.958 131.066 414.44 131.066 403.96C131.066 395.696 136.347 388.65 143.716 386.038ZM150.04 134.335L227.938 134.335C231.801 134.335 234.929 131.203 234.929 127.336C234.929 123.47 231.801 120.337 227.938 120.337L150.04 120.337C146.177 120.337 143.049 123.47 143.049 127.336C143.049 131.203 146.177 134.335 150.04 134.335ZM286.861 127.336C286.861 123.47 283.733 120.337 279.87 120.337C276.006 120.337 272.878 123.47 272.878 127.336C272.878 131.203 276.006 134.335 279.87 134.335C283.733 134.335 286.861 131.203 286.861 127.336ZM312.827 127.336C312.827 123.47 309.699 120.337 305.836 120.337C301.972 120.337 298.844 123.47 298.844 127.336C298.844 131.203 301.972 134.335 305.836 134.335C309.699 134.335 312.827 131.203 312.827 127.336Z" fill="url(#paint2_linear_307_1344)" stroke="url(#paint3_linear_307_1344)"/>
<path d="M78.752 104.144L78.752 103.909L78.5707 103.759C62.8252 90.7372 52.7861 71.0366 52.7861 49.0125C52.7861 9.83662 84.5657 -21.9829 123.694 -21.9829L123.909 -21.9829L124.056 -22.1379L130.548 -28.9459L130.685 -29.0894L130.686 -29.2877C130.846 -53.9873 150.926 -73.9768 175.628 -73.9768C192.448 -73.9768 207.134 -64.6898 214.839 -50.964C218.482 -44.4724 220.569 -36.9685 220.569 -28.9806C220.569 -25.1141 223.697 -21.9812 227.56 -21.9812C231.423 -21.9812 234.552 -25.1141 234.552 -28.9806C234.552 -37.6073 232.706 -45.7898 229.375 -53.181C242.201 -66.0267 259.923 -73.9768 279.492 -73.9768C318.619 -73.9768 350.4 -42.1593 350.4 -2.98136C350.4 5.37638 348.95 13.4114 346.308 20.8648C345.504 23.104 345.888 25.5905 347.356 27.4814C348.806 29.3695 351.112 30.3851 353.472 30.1765C354.778 30.0797 356.078 30.0156 357.392 30.0156C382.189 30.0156 402.334 50.1828 402.334 75.0134C402.334 97.6716 385.578 116.424 363.814 119.559L363.385 119.621L363.385 120.054L363.385 250.979L363.385 251.332L363.718 251.45C371.087 254.063 376.368 261.109 376.368 269.372C376.368 279.853 367.86 288.371 357.394 288.371C346.927 288.371 338.419 279.853 338.419 269.372C338.419 261.109 343.701 254.063 351.07 251.45L351.402 251.332L351.402 250.979L351.402 120.507L351.402 120.007L350.902 120.007L338.419 120.007L338.419 114.008C338.419 109.051 336.607 104.5 333.618 101.009C336.607 97.5174 338.419 92.9667 338.419 88.0101L338.42 62.0125C338.42 50.9644 329.481 42.0144 318.445 42.0144L136.684 42.0143C125.648 42.0143 116.709 50.9644 116.709 62.0125L116.709 88.0101C116.709 92.9667 118.522 97.5174 121.511 101.009C118.522 104.5 116.709 109.051 116.709 114.008L116.709 119.665C107.693 118.775 99.1794 116.201 91.4708 112.263L90.7433 111.891L90.7433 112.708L90.7433 225.975L90.7433 226.328L91.0762 226.446C98.4452 229.059 103.726 236.105 103.726 244.368C103.726 254.849 95.2183 263.366 84.7518 263.366C74.2853 263.366 65.7774 254.849 65.7774 244.368C65.7774 236.104 71.0584 229.059 78.4274 226.446L78.7604 226.328L78.7603 225.975L78.752 104.144Z" fill="url(#paint4_linear_307_1344)" fill-opacity="0.9" stroke="url(#paint5_linear_307_1344)"/>
</g>
<defs>
<linearGradient id="paint0_linear_307_1344" x1="227.936" y1="55.8469" x2="227.936" y2="67.9109" gradientUnits="userSpaceOnUse">
<stop stop-color="#474747" stop-opacity="0.25"/>
<stop offset="1" stop-color="#1B1B1B"/>
</linearGradient>
<linearGradient id="paint1_linear_307_1344" x1="130.563" y1="75.3451" x2="325.308" y2="75.3451" gradientUnits="userSpaceOnUse">
<stop offset="0.35" stop-color="#858899" stop-opacity="0"/>
<stop offset="1" stop-color="#DDE2FF" stop-opacity="0.8"/>
</linearGradient>
<linearGradient id="paint2_linear_307_1344" x1="227.938" y1="262.188" x2="227.936" y2="461.675" gradientUnits="userSpaceOnUse">
<stop stop-color="#474747" stop-opacity="0.25"/>
<stop offset="1"/>
</linearGradient>
<linearGradient id="paint3_linear_307_1344" x1="130.566" y1="279.039" x2="325.31" y2="279.039" gradientUnits="userSpaceOnUse">
<stop offset="0.35" stop-color="#858899" stop-opacity="0"/>
<stop offset="1" stop-color="#DDE2FF" stop-opacity="0.8"/>
</linearGradient>
<linearGradient id="paint4_linear_307_1344" x1="227.56" y1="-74.4768" x2="227.56" y2="107.172" gradientUnits="userSpaceOnUse">
<stop stop-color="#474747" stop-opacity="0.25"/>
<stop offset="1" stop-color="#1B1B1B"/>
</linearGradient>
<linearGradient id="paint5_linear_307_1344" x1="402.834" y1="107.197" x2="353.611" y2="107.197" gradientUnits="userSpaceOnUse">
<stop stop-color="#DDE2FF" stop-opacity="0.8"/>
<stop offset="1" stop-color="#858899" stop-opacity="0"/>
</linearGradient>
<clipPath id="clip0_307_1344">
<rect width="457" height="493" fill="white" transform="translate(0.5)"/>
</clipPath>
</defs>
</svg>
