<svg width="41" height="41" viewBox="0 0 41 41" fill="none" xmlns="http://www.w3.org/2000/svg">
<path d="M33.759 0.5H7.19145C3.52354 0.5 0.5 3.52354 0.5 7.19145V33.8086C0.5 37.4765 3.52354 40.5 7.19145 40.5H33.8086C37.4765 40.5 40.5 37.4765 40.5 33.8086V7.19145C40.4504 3.47398 37.4765 0.5 33.759 0.5ZM34.7007 33.5607C34.7007 34.1059 34.2546 34.552 33.7094 34.552H10.9585C10.9089 34.552 10.8098 34.552 10.7602 34.552C10.7107 34.552 10.7107 34.552 10.6611 34.5025C10.6115 34.5025 10.6115 34.5025 10.562 34.4529C10.5124 34.4529 10.5124 34.4033 10.4628 34.4033C10.4133 34.4033 10.4133 34.3538 10.3637 34.3538C10.3141 34.3042 10.2646 34.2547 10.215 34.2547C10.1654 34.2547 10.1159 34.1555 10.1159 34.1059C10.1159 34.0564 10.0663 34.0564 10.0663 34.0068C10.0663 33.9573 10.0167 33.9572 10.0167 33.9077C10.0167 33.8581 10.0167 33.8581 9.96716 33.8086C9.96716 33.759 9.96716 33.759 9.9176 33.7094C9.86803 33.5607 9.86803 33.4616 9.9176 33.3129C9.9176 33.2633 9.9176 33.2633 9.9176 33.2138C9.9176 33.1642 9.91759 33.1642 9.96716 33.1146C9.96716 33.0651 10.0167 33.0651 10.0167 33.0155C10.0167 32.9659 10.0663 32.9659 10.0663 32.9164C10.1159 32.8668 10.1654 32.8172 10.1654 32.7677L17.9473 24.9857C16.4603 22.8544 16.7082 19.8804 18.5917 17.9969C20.723 15.8656 24.1927 15.8656 26.324 17.9969C28.4554 20.1283 28.4554 23.5979 26.324 25.7292C24.4405 27.6128 21.4665 27.811 19.3352 26.3736L13.3872 32.5694H32.7677V11.355H14.0812C13.9325 11.9994 13.5855 12.6437 13.0403 13.1394C11.5037 14.676 8.97584 14.676 7.43928 13.1394C5.90273 11.6028 5.90273 9.07497 7.43928 7.53841C8.97584 6.00186 11.5037 6.00186 13.0403 7.53841C13.5359 8.03408 13.8829 8.67844 14.0812 9.3228H33.759C34.0564 9.3228 34.3042 9.42193 34.4529 9.6202C34.6512 9.81846 34.7503 10.0663 34.7503 10.3141V33.5607H34.7007Z" fill="black"/>
<path d="M25.0353 24.4406C26.3736 23.1023 26.3736 20.8718 25.0353 19.4839C23.697 18.1457 21.4665 18.1457 20.0787 19.4839C18.7404 20.8222 18.7404 23.0527 20.0787 24.4406C21.4665 25.7789 23.6474 25.7789 25.0353 24.4406Z" fill="black"/>
</svg>
