<svg width="48" height="49" viewBox="0 0 48 49" fill="none" xmlns="http://www.w3.org/2000/svg">
<path d="M44 24.5801C44 35.6258 35.0457 44.5801 24 44.5801M44 24.5801C44 13.5344 35.0457 4.58008 24 4.58008M44 24.5801H4M24 44.5801C12.9543 44.5801 4 35.6258 4 24.5801M24 44.5801C29.0026 39.1034 31.8455 31.996 32 24.5801C31.8455 17.1641 29.0026 10.0568 24 4.58008M24 44.5801C18.9974 39.1034 16.1545 31.996 16 24.5801C16.1545 17.1641 18.9974 10.0568 24 4.58008M4 24.5801C4 13.5344 12.9543 4.58008 24 4.58008" stroke="#8D96EA" stroke-width="3.5" stroke-linecap="round" stroke-linejoin="round"/>
</svg>
